{
.appVersion = "3108";
copyright = "Trademark © Ariel Martín Pérez - SIL Open Font License v1.1";
customParameters = (
{
name = "Disable Subroutines";
value = 1;
},
{
name = licenseURL;
value = "http://scripts.sil.org/OFL";
}
);
date = "2019-10-16 09:39:07 +0000";
designer = "Ariel Martín Pérez";
designerURL = "https://appliedmetaprojects.com/";
familyName = Teranoptia;
fontMaster = (
{
alignmentZones = (
"{70, 1}",
"{35, 1}"
);
ascender = 800;
capHeight = 700;
custom = Furiae;
customParameters = (
{
name = typoAscender;
value = 800;
},
{
name = typoDescender;
value = -200;
},
{
name = typoLineGap;
value = -2;
},
{
name = winAscent;
value = 800;
},
{
name = winDescent;
value = 200;
},
{
name = hheaAscender;
value = 800;
},
{
name = hheaDescender;
value = -200;
},
{
name = strikeoutPosition;
value = 300;
},
{
name = strikeoutSize;
value = 50;
}
);
descender = -200;
id = "36C34FB4-9C42-4BD9-991C-7B94FED7D558";
xHeight = 500;
}
);
glyphs = (
{
glyphname = a;
lastChange = "2021-11-22 09:40:36 +0000";
layers = (
{
layerId = "36C34FB4-9C42-4BD9-991C-7B94FED7D558";
paths = (
{
closed = 1;
nodes = (
"843 87 OFFCURVE",
"898 97 OFFCURVE",
"917 106 CURVE SMOOTH",
"960 127 OFFCURVE",
"978 158 OFFCURVE",
"999 158 CURVE",
"1010 158 LINE",
"1010 442 LINE",
"999 442 LINE",
"978 442 OFFCURVE",
"936 456 OFFCURVE",
"910 465 CURVE SMOOTH",
"884 474 OFFCURVE",
"859 489 OFFCURVE",
"806 489 CURVE SMOOTH",
"721 489 OFFCURVE",
"547 431 OFFCURVE",
"399 364 CURVE SMOOTH",
"363 348 OFFCURVE",
"342 325 OFFCURVE",
"342 302 CURVE SMOOTH",
"342 240 OFFCURVE",
"350 216 OFFCURVE",
"388 194 CURVE SMOOTH",
"426 172 OFFCURVE",
"659 87 OFFCURVE",
"792 87 CURVE SMOOTH"
);
},
{
closed = 1;
nodes = (
"132 83 OFFCURVE",
"154 124 OFFCURVE",
"165 139 CURVE SMOOTH",
"180 160 OFFCURVE",
"208 183 OFFCURVE",
"248 208 CURVE SMOOTH",
"275 225 OFFCURVE",
"304 233 OFFCURVE",
"333 233 CURVE SMOOTH",
"350 233 OFFCURVE",
"378 230 OFFCURVE",
"394 224 CURVE",
"392 274 LINE",
"332 274 OFFCURVE",
"278 272 OFFCURVE",
"213 228 CURVE SMOOTH",
"148 184 OFFCURVE",
"91 180 OFFCURVE",
"74 180 CURVE SMOOTH",
"66 180 OFFCURVE",
"62 178 OFFCURVE",
"62 176 CURVE SMOOTH",
"62 174 OFFCURVE",
"66 171 OFFCURVE",
"70 168 CURVE SMOOTH",
"79 163 OFFCURVE",
"96 160 OFFCURVE",
"115 160 CURVE SMOOTH",
"128 160 OFFCURVE",
"141 162 OFFCURVE",
"151 166 CURVE",
"137 151 OFFCURVE",
"120 108 OFFCURVE",
"120 91 CURVE SMOOTH",
"120 85 OFFCURVE",
"121 83 OFFCURVE",
"123 83 CURVE SMOOTH"
);
},
{
closed = 1;
nodes = (
"741 267 OFFCURVE",
"676 311 OFFCURVE",
"676 335 CURVE SMOOTH",
"676 364 OFFCURVE",
"741 407 OFFCURVE",
"786 407 CURVE",
"774 377 OFFCURVE",
"768 355 OFFCURVE",
"768 333 CURVE SMOOTH",
"768 312 OFFCURVE",
"773 292 OFFCURVE",
"782 267 CURVE"
);
},
{
closed = 1;
nodes = (
"817 292 OFFCURVE",
"822 312 OFFCURVE",
"822 333 CURVE SMOOTH",
"822 355 OFFCURVE",
"816 377 OFFCURVE",
"804 407 CURVE",
"849 407 OFFCURVE",
"914 364 OFFCURVE",
"914 335 CURVE SMOOTH",
"914 311 OFFCURVE",
"849 267 OFFCURVE",
"808 267 CURVE"
);
}
);
width = 1000;
}
);
unicode = 0061;
},
{
glyphname = b;
lastChange = "2021-12-03 20:38:59 +0000";
layers = (
{
layerId = "36C34FB4-9C42-4BD9-991C-7B94FED7D558";
paths = (
{
closed = 1;
nodes = (
"613 -47 OFFCURVE",
"577 255 OFFCURVE",
"741 255 CURVE SMOOTH",
"822 255 OFFCURVE",
"867 158 OFFCURVE",
"990 158 CURVE SMOOTH",
"1010 158 LINE",
"1010 442 LINE",
"990 442 LINE SMOOTH",
"909 442 OFFCURVE",
"870 548 OFFCURVE",
"729 548 CURVE SMOOTH",
"477 548 OFFCURVE",
"451 269 OFFCURVE",
"336 269 CURVE SMOOTH",
"235 269 OFFCURVE",
"194 442 OFFCURVE",
"10 442 CURVE SMOOTH",
"-10 442 LINE",
"-10 158 LINE",
"10 158 LINE SMOOTH",
"142 158 OFFCURVE",
"147 -47 OFFCURVE",
"346 -47 CURVE SMOOTH"
);
}
);
width = 1000;
},
{
associatedMasterId = "36C34FB4-9C42-4BD9-991C-7B94FED7D558";
backgroundImage = {
imagePath = "../AXIS MUNDI/furiae scans/snakebody.jpg";
locked = "1";
transform = "{2.51469, 0, 0, 2.51469, 1, -204}";
};
layerId = "50D4DE99-D135-4A1C-8873-5F1A038AA6D7";
name = "Mar 2 20, 22:15";
paths = (
{
closed = 1;
nodes = (
"0 442 LINE SMOOTH",
"224 442 OFFCURVE",
"295 269 OFFCURVE",
"388 269 CURVE SMOOTH",
"511 269 OFFCURVE",
"537 508 OFFCURVE",
"789 508 CURVE SMOOTH",
"922 508 OFFCURVE",
"939 441 OFFCURVE",
"1000 441 CURVE SMOOTH",
"1010 441 LINE",
"1010 157 LINE",
"1000 157 LINE SMOOTH",
"887 157 OFFCURVE",
"882 215 OFFCURVE",
"801 215 CURVE SMOOTH",
"637 215 OFFCURVE",
"595 -47 OFFCURVE",
"404 -47 CURVE SMOOTH",
"197 -47 OFFCURVE",
"172 157 OFFCURVE",
"0 157 CURVE SMOOTH",
"-10 157 LINE",
"-10 442 LINE"
);
}
);
width = 1000;
},
{
associatedMasterId = "36C34FB4-9C42-4BD9-991C-7B94FED7D558";
backgroundImage = {
imagePath = "../AXIS MUNDI/furiae scans/snakebody.jpg";
locked = "1";
transform = "{2.51469, 0, 0, 2.51469, 1, -204}";
};
layerId = "650C0CC4-48FF-42F4-8238-F32DA8F70AF6";
name = "Mar 2 20, 22:18";
paths = (
{
closed = 1;
nodes = (
"0 442 LINE SMOOTH",
"184 442 OFFCURVE",
"235 269 OFFCURVE",
"328 269 CURVE SMOOTH",
"451 269 OFFCURVE",
"477 548 OFFCURVE",
"729 548 CURVE SMOOTH",
"862 548 OFFCURVE",
"919 441 OFFCURVE",
"1000 441 CURVE SMOOTH",
"1010 441 LINE",
"1010 157 LINE",
"1000 157 LINE SMOOTH",
"877 157 OFFCURVE",
"822 255 OFFCURVE",
"741 255 CURVE SMOOTH",
"577 255 OFFCURVE",
"535 -47 OFFCURVE",
"344 -47 CURVE SMOOTH",
"137 -47 OFFCURVE",
"132 157 OFFCURVE",
"0 157 CURVE SMOOTH",
"-10 157 LINE",
"-10 442 LINE"
);
}
);
width = 1000;
}
);
unicode = 0062;
},
{
glyphname = bdotbelow;
lastChange = "2021-11-23 14:20:08 +0000";
layers = (
{
guideLines = (
{
position = "{-47, 442}";
},
{
position = "{-102, 158}";
}
);
layerId = "36C34FB4-9C42-4BD9-991C-7B94FED7D558";
paths = (
{
closed = 1;
nodes = (
"218 456 OFFCURVE",
"242 430 OFFCURVE",
"307 393 CURVE SMOOTH",
"372 356 OFFCURVE",
"446 330 OFFCURVE",
"525 315 CURVE SMOOTH",
"604 300 OFFCURVE",
"624 297 OFFCURVE",
"624 263 CURVE SMOOTH",
"624 232 OFFCURVE",
"614 217 OFFCURVE",
"575 189 CURVE SMOOTH",
"539 163 OFFCURVE",
"386 91 OFFCURVE",
"362 82 CURVE SMOOTH",
"338 73 OFFCURVE",
"332 60 OFFCURVE",
"332 35 CURVE SMOOTH",
"332 1 OFFCURVE",
"353 -18 OFFCURVE",
"392 -12 CURVE SMOOTH",
"465 0 OFFCURVE",
"504 13 OFFCURVE",
"542 22 CURVE SMOOTH",
"661 51 OFFCURVE",
"746 118 OFFCURVE",
"793 135 CURVE SMOOTH",
"840 152 OFFCURVE",
"959 158 OFFCURVE",
"989 158 CURVE SMOOTH",
"1009 158 LINE",
"1010 442 LINE",
"990 442 LINE SMOOTH",
"963 442 OFFCURVE",
"894 446 OFFCURVE",
"848 458 CURVE SMOOTH",
"796 472 OFFCURVE",
"736 533 OFFCURVE",
"658 533 CURVE SMOOTH",
"603 533 OFFCURVE",
"533 524 OFFCURVE",
"499 524 CURVE SMOOTH",
"465 524 OFFCURVE",
"404 537 OFFCURVE",
"372 544 CURVE SMOOTH",
"332 553 OFFCURVE",
"300 565 OFFCURVE",
"275 565 CURVE SMOOTH",
"260 565 OFFCURVE",
"248 560 OFFCURVE",
"238 548 CURVE SMOOTH",
"225 531 OFFCURVE",
"218 513 OFFCURVE",
"218 488 CURVE SMOOTH"
);
},
{
closed = 1;
nodes = (
"637 408 OFFCURVE",
"644 377 OFFCURVE",
"651 374 CURVE SMOOTH",
"666 369 OFFCURVE",
"691 408 OFFCURVE",
"696 436 CURVE SMOOTH",
"700 463 OFFCURVE",
"695 487 OFFCURVE",
"685 490 CURVE SMOOTH",
"671 494 OFFCURVE",
"652 465 OFFCURVE",
"644 437 CURVE SMOOTH"
);
},
{
closed = 1;
nodes = (
"11 158 LINE SMOOTH",
"95 158 OFFCURVE",
"142 132 OFFCURVE",
"238 132 CURVE SMOOTH",
"334 132 OFFCURVE",
"428 158 OFFCURVE",
"499 189 CURVE SMOOTH",
"560 215 OFFCURVE",
"580 230 OFFCURVE",
"580 251 CURVE SMOOTH",
"580 271 OFFCURVE",
"562 283 OFFCURVE",
"508 283 CURVE SMOOTH",
"382 283 OFFCURVE",
"330 306 OFFCURVE",
"258 345 CURVE SMOOTH",
"186 384 OFFCURVE",
"111 442 OFFCURVE",
"11 442 CURVE SMOOTH",
"-9 442 LINE",
"-9 158 LINE"
);
},
{
closed = 1;
nodes = (
"589 476 OFFCURVE",
"636 488 OFFCURVE",
"671 485 CURVE",
"675 484 OFFCURVE",
"678 484 OFFCURVE",
"682 483 CURVE SMOOTH",
"694 480 LINE",
"732 466 OFFCURVE",
"768 430 OFFCURVE",
"768 407 CURVE SMOOTH",
"768 391 OFFCURVE",
"737 372 OFFCURVE",
"706 372 CURVE SMOOTH",
"692 372 OFFCURVE",
"679 375 OFFCURVE",
"665 379 CURVE SMOOTH",
"658 382 OFFCURVE",
"651 385 OFFCURVE",
"644 388 CURVE SMOOTH",
"612 405 OFFCURVE",
"589 431 OFFCURVE",
"589 455 CURVE SMOOTH"
);
}
);
width = 1000;
},
{
associatedMasterId = "36C34FB4-9C42-4BD9-991C-7B94FED7D558";
backgroundImage = {
imagePath = "../../Documents/PERSONAL TYPEFACES/_TERANOPTIA/ouroboros-head.jpeg";
locked = "1";
transform = "{7.87037, 0, 0, 7.87037, -11, -260}";
};
guideLines = (
{
position = "{-47, 442}";
},
{
position = "{-102, 158}";
}
);
layerId = "FB304340-8AA3-4E9C-A155-673F4A4C8AEE";
name = "Nov 18 21, 16:40";
paths = (
{
closed = 1;
nodes = (
"-9 442 LINE",
"-9 158 LINE",
"11 158 LINE SMOOTH",
"95 158 OFFCURVE",
"142 132 OFFCURVE",
"238 132 CURVE SMOOTH",
"334 132 OFFCURVE",
"428 158 OFFCURVE",
"499 189 CURVE SMOOTH",
"560 215 OFFCURVE",
"580 230 OFFCURVE",
"580 251 CURVE SMOOTH",
"580 271 OFFCURVE",
"562 283 OFFCURVE",
"508 283 CURVE SMOOTH",
"382 283 OFFCURVE",
"330 306 OFFCURVE",
"258 345 CURVE SMOOTH",
"186 384 OFFCURVE",
"111 442 OFFCURVE",
"11 442 CURVE SMOOTH"
);
},
{
closed = 1;
nodes = (
"959 158 OFFCURVE",
"840 152 OFFCURVE",
"793 135 CURVE SMOOTH",
"746 118 OFFCURVE",
"661 31 OFFCURVE",
"542 2 CURVE SMOOTH",
"504 -7 OFFCURVE",
"441 -12 OFFCURVE",
"392 -12 CURVE SMOOTH",
"353 -12 OFFCURVE",
"332 6 OFFCURVE",
"332 35 CURVE SMOOTH",
"332 60 OFFCURVE",
"338 73 OFFCURVE",
"362 82 CURVE SMOOTH",
"386 91 OFFCURVE",
"539 163 OFFCURVE",
"575 189 CURVE SMOOTH",
"614 217 OFFCURVE",
"624 232 OFFCURVE",
"624 263 CURVE SMOOTH",
"624 297 OFFCURVE",
"604 300 OFFCURVE",
"525 315 CURVE SMOOTH",
"446 330 OFFCURVE",
"372 356 OFFCURVE",
"307 393 CURVE SMOOTH",
"242 430 OFFCURVE",
"218 456 OFFCURVE",
"218 488 CURVE SMOOTH",
"218 513 OFFCURVE",
"225 531 OFFCURVE",
"238 548 CURVE SMOOTH",
"248 560 OFFCURVE",
"260 565 OFFCURVE",
"275 565 CURVE SMOOTH",
"300 565 OFFCURVE",
"332 553 OFFCURVE",
"372 544 CURVE SMOOTH",
"404 537 OFFCURVE",
"465 524 OFFCURVE",
"499 524 CURVE SMOOTH",
"533 524 OFFCURVE",
"603 533 OFFCURVE",
"658 533 CURVE SMOOTH",
"736 533 OFFCURVE",
"796 472 OFFCURVE",
"848 458 CURVE SMOOTH",
"894 446 OFFCURVE",
"963 442 OFFCURVE",
"990 442 CURVE",
"1010 442 LINE",
"1009 158 LINE",
"989 158 LINE"
);
},
{
closed = 1;
nodes = (
"302 511 OFFCURVE",
"291 493 OFFCURVE",
"291 475 CURVE SMOOTH",
"291 467 OFFCURVE",
"296 460 OFFCURVE",
"304 460 CURVE SMOOTH",
"311 460 OFFCURVE",
"325 470 OFFCURVE",
"325 495 CURVE SMOOTH",
"325 505 OFFCURVE",
"321 511 OFFCURVE",
"312 511 CURVE SMOOTH"
);
},
{
closed = 1;
nodes = (
"589 479 OFFCURVE",
"589 455 CURVE SMOOTH",
"589 416 OFFCURVE",
"660 382 OFFCURVE",
"716 382 CURVE SMOOTH",
"747 382 OFFCURVE",
"768 391 OFFCURVE",
"768 407 CURVE SMOOTH",
"768 432 OFFCURVE",
"725 463 OFFCURVE",
"682 473 CURVE SMOOTH",
"648 481 OFFCURVE"
);
},
{
closed = 1;
nodes = (
"645 465 OFFCURVE",
"637 447 OFFCURVE",
"637 432 CURVE SMOOTH",
"637 415 OFFCURVE",
"643 408 OFFCURVE",
"650 408 CURVE SMOOTH",
"663 408 OFFCURVE",
"669 425 OFFCURVE",
"669 441 CURVE SMOOTH",
"669 453 OFFCURVE",
"665 465 OFFCURVE",
"656 465 CURVE SMOOTH"
);
}
);
width = 1000;
},
{
associatedMasterId = "36C34FB4-9C42-4BD9-991C-7B94FED7D558";
backgroundImage = {
imagePath = "../../Documents/PERSONAL TYPEFACES/_TERANOPTIA/ouroboros-head.jpeg";
locked = "1";
transform = "{7.87037, 0, 0, 7.87037, -11, -260}";
};
guideLines = (
{
position = "{-47, 442}";
},
{
position = "{-102, 158}";
}
);
layerId = "DD65C49B-A61F-44C8-AECD-7BBD93470124";
name = "Nov 18 21, 16:44";
paths = (
{
closed = 1;
nodes = (
"-9 442 LINE",
"-9 158 LINE",
"11 158 LINE SMOOTH",
"95 158 OFFCURVE",
"142 132 OFFCURVE",
"238 132 CURVE SMOOTH",
"334 132 OFFCURVE",
"428 158 OFFCURVE",
"499 189 CURVE SMOOTH",
"560 215 OFFCURVE",
"580 230 OFFCURVE",
"580 251 CURVE SMOOTH",
"580 271 OFFCURVE",
"562 283 OFFCURVE",
"508 283 CURVE SMOOTH",
"382 283 OFFCURVE",
"330 306 OFFCURVE",
"258 345 CURVE SMOOTH",
"186 384 OFFCURVE",
"111 442 OFFCURVE",
"11 442 CURVE SMOOTH"
);
},
{
closed = 1;
nodes = (
"959 158 OFFCURVE",
"840 152 OFFCURVE",
"793 135 CURVE SMOOTH",
"746 118 OFFCURVE",
"661 51 OFFCURVE",
"542 22 CURVE SMOOTH",
"504 13 OFFCURVE",
"465 0 OFFCURVE",
"392 -12 CURVE SMOOTH",
"353 -18 OFFCURVE",
"332 1 OFFCURVE",
"332 35 CURVE SMOOTH",
"332 60 OFFCURVE",
"338 73 OFFCURVE",
"362 82 CURVE SMOOTH",
"386 91 OFFCURVE",
"539 163 OFFCURVE",
"575 189 CURVE SMOOTH",
"614 217 OFFCURVE",
"624 232 OFFCURVE",
"624 263 CURVE SMOOTH",
"624 297 OFFCURVE",
"604 300 OFFCURVE",
"525 315 CURVE SMOOTH",
"446 330 OFFCURVE",
"372 356 OFFCURVE",
"307 393 CURVE SMOOTH",
"242 430 OFFCURVE",
"218 456 OFFCURVE",
"218 488 CURVE SMOOTH",
"218 513 OFFCURVE",
"225 531 OFFCURVE",
"238 548 CURVE SMOOTH",
"248 560 OFFCURVE",
"260 565 OFFCURVE",
"275 565 CURVE SMOOTH",
"300 565 OFFCURVE",
"332 553 OFFCURVE",
"372 544 CURVE SMOOTH",
"404 537 OFFCURVE",
"465 524 OFFCURVE",
"499 524 CURVE SMOOTH",
"533 524 OFFCURVE",
"603 533 OFFCURVE",
"658 533 CURVE SMOOTH",
"736 533 OFFCURVE",
"796 472 OFFCURVE",
"848 458 CURVE SMOOTH",
"894 446 OFFCURVE",
"963 442 OFFCURVE",
"990 442 CURVE",
"1010 442 LINE",
"1009 158 LINE",
"989 158 LINE"
);
},
{
closed = 1;
nodes = (
"648 481 OFFCURVE",
"589 479 OFFCURVE",
"589 455 CURVE SMOOTH",
"589 416 OFFCURVE",
"660 382 OFFCURVE",
"716 382 CURVE SMOOTH",
"747 382 OFFCURVE",
"768 391 OFFCURVE",
"768 407 CURVE SMOOTH",
"768 432 OFFCURVE",
"725 463 OFFCURVE",
"682 473 CURVE SMOOTH"
);
},
{
closed = 1;
nodes = (
"695 490 OFFCURVE",
"700 463 OFFCURVE",
"696 436 CURVE SMOOTH",
"691 408 OFFCURVE",
"676 379 OFFCURVE",
"661 384 CURVE SMOOTH",
"652 387 OFFCURVE",
"650 403 OFFCURVE",
"650 416 CURVE SMOOTH",
"650 431 OFFCURVE",
"668 490 OFFCURVE",
"685 490 CURVE SMOOTH"
);
}
);
width = 1000;
}
);
unicode = 1E05;
},
{
glyphname = d;
lastChange = "2021-10-15 14:30:18 +0000";
layers = (
{
backgroundImage = {
imagePath = "../AXIS MUNDI/furiae scans/snaketail.jpg";
locked = "1";
transform = "{2.52037, 0, 0, 2.52037, 0, -196}";
};
layerId = "36C34FB4-9C42-4BD9-991C-7B94FED7D558";
paths = (
{
closed = 1;
nodes = (
"794 138 OFFCURVE",
"946 268 OFFCURVE",
"946 306 CURVE SMOOTH",
"946 316 OFFCURVE",
"940 320 OFFCURVE",
"929 320 CURVE SMOOTH",
"898 320 OFFCURVE",
"829 289 OFFCURVE",
"753 289 CURVE SMOOTH",
"476 289 OFFCURVE",
"345 477 OFFCURVE",
"154 477 CURVE SMOOTH",
"95 477 OFFCURVE",
"39 442 OFFCURVE",
"10 442 CURVE",
"-10 442 LINE",
"-10 158 LINE",
"10 158 LINE",
"67 158 OFFCURVE",
"132 231 OFFCURVE",
"206 231 CURVE SMOOTH",
"314 231 OFFCURVE",
"431 138 OFFCURVE",
"624 138 CURVE SMOOTH"
);
}
);
width = 1000;
}
);
unicode = 0064;
},
{
glyphname = e;
lastChange = "2021-10-15 14:30:18 +0000";
layers = (
{
backgroundImage = {
imagePath = "../AXIS MUNDI/furiae scans/humanhead.jpg";
locked = "1";
transform = "{2.52273, 0, 0, 2.52273, 0, -200}";
};
layerId = "36C34FB4-9C42-4BD9-991C-7B94FED7D558";
paths = (
{
closed = 1;
nodes = (
"762 -97 OFFCURVE",
"822 -36 OFFCURVE",
"868 37 CURVE SMOOTH",
"914 110 OFFCURVE",
"970 158 OFFCURVE",
"1000 158 CURVE",
"1010 158 LINE",
"1010 442 LINE",
"1000 442 LINE",
"990 442 LINE SMOOTH",
"948 442 OFFCURVE",
"998 779 OFFCURVE",
"660 779 CURVE SMOOTH",
"554 779 OFFCURVE",
"479 741 OFFCURVE",
"407 648 CURVE SMOOTH",
"370 600 OFFCURVE",
"343 504 OFFCURVE",
"343 457 CURVE SMOOTH",
"343 445 OFFCURVE",
"357 440 OFFCURVE",
"364 440 CURVE SMOOTH",
"372 440 OFFCURVE",
"382 448 OFFCURVE",
"392 459 CURVE",
"396 427 OFFCURVE",
"402 412 OFFCURVE",
"402 372 CURVE SMOOTH",
"402 308 OFFCURVE",
"392 188 OFFCURVE",
"392 144 CURVE SMOOTH",
"392 111 OFFCURVE",
"414 100 OFFCURVE",
"432 100 CURVE SMOOTH",
"450 100 OFFCURVE",
"466 111 OFFCURVE",
"476 107 CURVE SMOOTH",
"480 106 OFFCURVE",
"480 98 OFFCURVE",
"480 88 CURVE SMOOTH",
"480 81 OFFCURVE",
"480 74 OFFCURVE",
"480 66 CURVE SMOOTH",
"480 50 OFFCURVE",
"481 34 OFFCURVE",
"488 27 CURVE SMOOTH",
"497 18 OFFCURVE",
"503 16 OFFCURVE",
"507 16 CURVE SMOOTH",
"511 16 OFFCURVE",
"513 17 OFFCURVE",
"516 18 CURVE",
"513 11 OFFCURVE",
"512 5 OFFCURVE",
"512 0 CURVE SMOOTH",
"512 -7 OFFCURVE",
"515 -12 OFFCURVE",
"522 -16 CURVE SMOOTH",
"533 -22 OFFCURVE",
"557 -28 OFFCURVE",
"565 -38 CURVE SMOOTH",
"586 -65 OFFCURVE",
"599 -97 OFFCURVE",
"693 -97 CURVE SMOOTH"
);
},
{
closed = 1;
nodes = (
"560 346 OFFCURVE",
"531 364 OFFCURVE",
"502 387 CURVE",
"522 418 OFFCURVE",
"557 449 OFFCURVE",
"591 453 CURVE",
"571 440 OFFCURVE",
"563 422 OFFCURVE",
"563 404 CURVE SMOOTH",
"563 380 OFFCURVE",
"579 356 OFFCURVE",
"602 351 CURVE"
);
},
{
closed = 1;
nodes = (
"649 363 OFFCURVE",
"661 384 OFFCURVE",
"661 406 CURVE SMOOTH",
"661 423 OFFCURVE",
"654 441 OFFCURVE",
"638 454 CURVE",
"664 453 OFFCURVE",
"700 437 OFFCURVE",
"725 409 CURVE",
"714 407 OFFCURVE",
"705 400 OFFCURVE",
"696 392 CURVE SMOOTH",
"687 384 OFFCURVE",
"658 360 OFFCURVE",
"627 353 CURVE"
);
}
);
width = 1000;
},
{
associatedMasterId = "36C34FB4-9C42-4BD9-991C-7B94FED7D558";
backgroundImage = {
imagePath = "../AXIS MUNDI/furiae scans/humanhead.jpg";
locked = "1";
transform = "{2.52273, 0, 0, 2.52273, 0, -200}";
};
layerId = "C4976B08-2748-45F6-9D72-66F688CD85BF";
name = "Mar 2 20, 22:48";
paths = (
{
closed = 1;
nodes = (
"586 -65 OFFCURVE",
"599 -97 OFFCURVE",
"693 -97 CURVE SMOOTH",
"762 -97 OFFCURVE",
"822 -36 OFFCURVE",
"868 37 CURVE SMOOTH",
"914 110 OFFCURVE",
"998 154 OFFCURVE",
"1028 154 CURVE",
"1028 441 LINE",
"997 441 LINE SMOOTH",
"952 441 OFFCURVE",
"1006 549 OFFCURVE",
"967 643 CURVE SMOOTH",
"937 715 OFFCURVE",
"844 779 OFFCURVE",
"660 779 CURVE SMOOTH",
"497 779 OFFCURVE",
"387 657 OFFCURVE",
"387 547 CURVE SMOOTH",
"387 437 OFFCURVE",
"402 436 OFFCURVE",
"402 372 CURVE SMOOTH",
"402 308 OFFCURVE",
"392 188 OFFCURVE",
"392 144 CURVE SMOOTH",
"392 111 OFFCURVE",
"414 100 OFFCURVE",
"432 100 CURVE SMOOTH",
"450 100 OFFCURVE",
"466 111 OFFCURVE",
"476 107 CURVE SMOOTH",
"486 103 OFFCURVE",
"472 43 OFFCURVE",
"488 27 CURVE SMOOTH",
"504 11 OFFCURVE",
"510 16 OFFCURVE",
"516 18 CURVE",
"509 0 OFFCURVE",
"511 -10 OFFCURVE",
"522 -16 CURVE SMOOTH",
"533 -22 OFFCURVE",
"557 -28 OFFCURVE",
"565 -38 CURVE SMOOTH"
);
},
{
closed = 1;
nodes = (
"522 418 OFFCURVE",
"557 449 OFFCURVE",
"591 453 CURVE",
"543 423 OFFCURVE",
"562 360 OFFCURVE",
"602 351 CURVE",
"560 346 OFFCURVE",
"531 364 OFFCURVE",
"502 387 CURVE"
);
},
{
closed = 1;
nodes = (
"664 453 OFFCURVE",
"700 437 OFFCURVE",
"725 409 CURVE",
"714 407 OFFCURVE",
"705 400 OFFCURVE",
"696 392 CURVE SMOOTH",
"687 384 OFFCURVE",
"658 360 OFFCURVE",
"627 353 CURVE",
"666 371 OFFCURVE",
"675 423 OFFCURVE",
"638 454 CURVE"
);
},
{
closed = 1;
nodes = (
"374 577 OFFCURVE",
"343 493 OFFCURVE",
"343 457 CURVE SMOOTH",
"343 445 OFFCURVE",
"357 440 OFFCURVE",
"364 440 CURVE SMOOTH",
"383 440 OFFCURVE",
"415 486 OFFCURVE",
"434 524 CURVE",
"423 466 OFFCURVE",
"440 446 OFFCURVE",
"464 479 CURVE",
"469 450 OFFCURVE",
"504 456 OFFCURVE",
"535 522 CURVE",
"545 682 LINE",
"417 648 LINE"
);
}
);
width = 1000;
},
{
associatedMasterId = "36C34FB4-9C42-4BD9-991C-7B94FED7D558";
backgroundImage = {
imagePath = "../AXIS MUNDI/furiae scans/humanhead.jpg";
locked = "1";
transform = "{2.52273, 0, 0, 2.52273, 0, -200}";
};
layerId = "014E5E88-E5BA-4C57-A6E6-9AED6D49254E";
name = "Mar 2 20, 22:49";
paths = (
{
closed = 1;
nodes = (
"586 -65 OFFCURVE",
"599 -97 OFFCURVE",
"693 -97 CURVE SMOOTH",
"762 -97 OFFCURVE",
"822 -36 OFFCURVE",
"868 37 CURVE SMOOTH",
"914 110 OFFCURVE",
"998 154 OFFCURVE",
"1028 154 CURVE",
"1028 441 LINE",
"997 441 LINE SMOOTH",
"952 441 OFFCURVE",
"1006 549 OFFCURVE",
"967 643 CURVE SMOOTH",
"937 715 OFFCURVE",
"844 779 OFFCURVE",
"660 779 CURVE SMOOTH",
"554 779 OFFCURVE",
"486 742 OFFCURVE",
"407 648 CURVE SMOOTH",
"377 613 OFFCURVE",
"387 573 OFFCURVE",
"387 547 CURVE SMOOTH",
"387 437 OFFCURVE",
"402 436 OFFCURVE",
"402 372 CURVE SMOOTH",
"402 308 OFFCURVE",
"392 188 OFFCURVE",
"392 144 CURVE SMOOTH",
"392 111 OFFCURVE",
"414 100 OFFCURVE",
"432 100 CURVE SMOOTH",
"450 100 OFFCURVE",
"466 111 OFFCURVE",
"476 107 CURVE SMOOTH",
"486 103 OFFCURVE",
"472 43 OFFCURVE",
"488 27 CURVE SMOOTH",
"504 11 OFFCURVE",
"510 16 OFFCURVE",
"516 18 CURVE",
"509 0 OFFCURVE",
"511 -10 OFFCURVE",
"522 -16 CURVE SMOOTH",
"533 -22 OFFCURVE",
"557 -28 OFFCURVE",
"565 -38 CURVE SMOOTH"
);
},
{
closed = 1;
nodes = (
"522 418 OFFCURVE",
"557 449 OFFCURVE",
"591 453 CURVE",
"543 423 OFFCURVE",
"562 360 OFFCURVE",
"602 351 CURVE",
"560 346 OFFCURVE",
"531 364 OFFCURVE",
"502 387 CURVE"
);
},
{
closed = 1;
nodes = (
"664 453 OFFCURVE",
"700 437 OFFCURVE",
"725 409 CURVE",
"714 407 OFFCURVE",
"705 400 OFFCURVE",
"696 392 CURVE SMOOTH",
"687 384 OFFCURVE",
"658 360 OFFCURVE",
"627 353 CURVE",
"666 371 OFFCURVE",
"675 423 OFFCURVE",
"638 454 CURVE"
);
},
{
closed = 1;
nodes = (
"364 577 OFFCURVE",
"343 493 OFFCURVE",
"343 457 CURVE SMOOTH",
"343 445 OFFCURVE",
"357 440 OFFCURVE",
"364 440 CURVE SMOOTH",
"383 440 OFFCURVE",
"415 486 OFFCURVE",
"434 524 CURVE",
"423 466 OFFCURVE",
"440 446 OFFCURVE",
"464 479 CURVE",
"469 450 OFFCURVE",
"504 456 OFFCURVE",
"535 522 CURVE",
"545 682 LINE",
"407 648 LINE"
);
}
);
width = 1000;
}
);
unicode = 0065;
},
{
glyphname = f;
lastChange = "2021-10-15 14:30:18 +0000";
layers = (
{
backgroundImage = {
imagePath = "../AXIS MUNDI/furiae scans/dragonbody.jpg";
locked = "1";
transform = "{2.52337, 0, 0, 2.52337, 0, -199}";
};
layerId = "36C34FB4-9C42-4BD9-991C-7B94FED7D558";
paths = (
{
closed = 1;
nodes = (
"884 -189 OFFCURVE",
"978 -114 OFFCURVE",
"978 -112 CURVE SMOOTH",
"978 -110 OFFCURVE",
"976 -107 OFFCURVE",
"972 -107 CURVE SMOOTH",
"965 -107 OFFCURVE",
"951 -114 OFFCURVE",
"906 -114 CURVE SMOOTH",
"861 -114 OFFCURVE",
"799 -93 OFFCURVE",
"799 -64 CURVE SMOOTH",
"799 -42 OFFCURVE",
"826 -31 OFFCURVE",
"826 -26 CURVE SMOOTH",
"826 -22 OFFCURVE",
"823 -20 OFFCURVE",
"811 -20 CURVE SMOOTH",
"797 -20 OFFCURVE",
"787 -23 OFFCURVE",
"732 -23 CURVE SMOOTH",
"689 -23 OFFCURVE",
"648 0 OFFCURVE",
"648 15 CURVE SMOOTH",
"648 34 OFFCURVE",
"671 50 OFFCURVE",
"671 52 CURVE SMOOTH",
"671 54 OFFCURVE",
"672 59 OFFCURVE",
"653 59 CURVE SMOOTH",
"634 59 OFFCURVE",
"605 49 OFFCURVE",
"567 49 CURVE SMOOTH",
"493 49 OFFCURVE",
"455 81 OFFCURVE",
"455 90 CURVE SMOOTH",
"455 96 OFFCURVE",
"461 101 OFFCURVE",
"461 105 CURVE SMOOTH",
"461 109 OFFCURVE",
"459 111 OFFCURVE",
"456 111 CURVE SMOOTH",
"449 111 OFFCURVE",
"434 102 OFFCURVE",
"407 102 CURVE SMOOTH",
"340 102 OFFCURVE",
"288 140 OFFCURVE",
"288 157 CURVE SMOOTH",
"288 169 OFFCURVE",
"312 188 OFFCURVE",
"344 188 CURVE SMOOTH",
"469 188 OFFCURVE",
"572 120 OFFCURVE",
"717 120 CURVE SMOOTH",
"836 120 OFFCURVE",
"938 158 OFFCURVE",
"990 158 CURVE",
"1010 158 LINE",
"1010 442 LINE",
"990 442 LINE",
"906 442 OFFCURVE",
"844 412 OFFCURVE",
"717 412 CURVE SMOOTH",
"563 412 OFFCURVE",
"464 458 OFFCURVE",
"304 478 CURVE SMOOTH",
"279 481 OFFCURVE",
"254 483 OFFCURVE",
"227 483 CURVE SMOOTH",
"210 483 OFFCURVE",
"194 482 OFFCURVE",
"179 481 CURVE SMOOTH",
"91 473 OFFCURVE",
"40 442 OFFCURVE",
"0 442 CURVE",
"-10 442 LINE",
"-10 158 LINE",
"1 158 LINE",
"100 158 OFFCURVE",
"164 219 OFFCURVE",
"196 219 CURVE SMOOTH",
"204 219 OFFCURVE",
"218 215 OFFCURVE",
"218 202 CURVE SMOOTH",
"218 159 OFFCURVE",
"149 124 OFFCURVE",
"126 124 CURVE SMOOTH",
"100 124 OFFCURVE",
"87 139 OFFCURVE",
"84 139 CURVE",
"82 139 OFFCURVE",
"81 137 OFFCURVE",
"81 133 CURVE SMOOTH",
"81 81 OFFCURVE",
"294 -189 OFFCURVE",
"673 -189 CURVE SMOOTH"
);
},
{
closed = 1;
nodes = (
"304 478 LINE",
"278 482 OFFCURVE",
"263 487 OFFCURVE",
"263 507 CURVE SMOOTH",
"263 525 OFFCURVE",
"289 542 OFFCURVE",
"336 542 CURVE SMOOTH",
"383 542 OFFCURVE",
"510 498 OFFCURVE",
"568 498 CURVE SMOOTH",
"576 498 OFFCURVE",
"578 500 OFFCURVE",
"578 503 CURVE SMOOTH",
"578 506 OFFCURVE",
"574 510 OFFCURVE",
"571 512 CURVE SMOOTH",
"565 516 OFFCURVE",
"557 523 OFFCURVE",
"557 533 CURVE SMOOTH",
"557 551 OFFCURVE",
"588 564 OFFCURVE",
"611 564 CURVE SMOOTH",
"661 564 OFFCURVE",
"718 553 OFFCURVE",
"730 551 CURVE SMOOTH",
"736 550 OFFCURVE",
"740 551 OFFCURVE",
"740 554 CURVE SMOOTH",
"740 557 OFFCURVE",
"737 563 OFFCURVE",
"729 571 CURVE SMOOTH",
"713 588 OFFCURVE",
"703 602 OFFCURVE",
"703 613 CURVE SMOOTH",
"703 637 OFFCURVE",
"722 643 OFFCURVE",
"745 643 CURVE SMOOTH",
"769 643 OFFCURVE",
"797 637 OFFCURVE",
"816 637 CURVE SMOOTH",
"820 637 OFFCURVE",
"823 638 OFFCURVE",
"823 641 CURVE SMOOTH",
"823 643 OFFCURVE",
"821 646 OFFCURVE",
"817 649 CURVE SMOOTH",
"806 657 OFFCURVE",
"794 665 OFFCURVE",
"794 682 CURVE SMOOTH",
"794 699 OFFCURVE",
"852 719 OFFCURVE",
"939 719 CURVE SMOOTH",
"943 719 OFFCURVE",
"946 721 OFFCURVE",
"946 723 CURVE SMOOTH",
"946 725 OFFCURVE",
"946 727 OFFCURVE",
"941 729 CURVE SMOOTH",
"874 754 OFFCURVE",
"795 764 OFFCURVE",
"711 764 CURVE SMOOTH",
"491 764 OFFCURVE",
"240 686 OFFCURVE",
"103 549 CURVE SMOOTH",
"101 547 OFFCURVE",
"99 544 OFFCURVE",
"99 542 CURVE",
"99 538 OFFCURVE",
"102 537 OFFCURVE",
"106 537 CURVE SMOOTH",
"118 537 OFFCURVE",
"168 557 OFFCURVE",
"182 557 CURVE SMOOTH",
"196 557 OFFCURVE",
"212 546 OFFCURVE",
"212 528 CURVE",
"212 498 OFFCURVE",
"194 482 OFFCURVE",
"179 481 CURVE",
"179 431 LINE",
"304 331 LINE"
);
}
);
width = 1000;
}
);
unicode = 0066;
},
{
glyphname = g;
lastChange = "2021-10-15 14:30:28 +0000";
layers = (
{
layerId = "36C34FB4-9C42-4BD9-991C-7B94FED7D558";
paths = (
{
closed = 1;
nodes = (
"585 37 OFFCURVE",
"658 96 OFFCURVE",
"744 96 CURVE SMOOTH",
"802 96 OFFCURVE",
"842 158 OFFCURVE",
"1000 158 CURVE SMOOTH",
"1010 158 LINE",
"1010 442 LINE",
"1000 442 LINE SMOOTH",
"923 442 OFFCURVE",
"861 578 OFFCURVE",
"779 578 CURVE SMOOTH",
"725 578 OFFCURVE",
"700 551 OFFCURVE",
"630 551 CURVE SMOOTH",
"510 551 OFFCURVE",
"473 637 OFFCURVE",
"401 637 CURVE SMOOTH",
"363 637 OFFCURVE",
"347 613 OFFCURVE",
"334 613 CURVE SMOOTH",
"321 613 OFFCURVE",
"306 624 OFFCURVE",
"277 624 CURVE SMOOTH",
"214 624 OFFCURVE",
"94 442 OFFCURVE",
"0 442 CURVE SMOOTH",
"-10 442 LINE",
"-10 158 LINE",
"0 158 LINE SMOOTH",
"13 158 OFFCURVE",
"36 149 OFFCURVE",
"62 149 CURVE SMOOTH",
"91 149 OFFCURVE",
"103 158 OFFCURVE",
"118 158 CURVE SMOOTH",
"130 158 OFFCURVE",
"145 152 OFFCURVE",
"173 134 CURVE SMOOTH",
"210 110 OFFCURVE",
"265 75 OFFCURVE",
"308 75 CURVE SMOOTH",
"373 75 OFFCURVE",
"493 37 OFFCURVE",
"539 37 CURVE SMOOTH"
);
},
{
closed = 1;
nodes = (
"89 -210 OFFCURVE",
"102 -200 OFFCURVE",
"110 -200 CURVE SMOOTH",
"116 -200 OFFCURVE",
"119 -210 OFFCURVE",
"156 -210 CURVE SMOOTH",
"188 -210 OFFCURVE",
"221 -199 OFFCURVE",
"245 -199 CURVE SMOOTH",
"269 -199 OFFCURVE",
"311 -210 OFFCURVE",
"348 -210 CURVE SMOOTH",
"377 -210 OFFCURVE",
"397 -195 OFFCURVE",
"397 -162 CURVE SMOOTH",
"397 -131 OFFCURVE",
"380 -106 OFFCURVE",
"380 -57 CURVE SMOOTH",
"380 40 OFFCURVE",
"398 69 OFFCURVE",
"398 178 CURVE",
"189 178 LINE",
"189 127 LINE",
"189 99 OFFCURVE",
"222 -28 OFFCURVE",
"222 -44 CURVE SMOOTH",
"222 -55 OFFCURVE",
"206 -83 OFFCURVE",
"198 -91 CURVE SMOOTH",
"190 -99 OFFCURVE",
"145 -113 OFFCURVE",
"135 -118 CURVE SMOOTH",
"125 -123 OFFCURVE",
"102 -146 OFFCURVE",
"86 -146 CURVE SMOOTH",
"59 -146 OFFCURVE",
"38 -151 OFFCURVE",
"38 -173 CURVE SMOOTH",
"38 -192 OFFCURVE",
"45 -210 OFFCURVE",
"67 -210 CURVE SMOOTH"
);
},
{
closed = 1;
nodes = (
"629 -210 OFFCURVE",
"642 -200 OFFCURVE",
"650 -200 CURVE SMOOTH",
"656 -200 OFFCURVE",
"659 -210 OFFCURVE",
"696 -210 CURVE SMOOTH",
"728 -210 OFFCURVE",
"761 -199 OFFCURVE",
"785 -199 CURVE SMOOTH",
"810 -199 OFFCURVE",
"855 -209 OFFCURVE",
"892 -210 CURVE SMOOTH",
"919 -209 OFFCURVE",
"937 -193 OFFCURVE",
"937 -162 CURVE SMOOTH",
"937 -131 OFFCURVE",
"920 -106 OFFCURVE",
"920 -57 CURVE SMOOTH",
"920 40 OFFCURVE",
"938 69 OFFCURVE",
"938 178 CURVE",
"729 178 LINE",
"729 127 LINE",
"729 99 OFFCURVE",
"762 -28 OFFCURVE",
"762 -44 CURVE SMOOTH",
"762 -55 OFFCURVE",
"746 -83 OFFCURVE",
"738 -91 CURVE SMOOTH",
"730 -99 OFFCURVE",
"685 -113 OFFCURVE",
"675 -118 CURVE SMOOTH",
"665 -123 OFFCURVE",
"642 -146 OFFCURVE",
"626 -146 CURVE SMOOTH",
"599 -146 OFFCURVE",
"578 -151 OFFCURVE",
"578 -173 CURVE SMOOTH",
"578 -192 OFFCURVE",
"585 -210 OFFCURVE",
"607 -210 CURVE SMOOTH"
);
}
);
width = 1000;
}
);
unicode = 0067;
},
{
glyphname = h;
lastChange = "2021-10-08 08:14:30 +0000";
layers = (
{
layerId = "36C34FB4-9C42-4BD9-991C-7B94FED7D558";
paths = (
{
closed = 1;
nodes = (
"747 -24 OFFCURVE",
"888 154 OFFCURVE",
"888 338 CURVE SMOOTH",
"888 482 OFFCURVE",
"800 642 OFFCURVE",
"606 642 CURVE SMOOTH",
"491 642 OFFCURVE",
"381 552 OFFCURVE",
"381 440 CURVE SMOOTH",
"381 333 OFFCURVE",
"441 275 OFFCURVE",
"511 275 CURVE SMOOTH",
"572 275 OFFCURVE",
"599 326 OFFCURVE",
"599 343 CURVE SMOOTH",
"599 349 OFFCURVE",
"595 355 OFFCURVE",
"589 355 CURVE SMOOTH",
"571 355 OFFCURVE",
"572 317 OFFCURVE",
"526 317 CURVE SMOOTH",
"499 317 OFFCURVE",
"470 337 OFFCURVE",
"470 384 CURVE SMOOTH",
"470 457 OFFCURVE",
"532 517 OFFCURVE",
"590 517 CURVE SMOOTH",
"680 517 OFFCURVE",
"724 422 OFFCURVE",
"724 349 CURVE SMOOTH",
"724 243 OFFCURVE",
"658 161 OFFCURVE",
"557 161 CURVE SMOOTH",
"354 161 OFFCURVE",
"364 442 OFFCURVE",
"0 442 CURVE",
"-10 442 LINE",
"-10 158 LINE",
"0 158 LINE",
"160 158 OFFCURVE",
"257 -24 OFFCURVE",
"499 -24 CURVE SMOOTH"
);
}
);
width = 1000;
}
);
unicode = 0068;
},
{
glyphname = i;
lastChange = "2021-10-15 14:30:18 +0000";
layers = (
{
backgroundImage = {
imagePath = "../AXIS MUNDI/furiae scans/scolopendrahead.jpg";
locked = "1";
transform = "{2.52664, 0, 0, 2.52664, 1, -199}";
};
layerId = "36C34FB4-9C42-4BD9-991C-7B94FED7D558";
paths = (
{
closed = 1;
nodes = (
"749 -157 OFFCURVE",
"866 150 OFFCURVE",
"866 252 CURVE SMOOTH",
"866 309 OFFCURVE",
"805 329 OFFCURVE",
"762 329 CURVE SMOOTH",
"744 329 OFFCURVE",
"729 325 OFFCURVE",
"724 319 CURVE SMOOTH",
"714 304 OFFCURVE",
"702 281 OFFCURVE",
"702 253 CURVE SMOOTH",
"702 241 OFFCURVE",
"704 227 OFFCURVE",
"710 213 CURVE",
"700 209 OFFCURVE",
"684 150 OFFCURVE",
"687 113 CURVE",
"668 95 OFFCURVE",
"649 66 OFFCURVE",
"643 36 CURVE",
"597 17 OFFCURVE",
"577 -14 OFFCURVE",
"566 -26 CURVE SMOOTH",
"564 -29 OFFCURVE",
"560 -31 OFFCURVE",
"555 -31 CURVE SMOOTH",
"554 -31 OFFCURVE",
"553 -31 OFFCURVE",
"552 -31 CURVE SMOOTH",
"546 -30 OFFCURVE",
"539 -29 OFFCURVE",
"530 -29 CURVE SMOOTH",
"521 -29 OFFCURVE",
"509 -30 OFFCURVE",
"495 -35 CURVE SMOOTH",
"450 -50 OFFCURVE",
"439 -78 OFFCURVE",
"407 -78 CURVE SMOOTH",
"396 -78 OFFCURVE",
"364 -59 OFFCURVE",
"343 -59 CURVE SMOOTH",
"317 -59 OFFCURVE",
"290 -67 OFFCURVE",
"270 -77 CURVE",
"238 -51 OFFCURVE",
"217 -55 OFFCURVE",
"193 -55 CURVE SMOOTH",
"183 -55 OFFCURVE",
"172 -54 OFFCURVE",
"159 -50 CURVE SMOOTH",
"82 -26 OFFCURVE",
"62 10 OFFCURVE",
"41 10 CURVE",
"38 10 OFFCURVE",
"36 7 OFFCURVE",
"36 3 CURVE SMOOTH",
"36 -8 OFFCURVE",
"96 -157 OFFCURVE",
"425 -157 CURVE SMOOTH"
);
},
{
closed = 1;
nodes = (
"109 209 OFFCURVE",
"110 212 OFFCURVE",
"110 216 CURVE SMOOTH",
"110 220 OFFCURVE",
"106 222 OFFCURVE",
"106 232 CURVE SMOOTH",
"106 242 OFFCURVE",
"118 254 OFFCURVE",
"118 276 CURVE SMOOTH",
"118 293 OFFCURVE",
"117 306 OFFCURVE",
"121 312 CURVE SMOOTH",
"125 318 OFFCURVE",
"141 336 OFFCURVE",
"146 356 CURVE SMOOTH",
"151 376 OFFCURVE",
"150 396 OFFCURVE",
"160 401 CURVE SMOOTH",
"170 406 OFFCURVE",
"193 425 OFFCURVE",
"208 443 CURVE SMOOTH",
"221 458 OFFCURVE",
"241 485 OFFCURVE",
"246 487 CURVE SMOOTH",
"249 488 OFFCURVE",
"259 487 OFFCURVE",
"271 487 CURVE SMOOTH",
"349 487 OFFCURVE",
"396 524 OFFCURVE",
"412 524 CURVE SMOOTH",
"430 524 OFFCURVE",
"450 499 OFFCURVE",
"505 499 CURVE SMOOTH",
"520 499 OFFCURVE",
"535 500 OFFCURVE",
"549 500 CURVE SMOOTH",
"567 500 OFFCURVE",
"584 498 OFFCURVE",
"596 489 CURVE SMOOTH",
"622 470 OFFCURVE",
"632 450 OFFCURVE",
"650 430 CURVE SMOOTH",
"660 419 OFFCURVE",
"671 411 OFFCURVE",
"678 409 CURVE",
"678 385 OFFCURVE",
"711 365 OFFCURVE",
"737 366 CURVE",
"844 366 LINE",
"844 443 LINE",
"771 443 OFFCURVE",
"675 606 OFFCURVE",
"439 606 CURVE SMOOTH",
"243 606 OFFCURVE",
"85 463 OFFCURVE",
"85 308 CURVE SMOOTH",
"85 249 OFFCURVE",
"92 209 OFFCURVE",
"106 209 CURVE SMOOTH"
);
},
{
closed = 1;
nodes = (
"759 -110 OFFCURVE",
"818 -93 OFFCURVE",
"891 -6 CURVE SMOOTH",
"964 81 OFFCURVE",
"988 147 OFFCURVE",
"988 171 CURVE SMOOTH",
"988 189 OFFCURVE",
"964 194 OFFCURVE",
"957 194 CURVE SMOOTH",
"950 194 OFFCURVE",
"930 188 OFFCURVE",
"918 176 CURVE SMOOTH",
"889 145 OFFCURVE",
"875 104 OFFCURVE",
"875 75 CURVE SMOOTH",
"875 46 OFFCURVE",
"860 31 OFFCURVE",
"853 24 CURVE SMOOTH",
"842 13 OFFCURVE",
"835 -6 OFFCURVE",
"832 -14 CURVE SMOOTH",
"829 -22 OFFCURVE",
"822 -29 OFFCURVE",
"810 -40 CURVE SMOOTH",
"798 -51 OFFCURVE",
"782 -73 OFFCURVE",
"778 -79 CURVE SMOOTH",
"774 -85 OFFCURVE",
"748 -95 OFFCURVE",
"748 -103 CURVE SMOOTH",
"748 -107 OFFCURVE",
"750 -110 OFFCURVE",
"755 -110 CURVE SMOOTH"
);
},
{
closed = 1;
nodes = (
"970 148 OFFCURVE",
"988 158 OFFCURVE",
"1000 158 CURVE SMOOTH",
"1010 158 LINE",
"1010 442 LINE",
"989 442 LINE SMOOTH",
"971 442 OFFCURVE",
"939 479 OFFCURVE",
"896 479 CURVE SMOOTH",
"792 479 OFFCURVE",
"749 382 OFFCURVE",
"741 376 CURVE SMOOTH",
"733 370 OFFCURVE",
"719 361 OFFCURVE",
"719 344 CURVE SMOOTH",
"719 325 OFFCURVE",
"739 306 OFFCURVE",
"755 277 CURVE SMOOTH",
"771 248 OFFCURVE",
"821 148 OFFCURVE",
"941 148 CURVE SMOOTH"
);
},
{
closed = 1;
nodes = (
"979 436 LINE",
"979 470 OFFCURVE",
"946 533 OFFCURVE",
"901 574 CURVE SMOOTH",
"882 592 OFFCURVE",
"850 599 OFFCURVE",
"840 608 CURVE SMOOTH",
"830 617 OFFCURVE",
"814 629 OFFCURVE",
"803 633 CURVE SMOOTH",
"792 637 OFFCURVE",
"785 637 OFFCURVE",
"777 637 CURVE SMOOTH",
"769 637 OFFCURVE",
"756 647 OFFCURVE",
"745 647 CURVE SMOOTH",
"734 647 OFFCURVE",
"726 644 OFFCURVE",
"713 644 CURVE SMOOTH",
"700 644 OFFCURVE",
"660 643 OFFCURVE",
"660 634 CURVE",
"660 626 OFFCURVE",
"679 625 OFFCURVE",
"688 625 CURVE SMOOTH",
"697 625 OFFCURVE",
"719 626 OFFCURVE",
"725 622 CURVE SMOOTH",
"731 618 OFFCURVE",
"737 612 OFFCURVE",
"746 609 CURVE SMOOTH",
"755 606 OFFCURVE",
"767 605 OFFCURVE",
"773 600 CURVE SMOOTH",
"779 595 OFFCURVE",
"780 587 OFFCURVE",
"797 579 CURVE SMOOTH",
"814 571 OFFCURVE",
"828 575 OFFCURVE",
"845 558 CURVE SMOOTH",
"882 521 OFFCURVE",
"875 478 OFFCURVE",
"891 461 CURVE SMOOTH",
"907 444 OFFCURVE",
"927 436 OFFCURVE",
"946 436 CURVE SMOOTH"
);
}
);
width = 1000;
}
);
unicode = 0069;
},
{
glyphname = j;
lastChange = "2021-10-15 14:30:28 +0000";
layers = (
{
backgroundImage = {
imagePath = "../AXIS MUNDI/furiae scans/scolopendrabody.jpg";
locked = "1";
transform = "{2.53316, 0, 0, 2.53316, 1, -204}";
};
layerId = "36C34FB4-9C42-4BD9-991C-7B94FED7D558";
paths = (
{
closed = 1;
nodes = (
"10 157 LINE SMOOTH",
"149 157 OFFCURVE",
"372 262 OFFCURVE",
"451 262 CURVE SMOOTH",
"600 262 OFFCURVE",
"920 157 OFFCURVE",
"980 157 CURVE SMOOTH",
"1010 157 LINE",
"1010 442 LINE",
"1009 442 OFFCURVE",
"991 442 OFFCURVE",
"990 442 CURVE SMOOTH",
"779 444 OFFCURVE",
"524 553 OFFCURVE",
"430 553 CURVE SMOOTH",
"335 553 OFFCURVE",
"152 442 OFFCURVE",
"0 442 CURVE",
"-10 442 LINE",
"-10 414 OFFCURVE",
"-10 320 OFFCURVE",
"-10 157 CURVE"
);
},
{
closed = 1;
nodes = (
"209 -109 OFFCURVE",
"206 -102 OFFCURVE",
"206 -102 CURVE SMOOTH",
"206 -102 OFFCURVE",
"187 -80 OFFCURVE",
"182 -66 CURVE SMOOTH",
"177 -52 OFFCURVE",
"183 -38 OFFCURVE",
"168 -17 CURVE SMOOTH",
"153 2 OFFCURVE",
"139 11 OFFCURVE",
"139 36 CURVE SMOOTH",
"139 63 OFFCURVE",
"129 77 OFFCURVE",
"123 84 CURVE SMOOTH",
"120 88 OFFCURVE",
"117 93 OFFCURVE",
"117 102 CURVE SMOOTH",
"117 106 OFFCURVE",
"117 111 OFFCURVE",
"119 117 CURVE SMOOTH",
"121 126 OFFCURVE",
"124 141 OFFCURVE",
"124 158 CURVE SMOOTH",
"124 177 OFFCURVE",
"121 197 OFFCURVE",
"111 211 CURVE",
"106 216 OFFCURVE",
"99 220 OFFCURVE",
"91 220 CURVE SMOOTH",
"75 220 OFFCURVE",
"58 204 OFFCURVE",
"58 149 CURVE SMOOTH",
"58 61 OFFCURVE",
"97 8 OFFCURVE",
"126 -33 CURVE SMOOTH",
"159 -80 OFFCURVE",
"196 -109 OFFCURVE",
"203 -109 CURVE"
);
},
{
closed = 1;
nodes = (
"378 -56 OFFCURVE",
"381 -54 OFFCURVE",
"381 -51 CURVE SMOOTH",
"381 -50 OFFCURVE",
"381 -49 OFFCURVE",
"380 -48 CURVE SMOOTH",
"378 -44 OFFCURVE",
"367 -35 OFFCURVE",
"363 -25 CURVE SMOOTH",
"360 -14 OFFCURVE",
"355 15 OFFCURVE",
"331 37 CURVE SMOOTH",
"325 43 OFFCURVE",
"322 50 OFFCURVE",
"322 58 CURVE SMOOTH",
"322 66 OFFCURVE",
"324 73 OFFCURVE",
"324 79 CURVE SMOOTH",
"324 81 OFFCURVE",
"325 85 OFFCURVE",
"325 90 CURVE SMOOTH",
"325 93 OFFCURVE",
"325 96 OFFCURVE",
"324 99 CURVE SMOOTH",
"323 104 OFFCURVE",
"322 111 OFFCURVE",
"319 115 CURVE SMOOTH",
"308 128 OFFCURVE",
"302 134 OFFCURVE",
"302 145 CURVE SMOOTH",
"302 154 OFFCURVE",
"308 180 OFFCURVE",
"308 200 CURVE SMOOTH",
"308 223 OFFCURVE",
"292 230 OFFCURVE",
"274 230 CURVE SMOOTH",
"269 230 OFFCURVE",
"265 230 OFFCURVE",
"261 229 CURVE SMOOTH",
"251 227 OFFCURVE",
"241 217 OFFCURVE",
"241 196 CURVE SMOOTH",
"241 190 OFFCURVE",
"242 184 OFFCURVE",
"243 177 CURVE SMOOTH",
"245 166 OFFCURVE",
"247 153 OFFCURVE",
"253 138 CURVE",
"279 62 OFFCURVE",
"341 -56 OFFCURVE",
"371 -56 CURVE SMOOTH"
);
},
{
closed = 1;
nodes = (
"204 143 OFFCURVE",
"236 246 OFFCURVE",
"236 352 CURVE SMOOTH",
"236 458 OFFCURVE",
"188 489 OFFCURVE",
"118 489 CURVE SMOOTH",
"23 489 OFFCURVE",
"-11 419 OFFCURVE",
"-11 314 CURVE",
"-11 235 OFFCURVE",
"3 143 OFFCURVE",
"93 143 CURVE SMOOTH"
);
},
{
closed = 1;
nodes = (
"478 -48 OFFCURVE",
"487 -22 OFFCURVE",
"484 -6 CURVE SMOOTH",
"481 10 OFFCURVE",
"478 27 OFFCURVE",
"480 38 CURVE SMOOTH",
"482 49 OFFCURVE",
"500 86 OFFCURVE",
"497 108 CURVE SMOOTH",
"495 124 OFFCURVE",
"492 137 OFFCURVE",
"492 149 CURVE SMOOTH",
"492 152 OFFCURVE",
"492 156 OFFCURVE",
"493 160 CURVE SMOOTH",
"496 174 OFFCURVE",
"503 212 OFFCURVE",
"503 235 CURVE SMOOTH",
"503 265 OFFCURVE",
"491 266 OFFCURVE",
"469 265 CURVE",
"446 262 OFFCURVE",
"432 242 OFFCURVE",
"432 213 CURVE SMOOTH",
"432 208 OFFCURVE",
"432 204 OFFCURVE",
"433 199 CURVE SMOOTH",
"439 156 OFFCURVE",
"448 125 OFFCURVE",
"448 106 CURVE SMOOTH",
"448 89 OFFCURVE",
"443 81 OFFCURVE",
"443 68 CURVE SMOOTH",
"443 65 OFFCURVE",
"443 62 OFFCURVE",
"444 59 CURVE SMOOTH",
"447 42 OFFCURVE",
"460 7 OFFCURVE",
"463 -11 CURVE SMOOTH",
"466 -28 OFFCURVE",
"462 -50 OFFCURVE",
"470 -49 CURVE SMOOTH"
);
},
{
closed = 1;
nodes = (
"288 192 OFFCURVE",
"413 254 OFFCURVE",
"413 411 CURVE SMOOTH",
"413 517 OFFCURVE",
"370 555 OFFCURVE",
"294 555 CURVE SMOOTH",
"192 555 OFFCURVE",
"149 488 OFFCURVE",
"149 352 CURVE SMOOTH",
"149 255 OFFCURVE",
"175 192 OFFCURVE",
"238 192 CURVE SMOOTH"
);
},
{
closed = 1;
nodes = (
"88 425 OFFCURVE",
"96 429 OFFCURVE",
"100 434 CURVE",
"108 446 OFFCURVE",
"110 463 OFFCURVE",
"110 480 CURVE SMOOTH",
"110 499 OFFCURVE",
"107 518 OFFCURVE",
"104 528 CURVE SMOOTH",
"102 535 OFFCURVE",
"101 541 OFFCURVE",
"101 546 CURVE SMOOTH",
"101 553 OFFCURVE",
"103 558 OFFCURVE",
"106 562 CURVE SMOOTH",
"111 569 OFFCURVE",
"122 582 OFFCURVE",
"120 608 CURVE SMOOTH",
"118 634 OFFCURVE",
"132 644 OFFCURVE",
"146 665 CURVE SMOOTH",
"160 686 OFFCURVE",
"154 700 OFFCURVE",
"158 714 CURVE SMOOTH",
"162 728 OFFCURVE",
"180 751 OFFCURVE",
"180 751 CURVE SMOOTH",
"180 751 OFFCURVE",
"183 758 OFFCURVE",
"177 758 CURVE",
"170 758 OFFCURVE",
"134 727 OFFCURVE",
"104 679 CURVE SMOOTH",
"78 638 OFFCURVE",
"43 588 OFFCURVE",
"43 508 CURVE SMOOTH",
"43 442 OFFCURVE",
"62 425 OFFCURVE",
"79 425 CURVE SMOOTH"
);
},
{
closed = 1;
nodes = (
"634 -59 OFFCURVE",
"627 -41 OFFCURVE",
"646 -12 CURVE SMOOTH",
"666 19 OFFCURVE",
"669 35 OFFCURVE",
"669 41 CURVE SMOOTH",
"669 46 OFFCURVE",
"668 44 OFFCURVE",
"668 55 CURVE SMOOTH",
"668 68 OFFCURVE",
"669 85 OFFCURVE",
"677 91 CURVE SMOOTH",
"688 99 OFFCURVE",
"696 114 OFFCURVE",
"696 130 CURVE SMOOTH",
"696 137 OFFCURVE",
"692 148 OFFCURVE",
"692 160 CURVE SMOOTH",
"692 172 OFFCURVE",
"697 186 OFFCURVE",
"714 202 CURVE SMOOTH",
"725 212 OFFCURVE",
"730 221 OFFCURVE",
"730 230 CURVE SMOOTH",
"730 246 OFFCURVE",
"715 260 OFFCURVE",
"700 270 CURVE SMOOTH",
"692 275 OFFCURVE",
"685 277 OFFCURVE",
"678 277 CURVE SMOOTH",
"663 277 OFFCURVE",
"651 269 OFFCURVE",
"646 265 CURVE",
"636 254 OFFCURVE",
"632 217 OFFCURVE",
"632 190 CURVE SMOOTH",
"632 179 OFFCURVE",
"633 170 OFFCURVE",
"634 165 CURVE SMOOTH",
"636 156 OFFCURVE",
"640 142 OFFCURVE",
"640 127 CURVE SMOOTH",
"640 113 OFFCURVE",
"637 98 OFFCURVE",
"630 84 CURVE SMOOTH",
"616 56 OFFCURVE",
"618 -34 OFFCURVE",
"618 -48 CURVE SMOOTH",
"618 -49 OFFCURVE",
"618 -50 OFFCURVE",
"618 -51 CURVE SMOOTH",
"618 -57 OFFCURVE",
"616 -59 OFFCURVE",
"620 -61 CURVE SMOOTH",
"622 -62 OFFCURVE",
"624 -64 OFFCURVE",
"626 -63 CURVE SMOOTH"
);
},
{
closed = 1;
nodes = (
"540 227 OFFCURVE",
"593 298 OFFCURVE",
"593 385 CURVE SMOOTH",
"593 509 OFFCURVE",
"551 567 OFFCURVE",
"447 567 CURVE",
"378 567 OFFCURVE",
"322 480 OFFCURVE",
"322 395 CURVE SMOOTH",
"322 310 OFFCURVE",
"347 227 OFFCURVE",
"447 227 CURVE SMOOTH"
);
},
{
closed = 1;
nodes = (
"259 484 OFFCURVE",
"273 483 OFFCURVE",
"285 497 CURVE SMOOTH",
"297 511 OFFCURVE",
"300 547 OFFCURVE",
"298 567 CURVE SMOOTH",
"297 581 OFFCURVE",
"290 597 OFFCURVE",
"290 610 CURVE SMOOTH",
"290 616 OFFCURVE",
"291 621 OFFCURVE",
"294 625 CURVE SMOOTH",
"305 640 OFFCURVE",
"313 669 OFFCURVE",
"314 681 CURVE SMOOTH",
"315 693 OFFCURVE",
"329 700 OFFCURVE",
"341 712 CURVE SMOOTH",
"353 724 OFFCURVE",
"361 747 OFFCURVE",
"371 755 CURVE SMOOTH",
"380 762 OFFCURVE",
"385 764 OFFCURVE",
"385 770 CURVE SMOOTH",
"385 773 OFFCURVE",
"383 775 OFFCURVE",
"380 775 CURVE SMOOTH",
"356 775 OFFCURVE",
"284 704 OFFCURVE",
"266 666 CURVE SMOOTH",
"248 629 OFFCURVE",
"222 592 OFFCURVE",
"222 520 CURVE",
"222 495 OFFCURVE",
"243 484 OFFCURVE",
"251 484 CURVE SMOOTH"
);
},
{
closed = 1;
nodes = (
"980 -104 OFFCURVE",
"982 -101 OFFCURVE",
"982 -98 CURVE SMOOTH",
"982 -92 OFFCURVE",
"966 -67 OFFCURVE",
"966 -57 CURVE SMOOTH",
"966 -47 OFFCURVE",
"961 -30 OFFCURVE",
"961 -23 CURVE SMOOTH",
"961 -16 OFFCURVE",
"965 -11 OFFCURVE",
"965 3 CURVE SMOOTH",
"965 17 OFFCURVE",
"948 35 OFFCURVE",
"948 52 CURVE SMOOTH",
"948 69 OFFCURVE",
"953 104 OFFCURVE",
"953 120 CURVE SMOOTH",
"953 178 OFFCURVE",
"935 192 OFFCURVE",
"916 192 CURVE SMOOTH",
"901 192 OFFCURVE",
"877 172 OFFCURVE",
"877 158 CURVE",
"877 134 OFFCURVE",
"886 84 OFFCURVE",
"901 35 CURVE SMOOTH",
"922 -34 OFFCURVE",
"960 -104 OFFCURVE",
"975 -104 CURVE SMOOTH"
);
},
{
closed = 1;
nodes = (
"765 190 OFFCURVE",
"820 286 OFFCURVE",
"820 378 CURVE SMOOTH",
"820 463 OFFCURVE",
"773 545 OFFCURVE",
"676 545 CURVE",
"574 545 OFFCURVE",
"532 460 OFFCURVE",
"532 355 CURVE SMOOTH",
"532 250 OFFCURVE",
"569 190 OFFCURVE",
"657 190 CURVE SMOOTH"
);
},
{
closed = 1;
nodes = (
"498 514 OFFCURVE",
"508 534 OFFCURVE",
"508 548 CURVE SMOOTH",
"508 562 OFFCURVE",
"507 582 OFFCURVE",
"502 601 CURVE SMOOTH",
"501 605 OFFCURVE",
"501 608 OFFCURVE",
"501 612 CURVE SMOOTH",
"501 625 OFFCURVE",
"508 636 OFFCURVE",
"511 642 CURVE SMOOTH",
"515 649 OFFCURVE",
"529 678 OFFCURVE",
"531 696 CURVE SMOOTH",
"533 714 OFFCURVE",
"545 727 OFFCURVE",
"559 737 CURVE SMOOTH",
"573 747 OFFCURVE",
"593 763 OFFCURVE",
"593 776 CURVE SMOOTH",
"593 779 OFFCURVE",
"591 781 OFFCURVE",
"588 781 CURVE SMOOTH",
"585 781 OFFCURVE",
"578 775 OFFCURVE",
"571 769 CURVE SMOOTH",
"564 763 OFFCURVE",
"556 768 OFFCURVE",
"507 725 CURVE SMOOTH",
"458 682 OFFCURVE",
"442 587 OFFCURVE",
"442 560 CURVE SMOOTH",
"442 533 OFFCURVE",
"452 514 OFFCURVE",
"475 514 CURVE"
);
},
{
closed = 1;
nodes = (
"961 153 OFFCURVE",
"1002 219 OFFCURVE",
"1002 302 CURVE SMOOTH",
"1002 414 OFFCURVE",
"933 489 OFFCURVE",
"842 489 CURVE",
"764 489 OFFCURVE",
"723 416 OFFCURVE",
"723 331 CURVE SMOOTH",
"723 243 OFFCURVE",
"768 153 OFFCURVE",
"860 153 CURVE SMOOTH"
);
},
{
closed = 1;
nodes = (
"716 482 OFFCURVE",
"732 497 OFFCURVE",
"732 527 CURVE SMOOTH",
"732 537 OFFCURVE",
"730 556 OFFCURVE",
"725 574 CURVE SMOOTH",
"723 581 OFFCURVE",
"722 588 OFFCURVE",
"722 596 CURVE SMOOTH",
"722 616 OFFCURVE",
"728 635 OFFCURVE",
"734 646 CURVE SMOOTH",
"742 661 OFFCURVE",
"743 684 OFFCURVE",
"746 702 CURVE SMOOTH",
"749 720 OFFCURVE",
"757 720 OFFCURVE",
"760 736 CURVE SMOOTH",
"763 752 OFFCURVE",
"780 759 OFFCURVE",
"780 773 CURVE SMOOTH",
"780 777 OFFCURVE",
"778 781 OFFCURVE",
"774 781 CURVE SMOOTH",
"757 781 OFFCURVE",
"710 731 OFFCURVE",
"683 652 CURVE SMOOTH",
"668 608 OFFCURVE",
"660 559 OFFCURVE",
"660 525 CURVE",
"660 496 OFFCURVE",
"672 482 OFFCURVE",
"691 482 CURVE SMOOTH"
);
},
{
closed = 1;
nodes = (
"909 424 OFFCURVE",
"923 423 OFFCURVE",
"935 437 CURVE SMOOTH",
"947 451 OFFCURVE",
"949 487 OFFCURVE",
"948 507 CURVE SMOOTH",
"947 521 OFFCURVE",
"940 537 OFFCURVE",
"940 550 CURVE SMOOTH",
"940 556 OFFCURVE",
"941 561 OFFCURVE",
"944 565 CURVE SMOOTH",
"955 580 OFFCURVE",
"963 609 OFFCURVE",
"964 621 CURVE SMOOTH",
"965 633 OFFCURVE",
"979 640 OFFCURVE",
"991 652 CURVE SMOOTH",
"1003 664 OFFCURVE",
"1011 687 OFFCURVE",
"1021 695 CURVE SMOOTH",
"1030 702 OFFCURVE",
"1035 704 OFFCURVE",
"1035 710 CURVE SMOOTH",
"1035 713 OFFCURVE",
"1033 715 OFFCURVE",
"1030 715 CURVE SMOOTH",
"1006 715 OFFCURVE",
"934 644 OFFCURVE",
"916 606 CURVE SMOOTH",
"898 569 OFFCURVE",
"872 532 OFFCURVE",
"872 460 CURVE",
"872 435 OFFCURVE",
"893 424 OFFCURVE",
"901 424 CURVE SMOOTH"
);
}
);
width = 1000;
},
{
associatedMasterId = "36C34FB4-9C42-4BD9-991C-7B94FED7D558";
backgroundImage = {
imagePath = "../AXIS MUNDI/furiae scans/scolopendrabody.jpg";
locked = "1";
transform = "{2.53316, 0, 0, 2.53316, 1, -204}";
};
layerId = "28F723FB-535A-4752-AE64-5E284F89BBD1";
name = "Mar 16 20, 19:34";
paths = (
{
closed = 1;
nodes = (
"332 558 OFFCURVE",
"413 568 OFFCURVE",
"413 411 CURVE SMOOTH",
"413 254 OFFCURVE",
"288 192 OFFCURVE",
"238 192 CURVE SMOOTH",
"175 192 OFFCURVE",
"149 255 OFFCURVE",
"149 352 CURVE SMOOTH",
"149 509 OFFCURVE",
"210 558 OFFCURVE",
"283 558 CURVE"
);
},
{
closed = 1;
nodes = (
"531 567 OFFCURVE",
"583 529 OFFCURVE",
"583 405 CURVE SMOOTH",
"583 318 OFFCURVE",
"530 247 OFFCURVE",
"431 247 CURVE SMOOTH",
"337 247 OFFCURVE",
"322 310 OFFCURVE",
"322 395 CURVE SMOOTH",
"322 480 OFFCURVE",
"358 567 OFFCURVE",
"433 567 CURVE"
);
},
{
closed = 1;
nodes = (
"750 555 OFFCURVE",
"790 447 OFFCURVE",
"790 345 CURVE SMOOTH",
"790 243 OFFCURVE",
"735 210 OFFCURVE",
"647 210 CURVE SMOOTH",
"559 210 OFFCURVE",
"522 250 OFFCURVE",
"522 355 CURVE SMOOTH",
"522 460 OFFCURVE",
"564 555 OFFCURVE",
"666 555 CURVE"
);
}
);
width = 1000;
},
{
associatedMasterId = "36C34FB4-9C42-4BD9-991C-7B94FED7D558";
backgroundImage = {
imagePath = "../AXIS MUNDI/furiae scans/scolopendrabody.jpg";
locked = "1";
transform = "{2.53316, 0, 0, 2.53316, 1, -204}";
};
layerId = "D0CC3891-9E4C-42C3-9EEB-0B45A301A3BB";
name = "Mar 16 20, 21:05";
paths = (
{
closed = 1;
nodes = (
"149 157 OFFCURVE",
"372 262 OFFCURVE",
"451 262 CURVE SMOOTH",
"600 262 OFFCURVE",
"920 157 OFFCURVE",
"980 157 CURVE SMOOTH",
"1010 157 LINE",
"1010 442 LINE",
"1009 442 OFFCURVE",
"991 442 OFFCURVE",
"990 442 CURVE SMOOTH",
"779 444 OFFCURVE",
"524 553 OFFCURVE",
"430 553 CURVE SMOOTH",
"335 553 OFFCURVE",
"152 442 OFFCURVE",
"0 442 CURVE",
"-10 442 LINE",
"-10 414 OFFCURVE",
"-10 320 OFFCURVE",
"-10 157 CURVE",
"10 157 LINE SMOOTH"
);
},
{
closed = 1;
nodes = (
"209 -109 OFFCURVE",
"206 -102 OFFCURVE",
"206 -102 CURVE SMOOTH",
"206 -102 OFFCURVE",
"187 -80 OFFCURVE",
"182 -66 CURVE SMOOTH",
"177 -52 OFFCURVE",
"183 -38 OFFCURVE",
"168 -17 CURVE SMOOTH",
"153 2 OFFCURVE",
"139 11 OFFCURVE",
"139 36 CURVE SMOOTH",
"139 63 OFFCURVE",
"129 77 OFFCURVE",
"123 84 CURVE SMOOTH",
"120 88 OFFCURVE",
"117 93 OFFCURVE",
"117 102 CURVE SMOOTH",
"117 106 OFFCURVE",
"117 111 OFFCURVE",
"119 117 CURVE SMOOTH",
"121 126 OFFCURVE",
"124 141 OFFCURVE",
"124 158 CURVE SMOOTH",
"124 177 OFFCURVE",
"121 197 OFFCURVE",
"111 211 CURVE",
"106 216 OFFCURVE",
"99 220 OFFCURVE",
"91 220 CURVE SMOOTH",
"75 220 OFFCURVE",
"58 204 OFFCURVE",
"58 149 CURVE SMOOTH",
"58 61 OFFCURVE",
"97 8 OFFCURVE",
"126 -33 CURVE SMOOTH",
"159 -80 OFFCURVE",
"196 -109 OFFCURVE",
"203 -109 CURVE"
);
},
{
closed = 1;
nodes = (
"317 -76 OFFCURVE",
"318 -73 OFFCURVE",
"317 -69 CURVE SMOOTH",
"316 -65 OFFCURVE",
"306 -55 OFFCURVE",
"305 -44 CURVE SMOOTH",
"304 -33 OFFCURVE",
"301 -5 OFFCURVE",
"284 21 CURVE SMOOTH",
"280 27 OFFCURVE",
"279 33 OFFCURVE",
"279 40 CURVE SMOOTH",
"279 48 OFFCURVE",
"282 57 OFFCURVE",
"284 63 CURVE SMOOTH",
"285 66 OFFCURVE",
"287 74 OFFCURVE",
"287 83 CURVE SMOOTH",
"287 88 OFFCURVE",
"286 95 OFFCURVE",
"284 100 CURVE SMOOTH",
"279 114 OFFCURVE",
"273 119 OFFCURVE",
"273 129 CURVE SMOOTH",
"273 138 OFFCURVE",
"286 175 OFFCURVE",
"286 194 CURVE SMOOTH",
"286 214 OFFCURVE",
"264 222 OFFCURVE",
"248 220 CURVE SMOOTH",
"236 218 OFFCURVE",
"224 206 OFFCURVE",
"224 170 CURVE SMOOTH",
"224 159 OFFCURVE",
"225 146 OFFCURVE",
"228 131 CURVE",
"241 51 OFFCURVE",
"282 -76 OFFCURVE",
"309 -76 CURVE SMOOTH"
);
},
{
closed = 1;
nodes = (
"204 143 OFFCURVE",
"236 246 OFFCURVE",
"236 352 CURVE SMOOTH",
"236 458 OFFCURVE",
"188 489 OFFCURVE",
"118 489 CURVE SMOOTH",
"23 489 OFFCURVE",
"-11 419 OFFCURVE",
"-11 314 CURVE",
"-11 235 OFFCURVE",
"3 143 OFFCURVE",
"93 143 CURVE SMOOTH"
);
},
{
closed = 1;
nodes = (
"478 -48 OFFCURVE",
"487 -22 OFFCURVE",
"484 -6 CURVE SMOOTH",
"481 10 OFFCURVE",
"478 27 OFFCURVE",
"480 38 CURVE SMOOTH",
"482 49 OFFCURVE",
"500 86 OFFCURVE",
"497 108 CURVE SMOOTH",
"495 124 OFFCURVE",
"492 137 OFFCURVE",
"492 149 CURVE SMOOTH",
"492 152 OFFCURVE",
"492 156 OFFCURVE",
"493 160 CURVE SMOOTH",
"496 174 OFFCURVE",
"503 212 OFFCURVE",
"503 235 CURVE SMOOTH",
"503 265 OFFCURVE",
"491 266 OFFCURVE",
"469 265 CURVE",
"446 262 OFFCURVE",
"432 242 OFFCURVE",
"432 213 CURVE SMOOTH",
"432 208 OFFCURVE",
"432 204 OFFCURVE",
"433 199 CURVE SMOOTH",
"439 156 OFFCURVE",
"448 125 OFFCURVE",
"448 106 CURVE SMOOTH",
"448 85 OFFCURVE",
"441 78 OFFCURVE",
"444 59 CURVE SMOOTH",
"447 42 OFFCURVE",
"460 7 OFFCURVE",
"463 -11 CURVE SMOOTH",
"466 -28 OFFCURVE",
"462 -50 OFFCURVE",
"470 -49 CURVE SMOOTH"
);
},
{
closed = 1;
nodes = (
"288 192 OFFCURVE",
"413 254 OFFCURVE",
"413 411 CURVE SMOOTH",
"413 517 OFFCURVE",
"370 555 OFFCURVE",
"294 555 CURVE SMOOTH",
"192 555 OFFCURVE",
"149 488 OFFCURVE",
"149 352 CURVE SMOOTH",
"149 255 OFFCURVE",
"175 192 OFFCURVE",
"238 192 CURVE SMOOTH"
);
},
{
closed = 1;
nodes = (
"88 425 OFFCURVE",
"96 429 OFFCURVE",
"100 434 CURVE",
"108 446 OFFCURVE",
"110 463 OFFCURVE",
"110 480 CURVE SMOOTH",
"110 499 OFFCURVE",
"107 518 OFFCURVE",
"104 528 CURVE SMOOTH",
"102 535 OFFCURVE",
"101 541 OFFCURVE",
"101 546 CURVE SMOOTH",
"101 553 OFFCURVE",
"103 558 OFFCURVE",
"106 562 CURVE SMOOTH",
"111 569 OFFCURVE",
"122 582 OFFCURVE",
"120 608 CURVE SMOOTH",
"118 634 OFFCURVE",
"132 644 OFFCURVE",
"146 665 CURVE SMOOTH",
"160 686 OFFCURVE",
"154 700 OFFCURVE",
"158 714 CURVE SMOOTH",
"162 728 OFFCURVE",
"180 751 OFFCURVE",
"180 751 CURVE SMOOTH",
"180 751 OFFCURVE",
"183 758 OFFCURVE",
"177 758 CURVE",
"170 758 OFFCURVE",
"134 727 OFFCURVE",
"104 679 CURVE SMOOTH",
"78 638 OFFCURVE",
"43 588 OFFCURVE",
"43 508 CURVE SMOOTH",
"43 442 OFFCURVE",
"62 425 OFFCURVE",
"79 425 CURVE SMOOTH"
);
},
{
closed = 1;
nodes = (
"614 -59 OFFCURVE",
"607 -41 OFFCURVE",
"626 -12 CURVE SMOOTH",
"646 19 OFFCURVE",
"649 35 OFFCURVE",
"649 41 CURVE SMOOTH",
"649 36 OFFCURVE",
"648 44 OFFCURVE",
"648 55 CURVE SMOOTH",
"648 68 OFFCURVE",
"649 85 OFFCURVE",
"657 91 CURVE SMOOTH",
"667 100 OFFCURVE",
"676 114 OFFCURVE",
"676 130 CURVE SMOOTH",
"676 137 OFFCURVE",
"672 148 OFFCURVE",
"672 160 CURVE SMOOTH",
"672 172 OFFCURVE",
"676 187 OFFCURVE",
"694 202 CURVE SMOOTH",
"705 212 OFFCURVE",
"710 221 OFFCURVE",
"710 230 CURVE SMOOTH",
"710 246 OFFCURVE",
"695 260 OFFCURVE",
"680 270 CURVE SMOOTH",
"672 275 OFFCURVE",
"665 277 OFFCURVE",
"658 277 CURVE SMOOTH",
"643 277 OFFCURVE",
"631 269 OFFCURVE",
"626 265 CURVE",
"616 254 OFFCURVE",
"612 217 OFFCURVE",
"612 190 CURVE SMOOTH",
"612 179 OFFCURVE",
"613 170 OFFCURVE",
"614 165 CURVE SMOOTH",
"617 156 OFFCURVE",
"620 142 OFFCURVE",
"620 127 CURVE SMOOTH",
"620 113 OFFCURVE",
"617 98 OFFCURVE",
"610 84 CURVE SMOOTH",
"596 56 OFFCURVE",
"596 -34 OFFCURVE",
"598 -48 CURVE SMOOTH",
"598 -49 OFFCURVE",
"598 -50 OFFCURVE",
"598 -51 CURVE SMOOTH",
"598 -57 OFFCURVE",
"596 -59 OFFCURVE",
"600 -61 CURVE SMOOTH",
"602 -62 OFFCURVE",
"604 -64 OFFCURVE",
"606 -63 CURVE SMOOTH"
);
},
{
closed = 1;
nodes = (
"540 227 OFFCURVE",
"593 298 OFFCURVE",
"593 385 CURVE SMOOTH",
"593 509 OFFCURVE",
"551 567 OFFCURVE",
"447 567 CURVE",
"378 567 OFFCURVE",
"322 480 OFFCURVE",
"322 395 CURVE SMOOTH",
"322 310 OFFCURVE",
"347 227 OFFCURVE",
"447 227 CURVE SMOOTH"
);
},
{
closed = 1;
nodes = (
"930 -104 OFFCURVE",
"932 -101 OFFCURVE",
"932 -98 CURVE SMOOTH",
"932 -92 OFFCURVE",
"916 -67 OFFCURVE",
"916 -57 CURVE SMOOTH",
"916 -47 OFFCURVE",
"911 -30 OFFCURVE",
"911 -23 CURVE SMOOTH",
"911 -16 OFFCURVE",
"915 -11 OFFCURVE",
"915 3 CURVE SMOOTH",
"915 17 OFFCURVE",
"898 35 OFFCURVE",
"898 52 CURVE SMOOTH",
"898 69 OFFCURVE",
"903 104 OFFCURVE",
"903 120 CURVE SMOOTH",
"903 178 OFFCURVE",
"885 192 OFFCURVE",
"866 192 CURVE SMOOTH",
"851 192 OFFCURVE",
"827 172 OFFCURVE",
"827 158 CURVE",
"827 134 OFFCURVE",
"836 84 OFFCURVE",
"851 35 CURVE SMOOTH",
"872 -34 OFFCURVE",
"910 -104 OFFCURVE",
"925 -104 CURVE SMOOTH"
);
},
{
closed = 1;
nodes = (
"259 484 OFFCURVE",
"273 483 OFFCURVE",
"285 497 CURVE SMOOTH",
"297 511 OFFCURVE",
"300 547 OFFCURVE",
"298 567 CURVE SMOOTH",
"297 581 OFFCURVE",
"290 597 OFFCURVE",
"290 610 CURVE SMOOTH",
"290 616 OFFCURVE",
"291 621 OFFCURVE",
"294 625 CURVE SMOOTH",
"305 640 OFFCURVE",
"313 669 OFFCURVE",
"314 681 CURVE SMOOTH",
"315 693 OFFCURVE",
"329 700 OFFCURVE",
"341 712 CURVE SMOOTH",
"353 724 OFFCURVE",
"361 747 OFFCURVE",
"371 755 CURVE SMOOTH",
"380 762 OFFCURVE",
"385 764 OFFCURVE",
"385 770 CURVE SMOOTH",
"385 773 OFFCURVE",
"383 775 OFFCURVE",
"380 775 CURVE SMOOTH",
"356 775 OFFCURVE",
"284 704 OFFCURVE",
"266 666 CURVE SMOOTH",
"248 629 OFFCURVE",
"222 592 OFFCURVE",
"222 520 CURVE",
"222 495 OFFCURVE",
"243 484 OFFCURVE",
"251 484 CURVE SMOOTH"
);
},
{
closed = 1;
nodes = (
"735 210 OFFCURVE",
"790 243 OFFCURVE",
"790 345 CURVE SMOOTH",
"790 447 OFFCURVE",
"750 545 OFFCURVE",
"666 545 CURVE",
"564 545 OFFCURVE",
"522 460 OFFCURVE",
"522 355 CURVE SMOOTH",
"522 250 OFFCURVE",
"559 210 OFFCURVE",
"647 210 CURVE SMOOTH"
);
},
{
closed = 1;
nodes = (
"941 153 OFFCURVE",
"982 219 OFFCURVE",
"982 302 CURVE SMOOTH",
"982 414 OFFCURVE",
"913 489 OFFCURVE",
"822 489 CURVE",
"744 489 OFFCURVE",
"703 416 OFFCURVE",
"703 331 CURVE SMOOTH",
"703 243 OFFCURVE",
"748 153 OFFCURVE",
"840 153 CURVE SMOOTH"
);
},
{
closed = 1;
nodes = (
"498 514 OFFCURVE",
"508 534 OFFCURVE",
"508 548 CURVE SMOOTH",
"508 562 OFFCURVE",
"507 582 OFFCURVE",
"502 601 CURVE SMOOTH",
"501 605 OFFCURVE",
"501 608 OFFCURVE",
"501 612 CURVE SMOOTH",
"501 625 OFFCURVE",
"508 636 OFFCURVE",
"511 642 CURVE SMOOTH",
"515 649 OFFCURVE",
"529 678 OFFCURVE",
"531 696 CURVE SMOOTH",
"533 714 OFFCURVE",
"545 727 OFFCURVE",
"559 737 CURVE SMOOTH",
"573 747 OFFCURVE",
"593 763 OFFCURVE",
"593 776 CURVE SMOOTH",
"593 779 OFFCURVE",
"591 781 OFFCURVE",
"588 781 CURVE SMOOTH",
"585 781 OFFCURVE",
"578 775 OFFCURVE",
"571 769 CURVE SMOOTH",
"564 763 OFFCURVE",
"556 768 OFFCURVE",
"507 725 CURVE SMOOTH",
"458 682 OFFCURVE",
"442 587 OFFCURVE",
"442 560 CURVE SMOOTH",
"442 533 OFFCURVE",
"452 514 OFFCURVE",
"475 514 CURVE"
);
},
{
closed = 1;
nodes = (
"696 482 OFFCURVE",
"712 497 OFFCURVE",
"712 527 CURVE SMOOTH",
"712 537 OFFCURVE",
"710 556 OFFCURVE",
"705 574 CURVE SMOOTH",
"703 581 OFFCURVE",
"702 588 OFFCURVE",
"702 596 CURVE SMOOTH",
"702 616 OFFCURVE",
"708 635 OFFCURVE",
"714 646 CURVE SMOOTH",
"722 661 OFFCURVE",
"723 684 OFFCURVE",
"726 702 CURVE SMOOTH",
"729 720 OFFCURVE",
"737 720 OFFCURVE",
"740 736 CURVE SMOOTH",
"743 752 OFFCURVE",
"760 759 OFFCURVE",
"760 773 CURVE SMOOTH",
"760 777 OFFCURVE",
"758 781 OFFCURVE",
"754 781 CURVE SMOOTH",
"737 781 OFFCURVE",
"690 731 OFFCURVE",
"663 652 CURVE SMOOTH",
"648 608 OFFCURVE",
"640 559 OFFCURVE",
"640 525 CURVE",
"640 496 OFFCURVE",
"652 482 OFFCURVE",
"671 482 CURVE SMOOTH"
);
},
{
closed = 1;
nodes = (
"859 424 OFFCURVE",
"873 423 OFFCURVE",
"885 437 CURVE SMOOTH",
"897 451 OFFCURVE",
"900 487 OFFCURVE",
"898 507 CURVE SMOOTH",
"897 521 OFFCURVE",
"890 537 OFFCURVE",
"890 550 CURVE SMOOTH",
"890 556 OFFCURVE",
"891 561 OFFCURVE",
"894 565 CURVE SMOOTH",
"905 580 OFFCURVE",
"913 609 OFFCURVE",
"914 621 CURVE SMOOTH",
"915 633 OFFCURVE",
"929 640 OFFCURVE",
"941 652 CURVE SMOOTH",
"953 664 OFFCURVE",
"961 687 OFFCURVE",
"971 695 CURVE SMOOTH",
"980 702 OFFCURVE",
"985 704 OFFCURVE",
"985 710 CURVE SMOOTH",
"985 713 OFFCURVE",
"983 715 OFFCURVE",
"980 715 CURVE SMOOTH",
"956 715 OFFCURVE",
"884 644 OFFCURVE",
"866 606 CURVE SMOOTH",
"848 569 OFFCURVE",
"822 532 OFFCURVE",
"822 460 CURVE",
"822 435 OFFCURVE",
"843 424 OFFCURVE",
"851 424 CURVE SMOOTH"
);
}
);
width = 1000;
}
);
unicode = 006A;
},
{
glyphname = l;
lastChange = "2021-10-15 14:30:28 +0000";
layers = (
{
backgroundImage = {
imagePath = "../AXIS MUNDI/furiae scans/scolopendratail.jpg";
locked = "1";
transform = "{2.522, 0, 0, 2.522, 10, -199}";
};
layerId = "36C34FB4-9C42-4BD9-991C-7B94FED7D558";
paths = (
{
closed = 1;
nodes = (
"787 -23 OFFCURVE",
"789 -16 OFFCURVE",
"790 -7 CURVE",
"778 -14 LINE",
"787 -23 OFFCURVE",
"808 -27 OFFCURVE",
"828 -27 CURVE SMOOTH",
"843 -27 OFFCURVE",
"857 -25 OFFCURVE",
"867 -22 CURVE",
"869 -15 OFFCURVE",
"870 -9 OFFCURVE",
"870 -3 CURVE SMOOTH",
"870 1 OFFCURVE",
"869 4 OFFCURVE",
"869 8 CURVE",
"839 8 LINE",
"851 -6 OFFCURVE",
"879 -11 OFFCURVE",
"902 -11 CURVE SMOOTH",
"909 -11 OFFCURVE",
"916 -11 OFFCURVE",
"921 -10 CURVE SMOOTH",
"936 -7 OFFCURVE",
"947 -2 OFFCURVE",
"947 7 CURVE SMOOTH",
"947 23 OFFCURVE",
"930 29 OFFCURVE",
"910 29 CURVE SMOOTH",
"904 29 OFFCURVE",
"898 28 OFFCURVE",
"891 27 CURVE SMOOTH",
"873 24 OFFCURVE",
"854 17 OFFCURVE",
"839 10 CURVE",
"868 11 LINE",
"867 16 OFFCURVE",
"866 22 OFFCURVE",
"863 27 CURVE",
"846 35 OFFCURVE",
"825 37 OFFCURVE",
"811 37 CURVE SMOOTH",
"804 37 OFFCURVE",
"799 37 OFFCURVE",
"796 36 CURVE",
"797 43 OFFCURVE",
"792 48 OFFCURVE",
"788 51 CURVE SMOOTH",
"778 58 OFFCURVE",
"743 70 OFFCURVE",
"712 70 CURVE SMOOTH",
"706 70 OFFCURVE",
"699 69 OFFCURVE",
"693 68 CURVE",
"704 57 LINE",
"713 68 OFFCURVE",
"716 77 OFFCURVE",
"718 86 CURVE",
"697 102 OFFCURVE",
"638 131 OFFCURVE",
"616 129 CURVE",
"642 140 OFFCURVE",
"657 157 OFFCURVE",
"661 165 CURVE SMOOTH",
"663 168 OFFCURVE",
"663 175 OFFCURVE",
"663 184 CURVE SMOOTH",
"663 197 OFFCURVE",
"662 214 OFFCURVE",
"658 230 CURVE",
"678 220 OFFCURVE",
"712 212 OFFCURVE",
"744 212 CURVE SMOOTH",
"754 212 OFFCURVE",
"765 213 OFFCURVE",
"775 215 CURVE",
"780 220 OFFCURVE",
"782 224 OFFCURVE",
"784 229 CURVE",
"812 199 OFFCURVE",
"829 198 OFFCURVE",
"843 192 CURVE",
"859 206 OFFCURVE",
"865 214 OFFCURVE",
"874 243 CURVE",
"849 221 LINE",
"859 206 OFFCURVE",
"915 179 OFFCURVE",
"924 177 CURVE",
"930 185 LINE",
"961 148 OFFCURVE",
"976 140 OFFCURVE",
"984 140 CURVE SMOOTH",
"993 140 OFFCURVE",
"996 144 OFFCURVE",
"996 153 CURVE SMOOTH",
"996 154 OFFCURVE",
"996 155 OFFCURVE",
"996 156 CURVE SMOOTH",
"995 166 OFFCURVE",
"975 199 OFFCURVE",
"946 205 CURVE",
"949 213 OFFCURVE",
"948 221 OFFCURVE",
"933 236 CURVE SMOOTH",
"912 257 OFFCURVE",
"862 270 OFFCURVE",
"862 266 CURVE",
"876 255 LINE",
"877 263 OFFCURVE",
"878 271 OFFCURVE",
"878 278 CURVE SMOOTH",
"878 280 OFFCURVE",
"878 281 OFFCURVE",
"878 283 CURVE",
"866 288 OFFCURVE",
"839 299 OFFCURVE",
"790 300 CURVE",
"789 306 OFFCURVE",
"787 312 OFFCURVE",
"782 318 CURVE",
"746 321 OFFCURVE",
"672 297 OFFCURVE",
"639 271 CURVE",
"623 290 OFFCURVE",
"607 295 OFFCURVE",
"592 295 CURVE SMOOTH",
"586 295 OFFCURVE",
"579 294 OFFCURVE",
"573 293 CURVE SMOOTH",
"554 289 OFFCURVE",
"488 264 OFFCURVE",
"488 183 CURVE SMOOTH",
"488 173 OFFCURVE",
"489 163 OFFCURVE",
"491 152 CURVE SMOOTH",
"497 118 OFFCURVE",
"537 101 OFFCURVE",
"556 104 CURVE SMOOTH",
"573 107 OFFCURVE",
"587 112 OFFCURVE",
"595 116 CURVE",
"556 118 LINE",
"579 54 OFFCURVE",
"620 10 OFFCURVE",
"681 -3 CURVE",
"689 9 OFFCURVE",
"694 27 OFFCURVE",
"692 43 CURVE",
"672 43 LINE",
"683 4 OFFCURVE",
"740 -31 OFFCURVE",
"782 -29 CURVE"
);
},
{
closed = 1;
nodes = (
"232 -88 OFFCURVE",
"235 -84 OFFCURVE",
"229 -80 CURVE SMOOTH",
"223 -76 OFFCURVE",
"200 -48 OFFCURVE",
"154 -19 CURVE",
"153 -4 OFFCURVE",
"152 12 OFFCURVE",
"142 28 CURVE SMOOTH",
"132 45 OFFCURVE",
"114 61 OFFCURVE",
"110 64 CURVE SMOOTH",
"105 68 OFFCURVE",
"109 76 OFFCURVE",
"112 100 CURVE SMOOTH",
"113 111 OFFCURVE",
"114 122 OFFCURVE",
"114 134 CURVE SMOOTH",
"114 176 OFFCURVE",
"105 220 OFFCURVE",
"78 235 CURVE SMOOTH",
"69 240 OFFCURVE",
"54 228 OFFCURVE",
"44 213 CURVE SMOOTH",
"33 197 OFFCURVE",
"28 176 OFFCURVE",
"28 152 CURVE SMOOTH",
"28 79 OFFCURVE",
"76 -17 OFFCURVE",
"143 -58 CURVE SMOOTH",
"182 -82 OFFCURVE",
"222 -88 OFFCURVE",
"227 -88 CURVE SMOOTH"
);
},
{
closed = 1;
nodes = (
"336 -63 OFFCURVE",
"340 -60 OFFCURVE",
"340 -56 CURVE SMOOTH",
"340 -54 OFFCURVE",
"339 -51 OFFCURVE",
"337 -49 CURVE SMOOTH",
"332 -43 OFFCURVE",
"318 -23 OFFCURVE",
"314 -11 CURVE SMOOTH",
"310 2 OFFCURVE",
"287 4 OFFCURVE",
"276 21 CURVE SMOOTH",
"265 39 OFFCURVE",
"263 60 OFFCURVE",
"261 72 CURVE SMOOTH",
"259 83 OFFCURVE",
"236 104 OFFCURVE",
"234 116 CURVE SMOOTH",
"230 139 OFFCURVE",
"247 164 OFFCURVE",
"247 195 CURVE SMOOTH",
"247 227 OFFCURVE",
"233 250 OFFCURVE",
"217 250 CURVE SMOOTH",
"200 250 OFFCURVE",
"162 227 OFFCURVE",
"162 170 CURVE SMOOTH",
"162 163 OFFCURVE",
"163 155 OFFCURVE",
"164 146 CURVE",
"180 49 OFFCURVE",
"247 -32 OFFCURVE",
"326 -60 CURVE"
);
},
{
closed = 1;
nodes = (
"163 152 OFFCURVE",
"227 218 OFFCURVE",
"227 300 CURVE SMOOTH",
"227 309 OFFCURVE",
"227 318 OFFCURVE",
"225 327 CURVE SMOOTH",
"209 425 OFFCURVE",
"155 471 OFFCURVE",
"97 471 CURVE SMOOTH",
"90 471 OFFCURVE",
"84 470 OFFCURVE",
"77 469 CURVE",
"37 462 OFFCURVE",
"-6 435 OFFCURVE",
"-6 341 CURVE SMOOTH",
"-6 249 OFFCURVE",
"1 152 OFFCURVE",
"87 152 CURVE SMOOTH"
);
},
{
closed = 1;
nodes = (
"19 157 LINE SMOOTH",
"40 157 OFFCURVE",
"108 166 OFFCURVE",
"149 166 CURVE SMOOTH",
"197 166 OFFCURVE",
"242 162 OFFCURVE",
"267 157 CURVE",
"314 392 LINE",
"212 434 OFFCURVE",
"62 442 OFFCURVE",
"-1 442 CURVE",
"-11 442 LINE",
"-10 157 LINE"
);
},
{
closed = 1;
nodes = (
"472 -46 OFFCURVE",
"476 -44 OFFCURVE",
"476 -40 CURVE SMOOTH",
"476 -37 OFFCURVE",
"475 -35 OFFCURVE",
"472 -32 CURVE SMOOTH",
"463 -24 OFFCURVE",
"457 -22 OFFCURVE",
"449 -8 CURVE SMOOTH",
"441 6 OFFCURVE",
"425 20 OFFCURVE",
"410 25 CURVE SMOOTH",
"400 28 OFFCURVE",
"394 39 OFFCURVE",
"391 53 CURVE SMOOTH",
"385 81 OFFCURVE",
"384 105 OFFCURVE",
"372 129 CURVE SMOOTH",
"370 133 OFFCURVE",
"370 147 OFFCURVE",
"369 151 CURVE SMOOTH",
"363 175 OFFCURVE",
"341 191 OFFCURVE",
"326 191 CURVE SMOOTH",
"317 191 OFFCURVE",
"310 186 OFFCURVE",
"310 172 CURVE SMOOTH",
"310 169 OFFCURVE",
"310 166 OFFCURVE",
"311 163 CURVE",
"324 83 OFFCURVE",
"332 -4 OFFCURVE",
"464 -43 CURVE"
);
},
{
closed = 1;
nodes = (
"269 118 OFFCURVE",
"273 118 OFFCURVE",
"277 119 CURVE SMOOTH",
"336 129 OFFCURVE",
"388 195 OFFCURVE",
"388 310 CURVE SMOOTH",
"388 395 OFFCURVE",
"339 421 OFFCURVE",
"303 421 CURVE SMOOTH",
"299 421 OFFCURVE",
"296 421 OFFCURVE",
"292 420 CURVE",
"222 408 OFFCURVE",
"139 355 OFFCURVE",
"139 277 CURVE SMOOTH",
"139 271 OFFCURVE",
"140 265 OFFCURVE",
"141 258 CURVE SMOOTH",
"155 177 OFFCURVE",
"211 118 OFFCURVE",
"265 118 CURVE SMOOTH"
);
},
{
closed = 1;
nodes = (
"632 -90 OFFCURVE",
"632 -85 OFFCURVE",
"630 -77 CURVE SMOOTH",
"627 -65 OFFCURVE",
"613 -45 OFFCURVE",
"600 -31 CURVE SMOOTH",
"588 -18 OFFCURVE",
"577 -17 OFFCURVE",
"570 5 CURVE SMOOTH",
"555 51 OFFCURVE",
"535 51 OFFCURVE",
"535 60 CURVE SMOOTH",
"535 66 OFFCURVE",
"540 90 OFFCURVE",
"540 111 CURVE SMOOTH",
"540 120 OFFCURVE",
"539 128 OFFCURVE",
"537 134 CURVE SMOOTH",
"531 156 OFFCURVE",
"511 177 OFFCURVE",
"497 177 CURVE SMOOTH",
"488 177 OFFCURVE",
"481 168 OFFCURVE",
"481 145 CURVE",
"485 90 OFFCURVE",
"487 82 OFFCURVE",
"496 52 CURVE SMOOTH",
"508 12 OFFCURVE",
"546 -41 OFFCURVE",
"588 -65 CURVE SMOOTH",
"620 -83 OFFCURVE",
"623 -94 OFFCURVE",
"628 -92 CURVE SMOOTH"
);
},
{
closed = 1;
nodes = (
"105 354 OFFCURVE",
"113 385 OFFCURVE",
"113 417 CURVE SMOOTH",
"113 438 OFFCURVE",
"109 459 OFFCURVE",
"104 477 CURVE SMOOTH",
"97 500 OFFCURVE",
"92 510 OFFCURVE",
"97 514 CURVE SMOOTH",
"101 517 OFFCURVE",
"118 535 OFFCURVE",
"125 553 CURVE SMOOTH",
"132 570 OFFCURVE",
"131 587 OFFCURVE",
"131 601 CURVE",
"174 635 OFFCURVE",
"194 667 OFFCURVE",
"199 671 CURVE SMOOTH",
"204 675 OFFCURVE",
"202 679 OFFCURVE",
"198 679 CURVE SMOOTH",
"198 679 OFFCURVE",
"197 679 OFFCURVE",
"196 679 CURVE SMOOTH",
"192 677 OFFCURVE",
"152 667 OFFCURVE",
"116 638 CURVE SMOOTH",
"61 593 OFFCURVE",
"26 507 OFFCURVE",
"26 438 CURVE SMOOTH",
"26 406 OFFCURVE",
"33 378 OFFCURVE",
"49 358 CURVE SMOOTH",
"60 344 OFFCURVE",
"76 335 OFFCURVE",
"85 341 CURVE SMOOTH"
);
},
{
closed = 1;
nodes = (
"488 105 OFFCURVE",
"547 212 OFFCURVE",
"540 253 CURVE SMOOTH",
"522 347 OFFCURVE",
"480 370 OFFCURVE",
"443 370 CURVE SMOOTH",
"377 370 OFFCURVE",
"331 295 OFFCURVE",
"331 225 CURVE SMOOTH",
"331 217 OFFCURVE",
"332 209 OFFCURVE",
"333 201 CURVE SMOOTH",
"338 172 OFFCURVE",
"351 105 OFFCURVE",
"409 105 CURVE SMOOTH"
);
},
{
closed = 1;
nodes = (
"252 350 OFFCURVE",
"287 405 OFFCURVE",
"297 453 CURVE SMOOTH",
"302 476 OFFCURVE",
"302 486 OFFCURVE",
"308 487 CURVE SMOOTH",
"314 488 OFFCURVE",
"337 496 OFFCURVE",
"351 509 CURVE SMOOTH",
"365 522 OFFCURVE",
"374 536 OFFCURVE",
"380 548 CURVE",
"434 557 OFFCURVE",
"467 575 OFFCURVE",
"474 576 CURVE SMOOTH",
"481 577 OFFCURVE",
"480 584 OFFCURVE",
"475 585 CURVE SMOOTH",
"472 586 OFFCURVE",
"452 590 OFFCURVE",
"425 590 CURVE SMOOTH",
"413 590 OFFCURVE",
"400 589 OFFCURVE",
"386 587 CURVE SMOOTH",
"289 570 OFFCURVE",
"190 467 OFFCURVE",
"190 389 CURVE SMOOTH",
"190 366 OFFCURVE",
"201 340 OFFCURVE",
"215 343 CURVE SMOOTH"
);
},
{
closed = 1;
nodes = (
"397 329 OFFCURVE",
"400 329 OFFCURVE",
"403 330 CURVE SMOOTH",
"425 334 OFFCURVE",
"468 378 OFFCURVE",
"482 411 CURVE SMOOTH",
"485 418 OFFCURVE",
"487 426 OFFCURVE",
"491 430 CURVE SMOOTH",
"496 435 OFFCURVE",
"551 423 OFFCURVE",
"582 465 CURVE SMOOTH",
"585 469 OFFCURVE",
"587 471 OFFCURVE",
"591 471 CURVE SMOOTH",
"602 471 OFFCURVE",
"613 470 OFFCURVE",
"626 472 CURVE SMOOTH",
"639 474 OFFCURVE",
"653 478 OFFCURVE",
"669 486 CURVE SMOOTH",
"673 488 OFFCURVE",
"678 490 OFFCURVE",
"677 493 CURVE SMOOTH",
"676 495 OFFCURVE",
"675 497 OFFCURVE",
"667 500 CURVE SMOOTH",
"656 504 OFFCURVE",
"631 507 OFFCURVE",
"604 507 CURVE SMOOTH",
"587 507 OFFCURVE",
"569 506 OFFCURVE",
"553 503 CURVE SMOOTH",
"474 490 OFFCURVE",
"357 405 OFFCURVE",
"365 367 CURVE SMOOTH",
"369 345 OFFCURVE",
"376 329 OFFCURVE",
"395 329 CURVE SMOOTH"
);
},
{
closed = 1;
nodes = (
"559 271 OFFCURVE",
"580 278 OFFCURVE",
"597 330 CURVE SMOOTH",
"601 342 OFFCURVE",
"609 356 OFFCURVE",
"617 357 CURVE SMOOTH",
"622 358 OFFCURVE",
"628 356 OFFCURVE",
"635 356 CURVE SMOOTH",
"636 356 OFFCURVE",
"637 356 OFFCURVE",
"638 356 CURVE SMOOTH",
"658 358 OFFCURVE",
"673 368 OFFCURVE",
"680 368 CURVE SMOOTH",
"683 368 OFFCURVE",
"685 368 OFFCURVE",
"688 367 CURVE SMOOTH",
"698 365 OFFCURVE",
"703 360 OFFCURVE",
"707 359 CURVE SMOOTH",
"714 358 OFFCURVE",
"728 354 OFFCURVE",
"736 354 CURVE SMOOTH",
"739 354 OFFCURVE",
"741 354 OFFCURVE",
"741 356 CURVE SMOOTH",
"741 358 OFFCURVE",
"740 360 OFFCURVE",
"736 363 CURVE SMOOTH",
"719 377 OFFCURVE",
"679 401 OFFCURVE",
"637 401 CURVE SMOOTH",
"631 401 OFFCURVE",
"626 401 OFFCURVE",
"620 400 CURVE SMOOTH",
"551 388 OFFCURVE",
"517 320 OFFCURVE",
"521 294 CURVE",
"524 281 OFFCURVE",
"535 271 OFFCURVE",
"546 271 CURVE SMOOTH"
);
}
);
width = 1000;
},
{
associatedMasterId = "36C34FB4-9C42-4BD9-991C-7B94FED7D558";
backgroundImage = {
imagePath = "../AXIS MUNDI/furiae scans/sharkhead.jpg";
locked = "1";
transform = "{2.50966, 0, 0, 2.50966, 0, -200}";
};
layerId = "8291A300-8F95-45A8-9732-56D6C5F1DD1A";
name = "Mar 3 20, 10:33";
paths = (
{
closed = 1;
nodes = (
"372 311 OFFCURVE",
"396 326 OFFCURVE",
"462 336 CURVE SMOOTH",
"661 365 OFFCURVE",
"780 475 OFFCURVE",
"854 475 CURVE SMOOTH",
"911 475 OFFCURVE",
"964 447 OFFCURVE",
"999 447 CURVE",
"1000 152 LINE",
"969 152 OFFCURVE",
"896 64 OFFCURVE",
"823 64 CURVE SMOOTH",
"783 64 OFFCURVE",
"777 81 OFFCURVE",
"777 89 CURVE SMOOTH",
"777 97 OFFCURVE",
"780 105 OFFCURVE",
"803 127 CURVE",
"782 127 OFFCURVE",
"760 122 OFFCURVE",
"618 122 CURVE SMOOTH",
"507 122 OFFCURVE",
"372 195 OFFCURVE",
"372 289 CURVE SMOOTH"
);
},
{
closed = 1;
nodes = (
"761 339 OFFCURVE",
"788 311 OFFCURVE",
"830 311 CURVE",
"817 323 OFFCURVE",
"810 346 OFFCURVE",
"810 370 CURVE SMOOTH",
"810 394 OFFCURVE",
"817 418 OFFCURVE",
"830 429 CURVE",
"788 429 OFFCURVE",
"761 401 OFFCURVE",
"761 370 CURVE SMOOTH"
);
},
{
closed = 1;
nodes = (
"909 401 OFFCURVE",
"882 429 OFFCURVE",
"840 429 CURVE",
"853 418 OFFCURVE",
"860 394 OFFCURVE",
"860 370 CURVE SMOOTH",
"860 346 OFFCURVE",
"853 323 OFFCURVE",
"840 311 CURVE",
"882 311 OFFCURVE",
"909 339 OFFCURVE",
"909 370 CURVE SMOOTH"
);
},
{
closed = 1;
nodes = (
"287 657 OFFCURVE",
"259 624 OFFCURVE",
"259 584 CURVE SMOOTH",
"259 542 OFFCURVE",
"302 513 OFFCURVE",
"315 504 CURVE SMOOTH",
"328 495 OFFCURVE",
"326 451 OFFCURVE",
"358 451 CURVE SMOOTH",
"390 451 OFFCURVE",
"381 491 OFFCURVE",
"394 511 CURVE SMOOTH",
"407 531 OFFCURVE",
"414 530 OFFCURVE",
"414 545 CURVE SMOOTH",
"414 560 OFFCURVE",
"405 572 OFFCURVE",
"401 586 CURVE SMOOTH",
"397 600 OFFCURVE",
"385 657 OFFCURVE",
"325 657 CURVE"
);
},
{
closed = 1;
nodes = (
"502 521 OFFCURVE",
"495 499 OFFCURVE",
"492 489 CURVE SMOOTH",
"489 479 OFFCURVE",
"467 458 OFFCURVE",
"467 448 CURVE SMOOTH",
"467 438 OFFCURVE",
"473 431 OFFCURVE",
"484 431 CURVE SMOOTH",
"495 431 OFFCURVE",
"511 444 OFFCURVE",
"522 447 CURVE SMOOTH",
"533 450 OFFCURVE",
"565 460 OFFCURVE",
"565 484 CURVE SMOOTH",
"565 504 OFFCURVE",
"550 521 OFFCURVE",
"530 521 CURVE SMOOTH"
);
},
{
closed = 1;
nodes = (
"261 186 OFFCURVE",
"259 157 OFFCURVE",
"259 144 CURVE SMOOTH",
"259 125 OFFCURVE",
"273 114 OFFCURVE",
"280 107 CURVE SMOOTH",
"287 100 OFFCURVE",
"291 90 OFFCURVE",
"305 90 CURVE SMOOTH",
"324 90 OFFCURVE",
"337 121 OFFCURVE",
"337 147 CURVE SMOOTH",
"337 173 OFFCURVE",
"316 186 OFFCURVE",
"299 186 CURVE"
);
},
{
closed = 1;
nodes = (
"160 407 OFFCURVE",
"150 388 OFFCURVE",
"150 371 CURVE SMOOTH",
"150 353.99 OFFCURVE",
"161 302 OFFCURVE",
"207 302 CURVE SMOOTH",
"229 302 OFFCURVE",
"239 318 OFFCURVE",
"239 330 CURVE SMOOTH",
"239 342 OFFCURVE",
"230 407 OFFCURVE",
"190 407 CURVE"
);
},
{
closed = 1;
nodes = (
"414 21 OFFCURVE",
"402 2 OFFCURVE",
"402 -19 CURVE SMOOTH",
"402 -40 OFFCURVE",
"419 -58 OFFCURVE",
"441 -58 CURVE SMOOTH",
"461 -58 OFFCURVE",
"480 -43 OFFCURVE",
"480 -19 CURVE SMOOTH",
"480 6 OFFCURVE",
"466 21 OFFCURVE",
"441 21 CURVE SMOOTH"
);
},
{
closed = 1;
nodes = (
"1010 442 LINE",
"-10 442 LINE",
"-10 157 LINE",
"1010 157 LINE"
);
}
);
width = 1000;
},
{
associatedMasterId = "36C34FB4-9C42-4BD9-991C-7B94FED7D558";
backgroundImage = {
imagePath = "../AXIS MUNDI/furiae scans/scolopendratail.jpg";
locked = "1";
transform = "{2.522, 0, 0, 2.522, 10, -199}";
};
layerId = "173C8E75-0816-44B9-BB86-90C09B856541";
name = "Mar 16 20, 22:12";
paths = (
{
closed = 1;
nodes = (
"59 455 OFFCURVE",
"-6 447 OFFCURVE",
"-6 294 CURVE SMOOTH",
"-6 141 OFFCURVE",
"53 140 OFFCURVE",
"86 140 CURVE SMOOTH",
"139 140 OFFCURVE",
"231 181 OFFCURVE",
"231 291 CURVE SMOOTH",
"231 401 OFFCURVE",
"176 455 OFFCURVE",
"109 455 CURVE"
);
},
{
closed = 1;
nodes = (
"535 -37 OFFCURVE",
"568 -87 OFFCURVE",
"626 -110 CURVE",
"636 -100 OFFCURVE",
"644 -83 OFFCURVE",
"645 -67 CURVE",
"625 -63 LINE",
"629 -104 OFFCURVE",
"680 -148 OFFCURVE",
"721 -153 CURVE",
"727 -148 OFFCURVE",
"731 -141 OFFCURVE",
"733 -132 CURVE",
"720 -137 LINE",
"733 -156 OFFCURVE",
"781 -164 OFFCURVE",
"807 -160 CURVE",
"811 -150 OFFCURVE",
"813 -141 OFFCURVE",
"813 -131 CURVE",
"784 -126 LINE",
"796 -146 OFFCURVE",
"838 -157 OFFCURVE",
"862 -157 CURVE SMOOTH",
"878 -157 OFFCURVE",
"890 -153 OFFCURVE",
"890 -144 CURVE SMOOTH",
"890 -123 OFFCURVE",
"866 -116 OFFCURVE",
"838 -116 CURVE SMOOTH",
"820 -116 OFFCURVE",
"800 -119 OFFCURVE",
"784 -124 CURVE",
"813 -128 LINE",
"813 -122 OFFCURVE",
"813 -116 OFFCURVE",
"811 -111 CURVE",
"789 -96 OFFCURVE",
"757 -91 OFFCURVE",
"746 -91 CURVE",
"748 -84 OFFCURVE",
"744 -78 OFFCURVE",
"741 -75 CURVE SMOOTH",
"730 -64 OFFCURVE",
"685 -41 OFFCURVE",
"650 -42 CURVE",
"659 -55 LINE",
"670 -46 OFFCURVE",
"674 -37 OFFCURVE",
"677 -29 CURVE",
"660 -9 OFFCURVE",
"606 29 OFFCURVE",
"584 31 CURVE",
"612 37 OFFCURVE",
"629 51 OFFCURVE",
"634 59 CURVE SMOOTH",
"639 67 OFFCURVE",
"644 97 OFFCURVE",
"642 123 CURVE",
"667 106 OFFCURVE",
"715 87 OFFCURVE",
"755 89 CURVE",
"761 93 OFFCURVE",
"764 97 OFFCURVE",
"766 101 CURVE",
"789 67 OFFCURVE",
"805 63 OFFCURVE",
"818 55 CURVE",
"836 66 OFFCURVE",
"844 73 OFFCURVE",
"857 100 CURVE",
"829 83 LINE",
"836 66 OFFCURVE",
"887 30 OFFCURVE",
"896 27 CURVE",
"903 34 LINE",
"929 -11 OFFCURVE",
"943 -20 OFFCURVE",
"951 -20 CURVE SMOOTH",
"959 -20 OFFCURVE",
"963 -16 OFFCURVE",
"963 -6 CURVE SMOOTH",
"963 4 OFFCURVE",
"950 40 OFFCURVE",
"922 51 CURVE",
"926 58 OFFCURVE",
"927 66 OFFCURVE",
"914 84 CURVE SMOOTH",
"897 108 OFFCURVE",
"850 129 OFFCURVE",
"849 125 CURVE",
"861 112 LINE",
"864 121 OFFCURVE",
"867 130 OFFCURVE",
"868 139 CURVE",
"857 146 OFFCURVE",
"832 161 OFFCURVE",
"784 170 CURVE",
"784 176 OFFCURVE",
"783 183 OFFCURVE",
"779 189 CURVE",
"744 198 OFFCURVE",
"667 187 OFFCURVE",
"630 167 CURVE",
"612 197 OFFCURVE",
"590 200 OFFCURVE",
"569 200 CURVE SMOOTH",
"548 200 OFFCURVE",
"465 182 OFFCURVE",
"465 74 CURVE SMOOTH",
"465 40 OFFCURVE",
"501 16 OFFCURVE",
"521 16 CURVE SMOOTH",
"538 16 OFFCURVE",
"553 19 OFFCURVE",
"561 21 CURVE",
"523 30 LINE"
);
},
{
closed = 1;
nodes = (
"317 149 CURVE SMOOTH",
"317 117 OFFCURVE",
"319 40 OFFCURVE",
"391 40 CURVE SMOOTH",
"463 40 OFFCURVE",
"530 127 OFFCURVE",
"530 166 CURVE SMOOTH",
"530 273 OFFCURVE",
"479 298 OFFCURVE",
"439 298 CURVE SMOOTH",
"374 298 OFFCURVE",
"317 221 OFFCURVE"
);
},
{
closed = 1;
nodes = (
"236 371 OFFCURVE",
"137 326 OFFCURVE",
"137 237 CURVE SMOOTH",
"137 148 OFFCURVE",
"190 77 OFFCURVE",
"248 77 CURVE SMOOTH",
"306 77 OFFCURVE",
"364 130 OFFCURVE",
"387 234 CURVE SMOOTH",
"410 338 OFFCURVE",
"351 371 OFFCURVE",
"313 371 CURVE"
);
},
{
closed = 1;
nodes = (
"476 483 OFFCURVE",
"511 495 OFFCURVE",
"518 495 CURVE SMOOTH",
"525 495 OFFCURVE",
"525 502 OFFCURVE",
"521 504 CURVE SMOOTH",
"517 506 OFFCURVE",
"479 521 OFFCURVE",
"433 521 CURVE SMOOTH",
"329 521 OFFCURVE",
"206 424 OFFCURVE",
"206 344 CURVE SMOOTH",
"206 326 OFFCURVE",
"213 308 OFFCURVE",
"224 308 CURVE SMOOTH",
"262 308 OFFCURVE",
"305 358 OFFCURVE",
"323 403 CURVE SMOOTH",
"332 425 OFFCURVE",
"334 435 OFFCURVE",
"340 435 CURVE SMOOTH",
"346 435 OFFCURVE",
"370 439 OFFCURVE",
"386 449 CURVE SMOOTH",
"402 459 OFFCURVE",
"413 472 OFFCURVE",
"421 483 CURVE"
);
},
{
closed = 1;
nodes = (
"289 34 OFFCURVE",
"282 -53 OFFCURVE",
"406 -114 CURVE",
"418 -121 OFFCURVE",
"422 -112 OFFCURVE",
"415 -104 CURVE SMOOTH",
"408 -96 OFFCURVE",
"402 -92 OFFCURVE",
"397 -77 CURVE SMOOTH",
"392 -62 OFFCURVE",
"378 -45 OFFCURVE",
"364 -38 CURVE SMOOTH",
"354 -33 OFFCURVE",
"350 -21 OFFCURVE",
"350 -7 CURVE SMOOTH",
"350 21 OFFCURVE",
"349 45 OFFCURVE",
"343 71 CURVE SMOOTH",
"342 75 OFFCURVE",
"344 89 OFFCURVE",
"344 93 CURVE SMOOTH",
"344 137 OFFCURVE",
"289 162 OFFCURVE",
"289 115 CURVE"
);
},
{
closed = 1;
nodes = (
"448 14 OFFCURVE",
"449 6 OFFCURVE",
"453 -25 CURVE SMOOTH",
"458 -67 OFFCURVE",
"487 -125 OFFCURVE",
"524 -156 CURVE SMOOTH",
"553 -180 OFFCURVE",
"554 -190 OFFCURVE",
"559 -189 CURVE SMOOTH",
"563 -188 OFFCURVE",
"564 -183 OFFCURVE",
"564 -175 CURVE SMOOTH",
"564 -163 OFFCURVE",
"552 -140 OFFCURVE",
"542 -125 CURVE SMOOTH",
"532 -110 OFFCURVE",
"521 -107 OFFCURVE",
"518 -84 CURVE SMOOTH",
"512 -36 OFFCURVE",
"491 -33 OFFCURVE",
"493 -24 CURVE SMOOTH",
"495 -15 OFFCURVE",
"510 25 OFFCURVE",
"507 49 CURVE SMOOTH",
"504 74 OFFCURVE",
"486 100 OFFCURVE",
"471 98 CURVE SMOOTH",
"463 97 OFFCURVE",
"457 89 OFFCURVE",
"454 69 CURVE"
);
},
{
closed = 1;
nodes = (
"518 195 OFFCURVE",
"529 182 OFFCURVE",
"542 182 CURVE SMOOTH",
"555 182 OFFCURVE",
"574 187 OFFCURVE",
"599 232 CURVE SMOOTH",
"605 243 OFFCURVE",
"615 255 OFFCURVE",
"623 255 CURVE SMOOTH",
"629 255 OFFCURVE",
"635 251 OFFCURVE",
"643 251 CURVE SMOOTH",
"661 251 OFFCURVE",
"675 256 OFFCURVE",
"683 256 CURVE SMOOTH",
"688 256 OFFCURVE",
"691 255 OFFCURVE",
"695 253 CURVE SMOOTH",
"703 247 OFFCURVE",
"708 244 OFFCURVE",
"712 242 CURVE SMOOTH",
"722 235 OFFCURVE",
"757 223 OFFCURVE",
"741 242 CURVE SMOOTH",
"726 261 OFFCURVE",
"682 297 OFFCURVE",
"633 297 CURVE SMOOTH",
"563 297 OFFCURVE",
"518 235 OFFCURVE",
"518 209 CURVE"
);
},
{
closed = 1;
nodes = (
"638 367 OFFCURVE",
"651 367 CURVE SMOOTH",
"664 367 OFFCURVE",
"679 370 OFFCURVE",
"696 374 CURVE SMOOTH",
"700 375 OFFCURVE",
"705 376 OFFCURVE",
"705 379 CURVE SMOOTH",
"705 381 OFFCURVE",
"703 384 OFFCURVE",
"696 388 CURVE SMOOTH",
"680 397 OFFCURVE",
"628 410 OFFCURVE",
"584 410 CURVE SMOOTH",
"504 410 OFFCURVE",
"376 346 OFFCURVE",
"376 307 CURVE SMOOTH",
"376 282 OFFCURVE",
"382 264 OFFCURVE",
"407 264 CURVE SMOOTH",
"430 264 OFFCURVE",
"479 301 OFFCURVE",
"499 331 CURVE SMOOTH",
"503 337 OFFCURVE",
"506 345 OFFCURVE",
"511 348 CURVE SMOOTH",
"516 351 OFFCURVE",
"569 331 OFFCURVE",
"606 368 CURVE SMOOTH",
"609 371 OFFCURVE",
"612 373 OFFCURVE",
"616 372 CURVE SMOOTH",
"627 369 OFFCURVE"
);
},
{
closed = 1;
nodes = (
"141 24 OFFCURVE",
"193 -67 OFFCURVE",
"267 -108 CURVE",
"281 -115 OFFCURVE",
"283 -106 OFFCURVE",
"279 -99 CURVE SMOOTH",
"275 -92 OFFCURVE",
"265 -70 OFFCURVE",
"263 -57 CURVE SMOOTH",
"261 -44 OFFCURVE",
"239 -38 OFFCURVE",
"231 -19 CURVE SMOOTH",
"223 0 OFFCURVE",
"224 21 OFFCURVE",
"224 33 CURVE SMOOTH",
"224 45 OFFCURVE",
"205 69 OFFCURVE",
"205 81 CURVE SMOOTH",
"205 108 OFFCURVE",
"232 133 OFFCURVE",
"232 170 CURVE SMOOTH",
"232 196 OFFCURVE",
"224 216 OFFCURVE",
"209 216 CURVE SMOOTH",
"188 216 OFFCURVE",
"141 196 OFFCURVE",
"141 122 CURVE"
);
},
{
closed = 1;
nodes = (
"-10 442 LINE",
"-10 157 LINE",
"10 157 LINE SMOOTH",
"91 157 OFFCURVE",
"201 134 OFFCURVE",
"245 116 CURVE",
"330 340 LINE",
"184 432 OFFCURVE",
"47 442 OFFCURVE",
"10 442 CURVE SMOOTH"
);
},
{
closed = 1;
nodes = (
"232 603 OFFCURVE",
"257 631 OFFCURVE",
"263 634 CURVE SMOOTH",
"269 637 OFFCURVE",
"266 644 OFFCURVE",
"261 643 CURVE SMOOTH",
"257 642 OFFCURVE",
"216 638 OFFCURVE",
"176 616 CURVE SMOOTH",
"85 566 OFFCURVE",
"24 421 OFFCURVE",
"63 351 CURVE SMOOTH",
"72 335 OFFCURVE",
"86 323 OFFCURVE",
"96 328 CURVE SMOOTH",
"130 345 OFFCURVE",
"143 411 OFFCURVE",
"137 459 CURVE SMOOTH",
"134 483 OFFCURVE",
"131 493 OFFCURVE",
"136 496 CURVE SMOOTH",
"141 499 OFFCURVE",
"160 514 OFFCURVE",
"170 530 CURVE SMOOTH",
"180 546 OFFCURVE",
"182 563 OFFCURVE",
"184 577 CURVE"
);
},
{
closed = 1;
nodes = (
"105 -24 OFFCURVE",
"107 -8 OFFCURVE",
"100 10 CURVE SMOOTH",
"93 28 OFFCURVE",
"78 47 OFFCURVE",
"74 51 CURVE SMOOTH",
"70 55 OFFCURVE",
"75 63 OFFCURVE",
"82 86 CURVE SMOOTH",
"96 133 OFFCURVE",
"102 201 OFFCURVE",
"71 224 CURVE SMOOTH",
"63 230 OFFCURVE",
"46 222 OFFCURVE",
"34 208 CURVE SMOOTH",
"-18 147 OFFCURVE",
"9 -6 OFFCURVE",
"87 -75 CURVE SMOOTH",
"121 -105 OFFCURVE",
"160 -118 OFFCURVE",
"164 -119 CURVE SMOOTH",
"169 -120 OFFCURVE",
"173 -116 OFFCURVE",
"168 -111 CURVE SMOOTH",
"163 -106 OFFCURVE",
"144 -75 OFFCURVE",
"104 -39 CURVE"
);
}
);
width = 1000;
}
);
unicode = 006C;
},
{
glyphname = m;
lastChange = "2021-10-15 14:31:46 +0000";
layers = (
{
layerId = "36C34FB4-9C42-4BD9-991C-7B94FED7D558";
paths = (
{
closed = 1;
nodes = (
"475 -32 OFFCURVE",
"668 10 OFFCURVE",
"740 48 CURVE SMOOTH",
"812 86 OFFCURVE",
"927 158 OFFCURVE",
"990 158 CURVE SMOOTH",
"1010 158 LINE",
"1010 442 LINE",
"990 442 LINE SMOOTH",
"891 442 OFFCURVE",
"791 530 OFFCURVE",
"728 542 CURVE SMOOTH",
"689 549 OFFCURVE",
"654 551 OFFCURVE",
"622 551 CURVE SMOOTH",
"574 551 OFFCURVE",
"535 546 OFFCURVE",
"511 546 CURVE SMOOTH",
"471 546 OFFCURVE",
"360 570 OFFCURVE",
"318 570 CURVE SMOOTH",
"276 570 OFFCURVE",
"222 576 OFFCURVE",
"181 585 CURVE SMOOTH",
"140 594 OFFCURVE",
"108 605 OFFCURVE",
"98 605 CURVE SMOOTH",
"90 605 OFFCURVE",
"83 600 OFFCURVE",
"83 593 CURVE SMOOTH",
"83 577 OFFCURVE",
"106 544 OFFCURVE",
"114 532 CURVE SMOOTH",
"143 491 OFFCURVE",
"169 477 OFFCURVE",
"200 444 CURVE SMOOTH",
"231 411 OFFCURVE",
"236 390 OFFCURVE",
"245 345 CURVE SMOOTH",
"254 300 OFFCURVE",
"273 278 OFFCURVE",
"290 251 CURVE SMOOTH",
"302 231 OFFCURVE",
"317 210 OFFCURVE",
"317 225 CURVE SMOOTH",
"317 231 OFFCURVE",
"315 241 OFFCURVE",
"310 259 CURVE SMOOTH",
"306 274 OFFCURVE",
"304 286 OFFCURVE",
"304 294 CURVE SMOOTH",
"304 308 OFFCURVE",
"308 315 OFFCURVE",
"314 315 CURVE SMOOTH",
"319 315 OFFCURVE",
"326 306 OFFCURVE",
"331 290 CURVE SMOOTH",
"343 250 OFFCURVE",
"362 216 OFFCURVE",
"372 200 CURVE SMOOTH",
"377 192 OFFCURVE",
"384 187 OFFCURVE",
"388 187 CURVE SMOOTH",
"390 187 OFFCURVE",
"391 188 OFFCURVE",
"391 191 CURVE SMOOTH",
"391 195 OFFCURVE",
"389 201 OFFCURVE",
"385 210 CURVE SMOOTH",
"370 243 OFFCURVE",
"368 262 OFFCURVE",
"368 276 CURVE SMOOTH",
"368 285 OFFCURVE",
"377 301 OFFCURVE",
"389 301 CURVE SMOOTH",
"396 301 OFFCURVE",
"405 294 OFFCURVE",
"413 274 CURVE SMOOTH",
"434 222 OFFCURVE",
"445 210 OFFCURVE",
"451 200 CURVE SMOOTH",
"454 196 OFFCURVE",
"457 193 OFFCURVE",
"459 193 CURVE SMOOTH",
"461 193 OFFCURVE",
"463 195 OFFCURVE",
"463 201 CURVE SMOOTH",
"463 203 OFFCURVE",
"463 207 OFFCURVE",
"462 211 CURVE SMOOTH",
"457 234 OFFCURVE",
"455 256 OFFCURVE",
"453 272 CURVE SMOOTH",
"452 282 OFFCURVE",
"457 307 OFFCURVE",
"468 307 CURVE SMOOTH",
"474 307 OFFCURVE",
"482 300 OFFCURVE",
"492 281 CURVE SMOOTH",
"520 226 OFFCURVE",
"520 231 OFFCURVE",
"525 223 CURVE SMOOTH",
"528 219 OFFCURVE",
"534 209 OFFCURVE",
"538 209 CURVE SMOOTH",
"540 209 OFFCURVE",
"541 211 OFFCURVE",
"541 216 CURVE SMOOTH",
"541 220 OFFCURVE",
"541 226 OFFCURVE",
"539 234 CURVE SMOOTH",
"537 245 OFFCURVE",
"535 256 OFFCURVE",
"535 265 CURVE SMOOTH",
"535 280 OFFCURVE",
"539 291 OFFCURVE",
"546 291 CURVE SMOOTH",
"552 291 OFFCURVE",
"561 284 OFFCURVE",
"573 266 CURVE SMOOTH",
"601 224 OFFCURVE",
"618 200 OFFCURVE",
"618 213 CURVE SMOOTH",
"618 217 OFFCURVE",
"617 224 OFFCURVE",
"614 234 CURVE SMOOTH",
"611 246 OFFCURVE",
"609 255 OFFCURVE",
"609 261 CURVE SMOOTH",
"609 268 OFFCURVE",
"611 271 OFFCURVE",
"614 271 CURVE SMOOTH",
"619 271 OFFCURVE",
"627 262 OFFCURVE",
"637 246 CURVE SMOOTH",
"655 216 OFFCURVE",
"670 198 OFFCURVE",
"670 214 CURVE SMOOTH",
"670 217 OFFCURVE",
"669 222 OFFCURVE",
"668 228 CURVE SMOOTH",
"667 232 OFFCURVE",
"667 236 OFFCURVE",
"667 239 CURVE SMOOTH",
"667 257 OFFCURVE",
"677 267 OFFCURVE",
"692 267 CURVE SMOOTH",
"700 267 OFFCURVE",
"710 264 OFFCURVE",
"721 256 CURVE SMOOTH",
"753 233 OFFCURVE",
"760 222 OFFCURVE",
"760 206 CURVE SMOOTH",
"760 190 OFFCURVE",
"743 164 OFFCURVE",
"731 164 CURVE SMOOTH",
"719 164 OFFCURVE",
"709 162 OFFCURVE",
"702 170 CURVE SMOOTH",
"698 175 OFFCURVE",
"686 188 OFFCURVE",
"681 188 CURVE SMOOTH",
"681 188 OFFCURVE",
"680 187 OFFCURVE",
"680 186 CURVE SMOOTH",
"680 183 OFFCURVE",
"683 176 OFFCURVE",
"690 162 CURVE SMOOTH",
"695 152 OFFCURVE",
"697 146 OFFCURVE",
"697 140 CURVE SMOOTH",
"697 130 OFFCURVE",
"689 126 OFFCURVE",
"678 119 CURVE SMOOTH",
"668 112 OFFCURVE",
"658 104 OFFCURVE",
"645 104 CURVE SMOOTH",
"636 104 OFFCURVE",
"626 107 OFFCURVE",
"613 118 CURVE SMOOTH",
"589 139 OFFCURVE",
"568 151 OFFCURVE",
"568 142 CURVE SMOOTH",
"568 139 OFFCURVE",
"570 134 OFFCURVE",
"575 127 CURVE SMOOTH",
"586 109 OFFCURVE",
"595 97 OFFCURVE",
"595 86 CURVE SMOOTH",
"595 78 OFFCURVE",
"590 72 OFFCURVE",
"577 65 CURVE SMOOTH",
"565 59 OFFCURVE",
"555 55 OFFCURVE",
"547 55 CURVE SMOOTH",
"534 55 OFFCURVE",
"524 63 OFFCURVE",
"512 78 CURVE SMOOTH",
"485 111 OFFCURVE",
"470 118 OFFCURVE",
"470 106 CURVE SMOOTH",
"470 102 OFFCURVE",
"473 95 OFFCURVE",
"477 85 CURVE SMOOTH",
"485 67 OFFCURVE",
"489 55 OFFCURVE",
"489 46 CURVE SMOOTH",
"489 38 OFFCURVE",
"485 33 OFFCURVE",
"478 30 CURVE SMOOTH",
"472 28 OFFCURVE",
"467 26 OFFCURVE",
"461 26 CURVE SMOOTH",
"451 26 OFFCURVE",
"440 31 OFFCURVE",
"426 44 CURVE SMOOTH",
"408 61 OFFCURVE",
"388 78 OFFCURVE",
"388 68 CURVE SMOOTH",
"388 65 OFFCURVE",
"389 61 OFFCURVE",
"392 55 CURVE SMOOTH",
"399 39 OFFCURVE",
"402 29 OFFCURVE",
"402 23 CURVE SMOOTH",
"402 16 OFFCURVE",
"398 13 OFFCURVE",
"393 13 CURVE SMOOTH",
"383 13 OFFCURVE",
"362 22 OFFCURVE",
"337 39 CURVE SMOOTH",
"319 51 OFFCURVE",
"290 67 OFFCURVE",
"290 59 CURVE SMOOTH",
"290 56 OFFCURVE",
"296 47 OFFCURVE",
"313 30 CURVE SMOOTH",
"366 -23 OFFCURVE",
"417 -32 OFFCURVE",
"446 -32 CURVE SMOOTH"
);
},
{
closed = 1;
nodes = (
"324 427 OFFCURVE",
"314 451 OFFCURVE",
"314 466 CURVE SMOOTH",
"314 473 OFFCURVE",
"316 478 OFFCURVE",
"320 478 CURVE",
"332 478 OFFCURVE",
"351 451 OFFCURVE",
"351 436 CURVE SMOOTH",
"351 431 OFFCURVE",
"348 427 OFFCURVE",
"341 427 CURVE SMOOTH"
);
},
{
closed = 1;
nodes = (
"678 368 OFFCURVE",
"656 416 OFFCURVE",
"656 439 CURVE SMOOTH",
"656 461 OFFCURVE",
"679 506 OFFCURVE",
"740 506 CURVE",
"771 506 OFFCURVE",
"799 481 OFFCURVE",
"799 436 CURVE SMOOTH",
"799 391 OFFCURVE",
"732 368 OFFCURVE",
"705 368 CURVE SMOOTH"
);
},
{
closed = 1;
nodes = (
"738 406 OFFCURVE",
"750 428 OFFCURVE",
"750 455 CURVE SMOOTH",
"750 472 OFFCURVE",
"743 479 OFFCURVE",
"734 479 CURVE SMOOTH",
"720 479 OFFCURVE",
"703 461 OFFCURVE",
"703 426 CURVE SMOOTH",
"703 413 OFFCURVE",
"711 406 OFFCURVE",
"722 406 CURVE SMOOTH"
);
},
{
closed = 1;
nodes = (
"649 584 OFFCURVE",
"679 598 OFFCURVE",
"679 631 CURVE SMOOTH",
"679 658 OFFCURVE",
"657 676 OFFCURVE",
"623 676 CURVE SMOOTH",
"589 676 OFFCURVE",
"564 654 OFFCURVE",
"564 635 CURVE",
"564 599 OFFCURVE",
"603 584 OFFCURVE",
"626 584 CURVE SMOOTH"
);
},
{
closed = 1;
nodes = (
"845 619 OFFCURVE",
"881 628 OFFCURVE",
"881 664 CURVE SMOOTH",
"881 700 OFFCURVE",
"845 720 OFFCURVE",
"797 720 CURVE SMOOTH",
"749 720 OFFCURVE",
"717 688 OFFCURVE",
"717 663 CURVE SMOOTH",
"717 648 OFFCURVE",
"727 635 OFFCURVE",
"741 635 CURVE SMOOTH",
"755 635 OFFCURVE",
"799 619 OFFCURVE",
"822 619 CURVE SMOOTH"
);
},
{
closed = 1;
nodes = (
"769 741 OFFCURVE",
"799 755 OFFCURVE",
"799 772 CURVE SMOOTH",
"799 787 OFFCURVE",
"777 798 OFFCURVE",
"750 798 CURVE SMOOTH",
"720 798 OFFCURVE",
"696 784 OFFCURVE",
"696 766 CURVE",
"696 752 OFFCURVE",
"711 741 OFFCURVE",
"731 741 CURVE SMOOTH"
);
}
);
width = 1000;
},
{
associatedMasterId = "36C34FB4-9C42-4BD9-991C-7B94FED7D558";
layerId = "7DF7C5B2-7A6A-46C4-BDB2-B1B17712B1D6";
name = "Oct 15 21, 11:28";
paths = (
{
closed = 1;
nodes = (
"664 108 OFFCURVE",
"718 103 OFFCURVE",
"764 103 CURVE SMOOTH",
"911 103 OFFCURVE",
"963 158 OFFCURVE",
"985 158 CURVE",
"1010 158 LINE",
"1010 442 LINE",
"985 442 LINE",
"948 442 OFFCURVE",
"891 475 OFFCURVE",
"834 475 CURVE SMOOTH",
"760 475 OFFCURVE",
"641 366 OFFCURVE",
"442 336 CURVE SMOOTH",
"376 326 OFFCURVE",
"352 311 OFFCURVE",
"352 289 CURVE SMOOTH",
"352 195 OFFCURVE",
"487 122 OFFCURVE",
"598 122 CURVE"
);
},
{
closed = 1;
nodes = (
"461 -58 OFFCURVE",
"480 -43 OFFCURVE",
"480 -19 CURVE SMOOTH",
"480 6 OFFCURVE",
"466 21 OFFCURVE",
"441 21 CURVE SMOOTH",
"414 21 OFFCURVE",
"402 2 OFFCURVE",
"402 -19 CURVE SMOOTH",
"402 -40 OFFCURVE",
"419 -58 OFFCURVE",
"441 -58 CURVE SMOOTH"
);
},
{
closed = 1;
nodes = (
"324 90 OFFCURVE",
"337 121 OFFCURVE",
"337 147 CURVE SMOOTH",
"337 173 OFFCURVE",
"316 186 OFFCURVE",
"299 186 CURVE",
"261 186 OFFCURVE",
"259 157 OFFCURVE",
"259 144 CURVE SMOOTH",
"259 125 OFFCURVE",
"273 114 OFFCURVE",
"280 107 CURVE SMOOTH",
"287 100 OFFCURVE",
"291 90 OFFCURVE",
"305 90 CURVE SMOOTH"
);
},
{
closed = 1;
nodes = (
"229 302 OFFCURVE",
"239 318 OFFCURVE",
"239 330 CURVE SMOOTH",
"239 342 OFFCURVE",
"230 407 OFFCURVE",
"190 407 CURVE",
"160 407 OFFCURVE",
"150 388 OFFCURVE",
"150 371 CURVE SMOOTH",
"150 353.99 OFFCURVE",
"161 302 OFFCURVE",
"207 302 CURVE SMOOTH"
);
},
{
closed = 1;
nodes = (
"390 451 OFFCURVE",
"381 491 OFFCURVE",
"394 511 CURVE SMOOTH",
"407 531 OFFCURVE",
"414 530 OFFCURVE",
"414 545 CURVE SMOOTH",
"414 560 OFFCURVE",
"405 572 OFFCURVE",
"401 586 CURVE SMOOTH",
"397 600 OFFCURVE",
"385 657 OFFCURVE",
"325 657 CURVE",
"287 657 OFFCURVE",
"259 624 OFFCURVE",
"259 584 CURVE SMOOTH",
"259 542 OFFCURVE",
"302 513 OFFCURVE",
"315 504 CURVE SMOOTH",
"328 495 OFFCURVE",
"326 451 OFFCURVE",
"358 451 CURVE SMOOTH"
);
},
{
closed = 1;
nodes = (
"495 431 OFFCURVE",
"511 444 OFFCURVE",
"522 447 CURVE SMOOTH",
"533 450 OFFCURVE",
"565 460 OFFCURVE",
"565 484 CURVE SMOOTH",
"565 504 OFFCURVE",
"550 521 OFFCURVE",
"530 521 CURVE SMOOTH",
"502 521 OFFCURVE",
"495 499 OFFCURVE",
"492 489 CURVE SMOOTH",
"489 479 OFFCURVE",
"467 458 OFFCURVE",
"467 448 CURVE SMOOTH",
"467 438 OFFCURVE",
"473 431 OFFCURVE",
"484 431 CURVE SMOOTH"
);
},
{
closed = 1;
nodes = (
"758 305 OFFCURVE",
"733 330 OFFCURVE",
"733 358 CURVE SMOOTH",
"733 387 OFFCURVE",
"758 412 OFFCURVE",
"796 412 CURVE",
"784 402 OFFCURVE",
"778 380 OFFCURVE",
"778 358 CURVE SMOOTH",
"778 337 OFFCURVE",
"784 316 OFFCURVE",
"796 305 CURVE"
);
},
{
closed = 1;
nodes = (
"822 316 OFFCURVE",
"828 337 OFFCURVE",
"828 358 CURVE SMOOTH",
"828 380 OFFCURVE",
"822 402 OFFCURVE",
"810 412 CURVE",
"848 412 OFFCURVE",
"873 387 OFFCURVE",
"873 358 CURVE SMOOTH",
"873 330 OFFCURVE",
"848 305 OFFCURVE",
"810 305 CURVE"
);
}
);
width = 1000;
}
);
unicode = 006D;
},
{
glyphname = n;
lastChange = "2021-10-15 14:30:18 +0000";
layers = (
{
layerId = "36C34FB4-9C42-4BD9-991C-7B94FED7D558";
paths = (
{
closed = 1;
nodes = (
"557 -179 OFFCURVE",
"575 -176 OFFCURVE",
"575 -172 CURVE SMOOTH",
"575 -170 OFFCURVE",
"573 -167 OFFCURVE",
"568 -166 CURVE SMOOTH",
"545 -162 OFFCURVE",
"526 -155 OFFCURVE",
"504 -139 CURVE SMOOTH",
"493 -131 OFFCURVE",
"478 -118 OFFCURVE",
"476 -104 CURVE SMOOTH",
"473 -84 OFFCURVE",
"475 -68 OFFCURVE",
"457 -61 CURVE SMOOTH",
"447 -57 OFFCURVE",
"407 -48 OFFCURVE",
"407 -27 CURVE SMOOTH",
"407 -15 OFFCURVE",
"421 -15 OFFCURVE",
"421 -2 CURVE SMOOTH",
"421 12 OFFCURVE",
"393 17 OFFCURVE",
"393 57 CURVE SMOOTH",
"393 80 OFFCURVE",
"419 94 OFFCURVE",
"452 94 CURVE SMOOTH",
"485 94 OFFCURVE",
"514 84 OFFCURVE",
"563 84 CURVE SMOOTH",
"693 84 OFFCURVE",
"728 102 OFFCURVE",
"761 102 CURVE SMOOTH",
"794 102 OFFCURVE",
"901 22 OFFCURVE",
"946 22 CURVE SMOOTH",
"962 22 OFFCURVE",
"966 28 OFFCURVE",
"966 34 CURVE SMOOTH",
"966 43 OFFCURVE",
"930 56 OFFCURVE",
"930 94 CURVE SMOOTH",
"930 126 OFFCURVE",
"957 158 OFFCURVE",
"989 158 CURVE",
"1010 158 LINE",
"1010 442 LINE",
"981 442 LINE SMOOTH",
"953 442 OFFCURVE",
"786 480 OFFCURVE",
"756 491 CURVE SMOOTH",
"726 502 OFFCURVE",
"687 543.008 OFFCURVE",
"687 584 CURVE SMOOTH",
"687 637 OFFCURVE",
"708 676 OFFCURVE",
"708 744 CURVE SMOOTH",
"708 763 OFFCURVE",
"703 792 OFFCURVE",
"674 792 CURVE SMOOTH",
"593 792 OFFCURVE",
"363 566 OFFCURVE",
"339 536 CURVE SMOOTH",
"319 512 OFFCURVE",
"282 502 OFFCURVE",
"248 477 CURVE",
"187 477 OFFCURVE",
"85 442 OFFCURVE",
"0 442 CURVE SMOOTH",
"-10 442 LINE",
"-10 158 LINE",
"0 158 LINE SMOOTH",
"20 158 OFFCURVE",
"39 161 OFFCURVE",
"58 161 CURVE SMOOTH",
"79 161 OFFCURVE",
"102 113 OFFCURVE",
"110 77 CURVE SMOOTH",
"124 14 OFFCURVE",
"247 -179 OFFCURVE",
"504 -179 CURVE SMOOTH"
);
},
{
closed = 1;
nodes = (
"90 244 OFFCURVE",
"108 265 OFFCURVE",
"108 292 CURVE SMOOTH",
"108 314 OFFCURVE",
"84 354 OFFCURVE",
"84 381 CURVE SMOOTH",
"84 387 OFFCURVE",
"85 389 OFFCURVE",
"86 389 CURVE SMOOTH",
"88 389 OFFCURVE",
"90 386 OFFCURVE",
"92 381 CURVE SMOOTH",
"96 371 OFFCURVE",
"112 345 OFFCURVE",
"124 334 CURVE SMOOTH",
"136 323 OFFCURVE",
"146 309 OFFCURVE",
"146 288 CURVE SMOOTH",
"146 267 OFFCURVE",
"131 255 OFFCURVE",
"116 239 CURVE SMOOTH",
"101 223 OFFCURVE",
"90 192 OFFCURVE",
"90 206 CURVE"
);
},
{
closed = 1;
nodes = (
"158 244 OFFCURVE",
"178 255 OFFCURVE",
"178 292 CURVE SMOOTH",
"178 314 OFFCURVE",
"144 354 OFFCURVE",
"144 381 CURVE SMOOTH",
"144 387 OFFCURVE",
"145 389 OFFCURVE",
"146 389 CURVE SMOOTH",
"148 389 OFFCURVE",
"150 386 OFFCURVE",
"152 381 CURVE SMOOTH",
"156 371 OFFCURVE",
"182 345 OFFCURVE",
"194 334 CURVE SMOOTH",
"206 323 OFFCURVE",
"216 309 OFFCURVE",
"216 288 CURVE SMOOTH",
"216 267 OFFCURVE",
"201 255 OFFCURVE",
"186 239 CURVE SMOOTH",
"171 223 OFFCURVE",
"158 192 OFFCURVE",
"158 206 CURVE"
);
},
{
closed = 1;
nodes = (
"220 234 OFFCURVE",
"248 255 OFFCURVE",
"248 292 CURVE SMOOTH",
"248 314 OFFCURVE",
"214 354 OFFCURVE",
"214 381 CURVE SMOOTH",
"214 387 OFFCURVE",
"215 389 OFFCURVE",
"216 389 CURVE SMOOTH",
"218 389 OFFCURVE",
"220 386 OFFCURVE",
"222 381 CURVE SMOOTH",
"226 371 OFFCURVE",
"252 345 OFFCURVE",
"264 334 CURVE SMOOTH",
"276 323 OFFCURVE",
"286 309 OFFCURVE",
"286 288 CURVE SMOOTH",
"286 267 OFFCURVE",
"271 255 OFFCURVE",
"256 239 CURVE SMOOTH",
"241 223 OFFCURVE",
"220 192 OFFCURVE",
"220 206 CURVE"
);
},
{
closed = 1;
nodes = (
"280 234 OFFCURVE",
"318 255 OFFCURVE",
"318 292 CURVE SMOOTH",
"318 324 OFFCURVE",
"274 354 OFFCURVE",
"274 381 CURVE SMOOTH",
"274 387 OFFCURVE",
"275 389 OFFCURVE",
"276 389 CURVE SMOOTH",
"278 389 OFFCURVE",
"280 386 OFFCURVE",
"282 381 CURVE SMOOTH",
"286 371 OFFCURVE",
"317 345 OFFCURVE",
"329 334 CURVE SMOOTH",
"341 323 OFFCURVE",
"356 309 OFFCURVE",
"356 288 CURVE SMOOTH",
"356 267 OFFCURVE",
"339 251 OFFCURVE",
"321 239 CURVE SMOOTH",
"296 223 OFFCURVE",
"280 192 OFFCURVE",
"280 206 CURVE"
);
}
);
width = 1000;
},
{
associatedMasterId = "36C34FB4-9C42-4BD9-991C-7B94FED7D558";
backgroundImage = {
imagePath = "../AXIS MUNDI/furiae scans/sharktail.jpg";
locked = "1";
transform = "{2.50966, 0, 0, 2.50966, 0, -200}";
};
layerId = "E99E8F8D-72A0-4811-B54A-5717090B458A";
name = "Mar 3 20, 10:14";
paths = (
{
closed = 1;
nodes = (
"97 157 OFFCURVE",
"127 162 OFFCURVE",
"152 162 CURVE SMOOTH",
"177 162 OFFCURVE",
"291 116 OFFCURVE",
"330 116 CURVE SMOOTH",
"343 116 OFFCURVE",
"349 119 OFFCURVE",
"349 123 CURVE SMOOTH",
"349 131 OFFCURVE",
"304 150 OFFCURVE",
"304 176 CURVE SMOOTH",
"304 190 OFFCURVE",
"316 198 OFFCURVE",
"336 198 CURVE SMOOTH",
"396 198 OFFCURVE",
"479 124 OFFCURVE",
"570 75 CURVE SMOOTH",
"670 21 OFFCURVE",
"744 5 OFFCURVE",
"792 5 CURVE SMOOTH",
"807 5 OFFCURVE",
"813 14 OFFCURVE",
"813 22 CURVE SMOOTH",
"813 31 OFFCURVE",
"715 120 OFFCURVE",
"680 178 CURVE SMOOTH",
"661 209 OFFCURVE",
"650 231 OFFCURVE",
"650 248 CURVE SMOOTH",
"650 282 OFFCURVE",
"693 345 OFFCURVE",
"737 386 CURVE SMOOTH",
"782 428 OFFCURVE",
"828 458 OFFCURVE",
"828 468 CURVE SMOOTH",
"828 474 OFFCURVE",
"817 478 OFFCURVE",
"806 478 CURVE SMOOTH",
"723 478 OFFCURVE",
"439 367 OFFCURVE",
"349 367 CURVE SMOOTH",
"308 367 OFFCURVE",
"281 370 OFFCURVE",
"281 394 CURVE SMOOTH",
"281 428 OFFCURVE",
"349 472 OFFCURVE",
"349 488 CURVE SMOOTH",
"349 492 OFFCURVE",
"347 495 OFFCURVE",
"342 495 CURVE SMOOTH",
"280 495 OFFCURVE",
"129 425 OFFCURVE",
"80 425 CURVE SMOOTH",
"61 425 OFFCURVE",
"34 442 OFFCURVE",
"0 442 CURVE",
"-10 442 LINE",
"-10 157 LINE",
"0 157 LINE"
);
}
);
width = 1000;
}
);
unicode = 006E;
},
{
glyphname = o;
lastChange = "2020-03-16 20:02:59 +0000";
layers = (
{
layerId = "36C34FB4-9C42-4BD9-991C-7B94FED7D558";
paths = (
{
closed = 1;
nodes = (
"807 5 OFFCURVE",
"813 14 OFFCURVE",
"813 22 CURVE SMOOTH",
"813 31 OFFCURVE",
"715 120 OFFCURVE",
"680 178 CURVE SMOOTH",
"661 209 OFFCURVE",
"650 231 OFFCURVE",
"650 248 CURVE SMOOTH",
"650 282 OFFCURVE",
"693 345 OFFCURVE",
"737 386 CURVE SMOOTH",
"782 428 OFFCURVE",
"828 458 OFFCURVE",
"828 468 CURVE SMOOTH",
"828 474 OFFCURVE",
"817 478 OFFCURVE",
"806 478 CURVE SMOOTH",
"723 478 OFFCURVE",
"439 377 OFFCURVE",
"349 377 CURVE SMOOTH",
"308 377 OFFCURVE",
"281 380 OFFCURVE",
"281 404 CURVE SMOOTH",
"281 438 OFFCURVE",
"349 482 OFFCURVE",
"349 498 CURVE SMOOTH",
"349 502 OFFCURVE",
"347 505 OFFCURVE",
"342 505 CURVE SMOOTH",
"280 505 OFFCURVE",
"159 425 OFFCURVE",
"110 425 CURVE SMOOTH",
"82 425 OFFCURVE",
"55 442 OFFCURVE",
"10 442 CURVE SMOOTH",
"-10 442 LINE",
"-10 158 LINE",
"10 158 LINE SMOOTH",
"107 158 OFFCURVE",
"127 162 OFFCURVE",
"152 162 CURVE SMOOTH",
"177 162 OFFCURVE",
"291 116 OFFCURVE",
"330 116 CURVE SMOOTH",
"343 116 OFFCURVE",
"349 119 OFFCURVE",
"349 123 CURVE SMOOTH",
"349 131 OFFCURVE",
"304 150 OFFCURVE",
"304 176 CURVE SMOOTH",
"304 190 OFFCURVE",
"316 198 OFFCURVE",
"336 198 CURVE SMOOTH",
"396 198 OFFCURVE",
"479 124 OFFCURVE",
"570 75 CURVE SMOOTH",
"670 21 OFFCURVE",
"744 5 OFFCURVE",
"792 5 CURVE SMOOTH"
);
}
);
width = 1000;
},
{
associatedMasterId = "36C34FB4-9C42-4BD9-991C-7B94FED7D558";
backgroundImage = {
imagePath = "../AXIS MUNDI/furiae scans/cockhead.jpg";
locked = "1";
transform = "{2.51786, 0, 0, 2.51786, -25, -203}";
};
layerId = "689BE4D4-1A18-43C0-9CF4-ABA07E5C3E99";
name = "Mar 16 20, 10:07";
paths = (
{
closed = 1;
nodes = (
"935 500 OFFCURVE",
"938 503 OFFCURVE",
"938 511 CURVE SMOOTH",
"938 519 OFFCURVE",
"938 529 OFFCURVE",
"941 534 CURVE SMOOTH",
"944 539 OFFCURVE",
"951 546 OFFCURVE",
"954 549 CURVE SMOOTH",
"957 552 OFFCURVE",
"958 555 OFFCURVE",
"958 557 CURVE SMOOTH",
"958 561 OFFCURVE",
"955 563 OFFCURVE",
"952 563 CURVE SMOOTH",
"942 563 OFFCURVE",
"932 554 OFFCURVE",
"922 554 CURVE SMOOTH",
"912 554 OFFCURVE",
"903 555 OFFCURVE",
"903 564 CURVE SMOOTH",
"903 570 OFFCURVE",
"906 575 OFFCURVE",
"909 579 CURVE SMOOTH",
"912 583 OFFCURVE",
"916 590 OFFCURVE",
"916 599 CURVE SMOOTH",
"916 608 OFFCURVE",
"912 613 OFFCURVE",
"905 620 CURVE SMOOTH",
"898 627 OFFCURVE",
"890 636 OFFCURVE",
"890 649 CURVE SMOOTH",
"890 662 OFFCURVE",
"894 679 OFFCURVE",
"897 684 CURVE SMOOTH",
"900 689 OFFCURVE",
"903 696 OFFCURVE",
"903 699 CURVE SMOOTH",
"903 702 OFFCURVE",
"901 709 OFFCURVE",
"895 709 CURVE SMOOTH",
"889 709 OFFCURVE",
"882 703 OFFCURVE",
"874 693 CURVE SMOOTH",
"868 686 OFFCURVE",
"850 658 OFFCURVE",
"837 641 CURVE SMOOTH",
"828 629 OFFCURVE",
"822 626 OFFCURVE",
"814 626 CURVE SMOOTH",
"806 626 OFFCURVE",
"800 634 OFFCURVE",
"798 639 CURVE SMOOTH",
"796 644 OFFCURVE",
"791 655 OFFCURVE",
"784 662 CURVE SMOOTH",
"777 669 OFFCURVE",
"765 675 OFFCURVE",
"752 678 CURVE SMOOTH",
"740 681 OFFCURVE",
"740 688 OFFCURVE",
"740 693 CURVE SMOOTH",
"740 698 OFFCURVE",
"743 705 OFFCURVE",
"740 712 CURVE SMOOTH",
"737 719 OFFCURVE",
"731 725 OFFCURVE",
"731 735 CURVE SMOOTH",
"731 745 OFFCURVE",
"738 755 OFFCURVE",
"739 756 CURVE SMOOTH",
"740 757 OFFCURVE",
"742 759 OFFCURVE",
"742 762 CURVE SMOOTH",
"742 765 OFFCURVE",
"740 768 OFFCURVE",
"735 768 CURVE SMOOTH",
"730 768 OFFCURVE",
"720 764 OFFCURVE",
"709 749 CURVE SMOOTH",
"698 734 OFFCURVE",
"678 696 OFFCURVE",
"670 662 CURVE SMOOTH",
"662 628 OFFCURVE",
"646 578 OFFCURVE",
"630 578 CURVE SMOOTH",
"621 578 OFFCURVE",
"615 583 OFFCURVE",
"611 589 CURVE SMOOTH",
"607 595 OFFCURVE",
"602 606 OFFCURVE",
"596 606 CURVE SMOOTH",
"590 606 OFFCURVE",
"589 600 OFFCURVE",
"589 595 CURVE SMOOTH",
"589 590 OFFCURVE",
"594 563 OFFCURVE",
"602 546 CURVE SMOOTH",
"612 525 OFFCURVE",
"637 500 OFFCURVE",
"637 486 CURVE SMOOTH",
"637 476 OFFCURVE",
"618 470 OFFCURVE",
"611 463 CURVE SMOOTH",
"606 458 OFFCURVE",
"601 452 OFFCURVE",
"601 439 CURVE SMOOTH",
"601 426 OFFCURVE",
"607 424 OFFCURVE",
"607 420 CURVE SMOOTH",
"607 412 OFFCURVE",
"589 399 OFFCURVE",
"578 397 CURVE SMOOTH",
"549 392 OFFCURVE",
"535 385 OFFCURVE",
"523 373 CURVE SMOOTH",
"511 361 OFFCURVE",
"504 332 OFFCURVE",
"502 321 CURVE SMOOTH",
"500 310 OFFCURVE",
"493 300 OFFCURVE",
"478 291 CURVE SMOOTH",
"463 282 OFFCURVE",
"404 260 OFFCURVE",
"382 245 CURVE SMOOTH",
"360 230 OFFCURVE",
"339 196 OFFCURVE",
"339 162 CURVE SMOOTH",
"339 158 OFFCURVE",
"341 156 OFFCURVE",
"344 156 CURVE SMOOTH",
"353 156 OFFCURVE",
"367 193 OFFCURVE",
"398 202 CURVE SMOOTH",
"411 206 OFFCURVE",
"422 207 OFFCURVE",
"436 208 CURVE SMOOTH",
"446 209 OFFCURVE",
"456 210 OFFCURVE",
"470 212 CURVE SMOOTH",
"499 216 OFFCURVE",
"519 231 OFFCURVE",
"521 231 CURVE SMOOTH",
"523 231 OFFCURVE",
"523 231 OFFCURVE",
"523 228 CURVE SMOOTH",
"523 223 OFFCURVE",
"514 215 OFFCURVE",
"509 211 CURVE SMOOTH",
"504 207 OFFCURVE",
"488 200 OFFCURVE",
"477 197 CURVE SMOOTH",
"466 194 OFFCURVE",
"456 178 OFFCURVE",
"448 171 CURVE SMOOTH",
"440 164 OFFCURVE",
"434 160 OFFCURVE",
"434 154 CURVE SMOOTH",
"434 151 OFFCURVE",
"436 149 OFFCURVE",
"439 149 CURVE SMOOTH",
"442 149 OFFCURVE",
"445 150 OFFCURVE",
"449 152 CURVE SMOOTH",
"463 159 OFFCURVE",
"496 173 OFFCURVE",
"509 177 CURVE SMOOTH",
"516 179 OFFCURVE",
"522 181 OFFCURVE",
"525 181 CURVE SMOOTH",
"528 181 OFFCURVE",
"529 180 OFFCURVE",
"529 178 CURVE SMOOTH",
"529 174 OFFCURVE",
"521 165 OFFCURVE",
"508 154 CURVE SMOOTH",
"495 143 OFFCURVE",
"454 117 OFFCURVE",
"435 109 CURVE SMOOTH",
"416 101 OFFCURVE",
"399 97 OFFCURVE",
"399 91 CURVE SMOOTH",
"399 85 OFFCURVE",
"408 79 OFFCURVE",
"431 79 CURVE SMOOTH",
"549 79 OFFCURVE",
"593 137 OFFCURVE",
"628 137 CURVE SMOOTH",
"663 137 OFFCURVE",
"679 117 OFFCURVE",
"679 92 CURVE SMOOTH",
"679 67 OFFCURVE",
"660 55 OFFCURVE",
"660 44 CURVE SMOOTH",
"660 33 OFFCURVE",
"671 21 OFFCURVE",
"674 13 CURVE SMOOTH",
"677 5 OFFCURVE",
"675 -34 OFFCURVE",
"719 -34 CURVE SMOOTH",
"751 -34 OFFCURVE",
"762 -19 OFFCURVE",
"767 -10 CURVE SMOOTH",
"770 -4 OFFCURVE",
"773 -3 OFFCURVE",
"775 -3 CURVE SMOOTH",
"778 -3 OFFCURVE",
"779 -7 OFFCURVE",
"777 -14 CURVE SMOOTH",
"774 -25 OFFCURVE",
"770 -36 OFFCURVE",
"770 -45 CURVE SMOOTH",
"770 -70 OFFCURVE",
"785 -87 OFFCURVE",
"816 -87 CURVE SMOOTH",
"841 -87 OFFCURVE",
"846 -68 OFFCURVE",
"856 -63 CURVE SMOOTH",
"866 -58 OFFCURVE",
"883 -58 OFFCURVE",
"893 -48 CURVE SMOOTH",
"903 -38 OFFCURVE",
"907 -27 OFFCURVE",
"918 -21 CURVE SMOOTH",
"929 -15 OFFCURVE",
"934 -7 OFFCURVE",
"934 8 CURVE SMOOTH",
"934 23 OFFCURVE",
"922 50 OFFCURVE",
"914 63 CURVE SMOOTH",
"906 76 OFFCURVE",
"895 83 OFFCURVE",
"895 101 CURVE SMOOTH",
"895 112 OFFCURVE",
"904 117 OFFCURVE",
"912 121 CURVE SMOOTH",
"920 125 OFFCURVE",
"929 126 OFFCURVE",
"935 132 CURVE SMOOTH",
"940 137 OFFCURVE",
"961 157 OFFCURVE",
"990 157 CURVE SMOOTH",
"1009 157 LINE",
"1009 442 LINE",
"990 442 LINE SMOOTH",
"956 442 OFFCURVE",
"934 445 OFFCURVE",
"926 450 CURVE SMOOTH",
"916 456 OFFCURVE",
"909 465 OFFCURVE",
"909 474 CURVE SMOOTH",
"909 483 OFFCURVE",
"922 490 OFFCURVE",
"927 494 CURVE SMOOTH"
);
},
{
closed = 1;
nodes = (
"793 441 OFFCURVE",
"829 407 OFFCURVE",
"829 368 CURVE SMOOTH",
"829 335 OFFCURVE",
"808 295 OFFCURVE",
"752 295 CURVE SMOOTH",
"717 295 OFFCURVE",
"674 318 OFFCURVE",
"674 373 CURVE SMOOTH",
"674 430 OFFCURVE",
"735 441 OFFCURVE",
"751 441 CURVE"
);
},
{
closed = 1;
nodes = (
"732 407 OFFCURVE",
"752 407 CURVE SMOOTH",
"772 407 OFFCURVE",
"791 393 OFFCURVE",
"791 366 CURVE SMOOTH",
"791 347 OFFCURVE",
"775 329 OFFCURVE",
"752 329 CURVE SMOOTH",
"729 329 OFFCURVE",
"712 346 OFFCURVE",
"712 366 CURVE SMOOTH",
"712 393 OFFCURVE"
);
}
);
width = 1000;
}
);
unicode = 006F;
},
{
glyphname = p;
lastChange = "2021-10-15 14:30:18 +0000";
layers = (
{
layerId = "36C34FB4-9C42-4BD9-991C-7B94FED7D558";
paths = (
{
closed = 1;
nodes = (
"841 -87 OFFCURVE",
"846 -68 OFFCURVE",
"856 -63 CURVE SMOOTH",
"866 -58 OFFCURVE",
"883 -58 OFFCURVE",
"893 -48 CURVE SMOOTH",
"903 -38 OFFCURVE",
"907 -27 OFFCURVE",
"918 -21 CURVE SMOOTH",
"929 -15 OFFCURVE",
"934 -7 OFFCURVE",
"934 8 CURVE SMOOTH",
"934 23 OFFCURVE",
"922 50 OFFCURVE",
"914 63 CURVE SMOOTH",
"906 76 OFFCURVE",
"895 83 OFFCURVE",
"895 101 CURVE SMOOTH",
"895 112 OFFCURVE",
"904 117 OFFCURVE",
"912 121 CURVE SMOOTH",
"920 125 OFFCURVE",
"929 126 OFFCURVE",
"935 132 CURVE SMOOTH",
"940 137 OFFCURVE",
"961 157 OFFCURVE",
"990 157 CURVE SMOOTH",
"1009 157 LINE",
"1009 442 LINE",
"990 442 LINE SMOOTH",
"956 442 OFFCURVE",
"934 445 OFFCURVE",
"926 450 CURVE SMOOTH",
"916 456 OFFCURVE",
"909 465 OFFCURVE",
"909 474 CURVE SMOOTH",
"909 483 OFFCURVE",
"922 490 OFFCURVE",
"927 494 CURVE SMOOTH",
"935 500 OFFCURVE",
"938 503 OFFCURVE",
"938 511 CURVE SMOOTH",
"938 519 OFFCURVE",
"938 529 OFFCURVE",
"941 534 CURVE SMOOTH",
"944 539 OFFCURVE",
"951 546 OFFCURVE",
"954 549 CURVE SMOOTH",
"957 552 OFFCURVE",
"958 555 OFFCURVE",
"958 557 CURVE SMOOTH",
"958 561 OFFCURVE",
"955 563 OFFCURVE",
"952 563 CURVE SMOOTH",
"942 563 OFFCURVE",
"932 554 OFFCURVE",
"922 554 CURVE SMOOTH",
"912 554 OFFCURVE",
"903 555 OFFCURVE",
"903 564 CURVE SMOOTH",
"903 570 OFFCURVE",
"906 575 OFFCURVE",
"909 579 CURVE SMOOTH",
"912 583 OFFCURVE",
"916 590 OFFCURVE",
"916 599 CURVE SMOOTH",
"916 608 OFFCURVE",
"912 613 OFFCURVE",
"905 620 CURVE SMOOTH",
"898 627 OFFCURVE",
"890 636 OFFCURVE",
"890 649 CURVE SMOOTH",
"890 662 OFFCURVE",
"894 679 OFFCURVE",
"897 684 CURVE SMOOTH",
"900 689 OFFCURVE",
"903 696 OFFCURVE",
"903 699 CURVE SMOOTH",
"903 702 OFFCURVE",
"901 709 OFFCURVE",
"895 709 CURVE SMOOTH",
"889 709 OFFCURVE",
"882 703 OFFCURVE",
"874 693 CURVE SMOOTH",
"868 686 OFFCURVE",
"850 658 OFFCURVE",
"837 641 CURVE SMOOTH",
"828 629 OFFCURVE",
"822 626 OFFCURVE",
"814 626 CURVE SMOOTH",
"806 626 OFFCURVE",
"800 634 OFFCURVE",
"798 639 CURVE SMOOTH",
"796 644 OFFCURVE",
"791 655 OFFCURVE",
"784 662 CURVE SMOOTH",
"777 669 OFFCURVE",
"765 675 OFFCURVE",
"752 678 CURVE SMOOTH",
"740 681 OFFCURVE",
"740 688 OFFCURVE",
"740 693 CURVE SMOOTH",
"740 696 OFFCURVE",
"741 701 OFFCURVE",
"741 705 CURVE SMOOTH",
"741 707 OFFCURVE",
"741 710 OFFCURVE",
"740 712 CURVE SMOOTH",
"737 719 OFFCURVE",
"731 725 OFFCURVE",
"731 735 CURVE SMOOTH",
"731 745 OFFCURVE",
"738 755 OFFCURVE",
"739 756 CURVE SMOOTH",
"740 757 OFFCURVE",
"742 759 OFFCURVE",
"742 762 CURVE SMOOTH",
"742 765 OFFCURVE",
"740 768 OFFCURVE",
"735 768 CURVE SMOOTH",
"730 768 OFFCURVE",
"720 764 OFFCURVE",
"709 749 CURVE SMOOTH",
"698 734 OFFCURVE",
"678 696 OFFCURVE",
"670 662 CURVE SMOOTH",
"662 628 OFFCURVE",
"646 578 OFFCURVE",
"630 578 CURVE SMOOTH",
"621 578 OFFCURVE",
"615 583 OFFCURVE",
"611 589 CURVE SMOOTH",
"607 595 OFFCURVE",
"602 606 OFFCURVE",
"596 606 CURVE SMOOTH",
"590 606 OFFCURVE",
"589 600 OFFCURVE",
"589 595 CURVE SMOOTH",
"589 590 OFFCURVE",
"594 563 OFFCURVE",
"602 546 CURVE SMOOTH",
"612 525 OFFCURVE",
"637 500 OFFCURVE",
"637 486 CURVE SMOOTH",
"637 476 OFFCURVE",
"618 470 OFFCURVE",
"611 463 CURVE SMOOTH",
"606 458 OFFCURVE",
"601 452 OFFCURVE",
"601 439 CURVE SMOOTH",
"601 426 OFFCURVE",
"607 424 OFFCURVE",
"607 420 CURVE SMOOTH",
"607 412 OFFCURVE",
"589 399 OFFCURVE",
"578 397 CURVE SMOOTH",
"549 392 OFFCURVE",
"535 385 OFFCURVE",
"523 373 CURVE SMOOTH",
"511 361 OFFCURVE",
"504 332 OFFCURVE",
"502 321 CURVE SMOOTH",
"500 310 OFFCURVE",
"493 300 OFFCURVE",
"478 291 CURVE SMOOTH",
"463 282 OFFCURVE",
"404 260 OFFCURVE",
"382 245 CURVE SMOOTH",
"360 230 OFFCURVE",
"339 196 OFFCURVE",
"339 162 CURVE SMOOTH",
"339 158 OFFCURVE",
"341 156 OFFCURVE",
"344 156 CURVE SMOOTH",
"353 156 OFFCURVE",
"367 193 OFFCURVE",
"398 202 CURVE SMOOTH",
"411 206 OFFCURVE",
"422 207 OFFCURVE",
"436 208 CURVE SMOOTH",
"446 209 OFFCURVE",
"456 210 OFFCURVE",
"470 212 CURVE SMOOTH",
"499 216 OFFCURVE",
"519 231 OFFCURVE",
"521 231 CURVE SMOOTH",
"523 231 OFFCURVE",
"523 231 OFFCURVE",
"523 228 CURVE SMOOTH",
"523 223 OFFCURVE",
"514 215 OFFCURVE",
"509 211 CURVE SMOOTH",
"504 207 OFFCURVE",
"488 200 OFFCURVE",
"477 197 CURVE SMOOTH",
"466 194 OFFCURVE",
"456 178 OFFCURVE",
"448 171 CURVE SMOOTH",
"440 164 OFFCURVE",
"434 160 OFFCURVE",
"434 154 CURVE SMOOTH",
"434 151 OFFCURVE",
"436 149 OFFCURVE",
"439 149 CURVE SMOOTH",
"442 149 OFFCURVE",
"445 150 OFFCURVE",
"449 152 CURVE SMOOTH",
"463 159 OFFCURVE",
"496 173 OFFCURVE",
"509 177 CURVE SMOOTH",
"516 179 OFFCURVE",
"522 181 OFFCURVE",
"525 181 CURVE SMOOTH",
"528 181 OFFCURVE",
"529 180 OFFCURVE",
"529 178 CURVE SMOOTH",
"529 174 OFFCURVE",
"521 165 OFFCURVE",
"508 154 CURVE SMOOTH",
"495 143 OFFCURVE",
"454 117 OFFCURVE",
"435 109 CURVE SMOOTH",
"416 101 OFFCURVE",
"399 97 OFFCURVE",
"399 91 CURVE SMOOTH",
"399 85 OFFCURVE",
"408 79 OFFCURVE",
"431 79 CURVE SMOOTH",
"549 79 OFFCURVE",
"593 137 OFFCURVE",
"628 137 CURVE SMOOTH",
"663 137 OFFCURVE",
"679 117 OFFCURVE",
"679 92 CURVE SMOOTH",
"679 67 OFFCURVE",
"660 55 OFFCURVE",
"660 44 CURVE SMOOTH",
"660 33 OFFCURVE",
"671 21 OFFCURVE",
"674 13 CURVE SMOOTH",
"677 5 OFFCURVE",
"675 -34 OFFCURVE",
"719 -34 CURVE SMOOTH",
"751 -34 OFFCURVE",
"762 -19 OFFCURVE",
"767 -10 CURVE SMOOTH",
"770 -4 OFFCURVE",
"773 -3 OFFCURVE",
"775 -3 CURVE SMOOTH",
"778 -3 OFFCURVE",
"779 -7 OFFCURVE",
"777 -14 CURVE SMOOTH",
"774 -25 OFFCURVE",
"770 -36 OFFCURVE",
"770 -45 CURVE SMOOTH",
"770 -70 OFFCURVE",
"785 -87 OFFCURVE",
"816 -87 CURVE SMOOTH"
);
},
{
closed = 1;
nodes = (
"717 295 OFFCURVE",
"674 318 OFFCURVE",
"674 373 CURVE SMOOTH",
"674 430 OFFCURVE",
"735 441 OFFCURVE",
"751 441 CURVE",
"793 441 OFFCURVE",
"829 407 OFFCURVE",
"829 368 CURVE SMOOTH",
"829 335 OFFCURVE",
"808 295 OFFCURVE",
"752 295 CURVE SMOOTH"
);
},
{
closed = 1;
nodes = (
"775 329 OFFCURVE",
"791 347 OFFCURVE",
"791 366 CURVE SMOOTH",
"791 393 OFFCURVE",
"772 407 OFFCURVE",
"752 407 CURVE SMOOTH",
"732 407 OFFCURVE",
"712 393 OFFCURVE",
"712 366 CURVE SMOOTH",
"712 346 OFFCURVE",
"729 329 OFFCURVE",
"752 329 CURVE SMOOTH"
);
}
);
width = 1000;
}
);
unicode = 0070;
},
{
glyphname = q;
lastChange = "2021-11-23 14:12:23 +0000";
layers = (
{
layerId = "36C34FB4-9C42-4BD9-991C-7B94FED7D558";
paths = (
{
closed = 1;
nodes = (
"600 -53 OFFCURVE",
"620 -44 OFFCURVE",
"653 -27 CURVE SMOOTH",
"686 -10 OFFCURVE",
"693 -16 OFFCURVE",
"715 -12 CURVE SMOOTH",
"737 -8 OFFCURVE",
"754 1 OFFCURVE",
"764 1 CURVE SMOOTH",
"774 1 OFFCURVE",
"778 -6 OFFCURVE",
"815 -6 CURVE SMOOTH",
"852 -6 OFFCURVE",
"907 28 OFFCURVE",
"934 65 CURVE SMOOTH",
"961 102 OFFCURVE",
"979 157 OFFCURVE",
"1000 157 CURVE",
"1010 157 LINE",
"1010 442 LINE",
"1000 442 LINE",
"943 442 OFFCURVE",
"872 477 OFFCURVE",
"850 478 CURVE",
"853 484 OFFCURVE",
"858 487 OFFCURVE",
"860 489 CURVE SMOOTH",
"862 491 OFFCURVE",
"865 494 OFFCURVE",
"865 497 CURVE SMOOTH",
"865 500 OFFCURVE",
"864 503 OFFCURVE",
"853 503 CURVE SMOOTH",
"842 503 OFFCURVE",
"823 501 OFFCURVE",
"813 501 CURVE SMOOTH",
"774 501 OFFCURVE",
"743 516 OFFCURVE",
"734 516 CURVE",
"741 523 OFFCURVE",
"786 532 OFFCURVE",
"796 535 CURVE SMOOTH",
"806 538 OFFCURVE",
"810 540 OFFCURVE",
"810 543 CURVE SMOOTH",
"810 546 OFFCURVE",
"806 547 OFFCURVE",
"800 548 CURVE SMOOTH",
"794 549 OFFCURVE",
"770 550 OFFCURVE",
"748 555 CURVE SMOOTH",
"726 560 OFFCURVE",
"700 569 OFFCURVE",
"681 576 CURVE",
"709 582 OFFCURVE",
"747 616 OFFCURVE",
"747 627 CURVE SMOOTH",
"747 630 OFFCURVE",
"745 632 OFFCURVE",
"742 632 CURVE SMOOTH",
"737 632 OFFCURVE",
"718 624 OFFCURVE",
"707 624 CURVE SMOOTH",
"696 624 OFFCURVE",
"661 626 OFFCURVE",
"647 626 CURVE SMOOTH",
"640 626 OFFCURVE",
"626 627 OFFCURVE",
"609 627 CURVE SMOOTH",
"595 627 OFFCURVE",
"577 626 OFFCURVE",
"559 623 CURVE",
"592 641 OFFCURVE",
"622 671 OFFCURVE",
"638 687 CURVE SMOOTH",
"643 692 OFFCURVE",
"645 695 OFFCURVE",
"645 698 CURVE SMOOTH",
"645 703 OFFCURVE",
"641 705 OFFCURVE",
"637 705 CURVE SMOOTH",
"633 705 OFFCURVE",
"630 704 OFFCURVE",
"628 703 CURVE SMOOTH",
"606 694 OFFCURVE",
"590 695 OFFCURVE",
"552 691 CURVE SMOOTH",
"514 687 OFFCURVE",
"481 678 OFFCURVE",
"429 654 CURVE",
"455 686 OFFCURVE",
"483 746 OFFCURVE",
"483 755 CURVE SMOOTH",
"483 759 OFFCURVE",
"481 762 OFFCURVE",
"477 762 CURVE SMOOTH",
"470 762 OFFCURVE",
"458 748 OFFCURVE",
"405 721 CURVE SMOOTH",
"352 694 OFFCURVE",
"300 645 OFFCURVE",
"282 625 CURVE",
"272 625 OFFCURVE",
"264 667 OFFCURVE",
"264 672 CURVE SMOOTH",
"264 677 OFFCURVE",
"267 685 OFFCURVE",
"260 685 CURVE SMOOTH",
"252 685 OFFCURVE",
"225 655 OFFCURVE",
"225 603 CURVE SMOOTH",
"225 582 OFFCURVE",
"232 560 OFFCURVE",
"232 545 CURVE SMOOTH",
"232 540 OFFCURVE",
"231 536 OFFCURVE",
"229 532 CURVE SMOOTH",
"227 529 OFFCURVE",
"224 527 OFFCURVE",
"221 527 CURVE SMOOTH",
"210 527 OFFCURVE",
"190 540 OFFCURVE",
"162 540 CURVE SMOOTH",
"125 540 OFFCURVE",
"93 525 OFFCURVE",
"73 495 CURVE SMOOTH",
"53 465 OFFCURVE",
"33 442 OFFCURVE",
"0 442 CURVE",
"-10 442 LINE",
"-10 157 LINE",
"10 157 LINE",
"40 157 OFFCURVE",
"65 149 OFFCURVE",
"90 107 CURVE SMOOTH",
"115 65 OFFCURVE",
"128 45 OFFCURVE",
"153 29 CURVE SMOOTH",
"178 13 OFFCURVE",
"189 11 OFFCURVE",
"225 11 CURVE SMOOTH",
"261 11 OFFCURVE",
"278 26 OFFCURVE",
"289 26 CURVE SMOOTH",
"300 26 OFFCURVE",
"309 21 OFFCURVE",
"321 4 CURVE SMOOTH",
"333 -13 OFFCURVE",
"363 -39 OFFCURVE",
"403 -39 CURVE SMOOTH",
"443 -39 OFFCURVE",
"456 -23 OFFCURVE",
"463 -23 CURVE SMOOTH",
"470 -23 OFFCURVE",
"496 -53 OFFCURVE",
"548 -53 CURVE SMOOTH"
);
},
{
closed = 1;
nodes = (
"386 -214 OFFCURVE",
"429 -214 OFFCURVE",
"453 -208 CURVE SMOOTH",
"490 -199 OFFCURVE",
"541 -178 OFFCURVE",
"567 -178 CURVE SMOOTH",
"593 -178 OFFCURVE",
"612 -180 OFFCURVE",
"619 -180 CURVE SMOOTH",
"626 -180 OFFCURVE",
"631 -179 OFFCURVE",
"631 -176 CURVE SMOOTH",
"631 -173 OFFCURVE",
"629 -167 OFFCURVE",
"612 -159 CURVE SMOOTH",
"595 -151 OFFCURVE",
"574 -144 OFFCURVE",
"574 -133 CURVE SMOOTH",
"574 -122 OFFCURVE",
"591 -59 OFFCURVE",
"610 -33 CURVE",
"517 -16 LINE",
"524 -40 OFFCURVE",
"525 -71 OFFCURVE",
"525 -86 CURVE SMOOTH",
"525 -101 OFFCURVE",
"518 -108 OFFCURVE",
"511 -108 CURVE SMOOTH",
"504 -108 OFFCURVE",
"395 -118 OFFCURVE",
"374 -118 CURVE SMOOTH",
"345 -118 LINE SMOOTH",
"341 -118 OFFCURVE",
"339 -121 OFFCURVE",
"339 -124 CURVE SMOOTH",
"339 -127 OFFCURVE",
"341 -130 OFFCURVE",
"345 -130 CURVE SMOOTH",
"357 -130 OFFCURVE",
"400 -137 OFFCURVE",
"419 -142 CURVE",
"381 -152 OFFCURVE",
"356 -160 OFFCURVE",
"337 -160 CURVE",
"316 -160 LINE SMOOTH",
"312 -160 OFFCURVE",
"309 -164 OFFCURVE",
"309 -168 CURVE SMOOTH",
"309 -171 OFFCURVE",
"312 -175 OFFCURVE",
"316 -175 CURVE SMOOTH",
"327 -175 OFFCURVE",
"373 -179 OFFCURVE",
"411 -179 CURVE SMOOTH",
"421 -179 OFFCURVE",
"432 -179 OFFCURVE",
"440 -178 CURVE",
"404 -197 OFFCURVE",
"379 -200 OFFCURVE",
"374 -200 CURVE SMOOTH",
"368 -200 OFFCURVE",
"365 -203 OFFCURVE",
"365 -206 CURVE SMOOTH",
"365 -210 OFFCURVE",
"369 -214 OFFCURVE",
"377 -214 CURVE SMOOTH"
);
}
);
width = 1000;
}
);
unicode = 0071;
},
{
glyphname = r;
lastChange = "2021-10-15 14:30:18 +0000";
layers = (
{
layerId = "36C34FB4-9C42-4BD9-991C-7B94FED7D558";
paths = (
{
closed = 1;
nodes = (
"124 108 OFFCURVE",
"127 112 OFFCURVE",
"127 115 CURVE SMOOTH",
"127 117 OFFCURVE",
"126 118 OFFCURVE",
"124 118 CURVE SMOOTH",
"121 118 OFFCURVE",
"116 119 OFFCURVE",
"113 122 CURVE SMOOTH",
"108 127 OFFCURVE",
"96 161 OFFCURVE",
"90 166 CURVE",
"110 166 OFFCURVE",
"132 156 OFFCURVE",
"145 150 CURVE SMOOTH",
"158 144 OFFCURVE",
"187 138 OFFCURVE",
"203 138 CURVE SMOOTH",
"219 138 OFFCURVE",
"253 139 OFFCURVE",
"253 145 CURVE SMOOTH",
"253 150 OFFCURVE",
"241 152 OFFCURVE",
"228 158 CURVE SMOOTH",
"215 164 OFFCURVE",
"185 194 OFFCURVE",
"173 211 CURVE SMOOTH",
"161 228 OFFCURVE",
"158 235 OFFCURVE",
"153 239 CURVE",
"175 228 OFFCURVE",
"203 219 OFFCURVE",
"222 217 CURVE SMOOTH",
"232 216 OFFCURVE",
"247 216 OFFCURVE",
"261 216 CURVE SMOOTH",
"276 216 OFFCURVE",
"291 216 OFFCURVE",
"300 216 CURVE SMOOTH",
"318 216 OFFCURVE",
"359 204 OFFCURVE",
"386 189 CURVE SMOOTH",
"404 179 OFFCURVE",
"410 178 OFFCURVE",
"414 178 CURVE SMOOTH",
"416 178 OFFCURVE",
"417 178 OFFCURVE",
"418 178 CURVE SMOOTH",
"422 178 OFFCURVE",
"422 181 OFFCURVE",
"422 184 CURVE SMOOTH",
"422 187 OFFCURVE",
"412 191 OFFCURVE",
"401 200 CURVE SMOOTH",
"390 209 OFFCURVE",
"356 255 OFFCURVE",
"342 270 CURVE SMOOTH",
"328 285 OFFCURVE",
"300 306 OFFCURVE",
"276 313 CURVE",
"300 324 OFFCURVE",
"330 335 OFFCURVE",
"363 335 CURVE SMOOTH",
"396 335 OFFCURVE",
"488 311 OFFCURVE",
"517 311 CURVE SMOOTH",
"541 311 OFFCURVE",
"543 312 OFFCURVE",
"543 315 CURVE SMOOTH",
"543 316 OFFCURVE",
"543 316 OFFCURVE",
"543 317 CURVE SMOOTH",
"543 321 OFFCURVE",
"514 330 OFFCURVE",
"501 336 CURVE SMOOTH",
"488 342 OFFCURVE",
"461 368 OFFCURVE",
"423 398 CURVE SMOOTH",
"419 401 OFFCURVE",
"402 408 OFFCURVE",
"387 411 CURVE",
"416 416 OFFCURVE",
"439 426 OFFCURVE",
"439 430 CURVE SMOOTH",
"439 434 OFFCURVE",
"432 438 OFFCURVE",
"404 445 CURVE",
"431 445 OFFCURVE",
"454 459 OFFCURVE",
"466 459 CURVE SMOOTH",
"496 459 OFFCURVE",
"513 465 OFFCURVE",
"518 465 CURVE SMOOTH",
"523 465 OFFCURVE",
"529 466 OFFCURVE",
"529 472 CURVE SMOOTH",
"529 486 OFFCURVE",
"492 500 OFFCURVE",
"459 509 CURVE",
"486 509 OFFCURVE",
"586 540 OFFCURVE",
"618 548 CURVE SMOOTH",
"650 556 OFFCURVE",
"702 557 OFFCURVE",
"710 557 CURVE SMOOTH",
"714 557 OFFCURVE",
"717 559 OFFCURVE",
"717 561 CURVE SMOOTH",
"717 563 OFFCURVE",
"716 565 OFFCURVE",
"712 567 CURVE",
"649 608 OFFCURVE",
"475 629 OFFCURVE",
"416 629 CURVE SMOOTH",
"410 629 OFFCURVE",
"404 628 OFFCURVE",
"401 628 CURVE",
"411 617 LINE",
"469 635 OFFCURVE",
"562 684 OFFCURVE",
"610 710 CURVE SMOOTH",
"632 722 OFFCURVE",
"645 725 OFFCURVE",
"653 725 CURVE SMOOTH",
"661 725 OFFCURVE",
"667 723 OFFCURVE",
"672 723 CURVE SMOOTH",
"679 723 OFFCURVE",
"684 724 OFFCURVE",
"684 727 CURVE SMOOTH",
"684 728 OFFCURVE",
"683 731 OFFCURVE",
"680 733 CURVE SMOOTH",
"671 739 OFFCURVE",
"605 767 OFFCURVE",
"512 767 CURVE SMOOTH",
"203 767 OFFCURVE",
"50 602 OFFCURVE",
"50 577 CURVE SMOOTH",
"50 558 OFFCURVE",
"58 535 OFFCURVE",
"58 513 CURVE SMOOTH",
"58 467 OFFCURVE",
"19 442 OFFCURVE",
"10 442 CURVE SMOOTH",
"-5 442 LINE",
"-5 157 LINE",
"10 157 LINE SMOOTH",
"21 157 OFFCURVE",
"34 151 OFFCURVE",
"43 143 CURVE SMOOTH",
"55 132 OFFCURVE",
"86 108 OFFCURVE",
"115 108 CURVE SMOOTH"
);
}
);
width = 1000;
}
);
unicode = 0072;
},
{
glyphname = s;
lastChange = "2021-11-23 15:58:29 +0000";
layers = (
{
layerId = "36C34FB4-9C42-4BD9-991C-7B94FED7D558";
paths = (
{
closed = 1;
nodes = (
"503 -196 OFFCURVE",
"504 -192 OFFCURVE",
"504 -184 CURVE SMOOTH",
"504 -178 OFFCURVE",
"503 -169 OFFCURVE",
"503 -158 CURVE SMOOTH",
"503 -132 OFFCURVE",
"513 -120 OFFCURVE",
"518 -120 CURVE SMOOTH",
"523 -120 OFFCURVE",
"517 -152 OFFCURVE",
"525 -152 CURVE SMOOTH",
"533 -152 OFFCURVE",
"542 -116 OFFCURVE",
"547 -100 CURVE SMOOTH",
"550 -91 OFFCURVE",
"553 -85 OFFCURVE",
"557 -85 CURVE SMOOTH",
"559 -85 OFFCURVE",
"561 -87 OFFCURVE",
"562 -91 CURVE SMOOTH",
"565 -100 OFFCURVE",
"567 -104 OFFCURVE",
"569 -104 CURVE SMOOTH",
"572 -104 OFFCURVE",
"573 -91 OFFCURVE",
"577 -73 CURVE SMOOTH",
"581 -55 OFFCURVE",
"587 -36 OFFCURVE",
"597 -26 CURVE SMOOTH",
"617 -7 OFFCURVE",
"644 10 OFFCURVE",
"674 14 CURVE SMOOTH",
"704 18 OFFCURVE",
"816 30 OFFCURVE",
"854 68 CURVE SMOOTH",
"875 89 OFFCURVE",
"883 113 OFFCURVE",
"905 131 CURVE SMOOTH",
"923 147 OFFCURVE",
"949 158 OFFCURVE",
"1000 158 CURVE SMOOTH",
"1010 158 LINE",
"1010 442 LINE",
"1000 442 LINE SMOOTH",
"971 442 OFFCURVE",
"962 444 OFFCURVE",
"949 455 CURVE SMOOTH",
"941 464 OFFCURVE",
"931 473 OFFCURVE",
"919 482 CURVE SMOOTH",
"908 490 OFFCURVE",
"908 515 OFFCURVE",
"908 551 CURVE SMOOTH",
"908 587 OFFCURVE",
"922 642 OFFCURVE",
"938 675 CURVE SMOOTH",
"954 708 OFFCURVE",
"965 740 OFFCURVE",
"965 746 CURVE SMOOTH",
"965 751 OFFCURVE",
"961 755 OFFCURVE",
"956 755 CURVE SMOOTH",
"932 755 OFFCURVE",
"881 707 OFFCURVE",
"840 647 CURVE SMOOTH",
"789 571 OFFCURVE",
"784 560 OFFCURVE",
"770 560 CURVE SMOOTH",
"756 560 OFFCURVE",
"746 578 OFFCURVE",
"746 627 CURVE SMOOTH",
"746 676 OFFCURVE",
"767 704 OFFCURVE",
"781 729 CURVE SMOOTH",
"795 754 OFFCURVE",
"807 766 OFFCURVE",
"807 773 CURVE SMOOTH",
"807 778 OFFCURVE",
"803 782 OFFCURVE",
"799 782 CURVE SMOOTH",
"771 782 OFFCURVE",
"722 739 OFFCURVE",
"687 684 CURVE SMOOTH",
"634 601 OFFCURVE",
"620 518 OFFCURVE",
"605 509 CURVE SMOOTH",
"590 500 OFFCURVE",
"565 483 OFFCURVE",
"536 431 CURVE SMOOTH",
"507 379 OFFCURVE",
"461 287 OFFCURVE",
"388 223 CURVE SMOOTH",
"350 190 OFFCURVE",
"325 173 OFFCURVE",
"305 159 CURVE SMOOTH",
"261 128 OFFCURVE",
"227 94 OFFCURVE",
"227 53 CURVE SMOOTH",
"227 48 OFFCURVE",
"228 44 OFFCURVE",
"229 40 CURVE SMOOTH",
"235 24 OFFCURVE",
"212 -1 OFFCURVE",
"212 -33 CURVE SMOOTH",
"212 -88 OFFCURVE",
"254 -140 OFFCURVE",
"349 -140 CURVE SMOOTH",
"396 -140 OFFCURVE",
"406 -115 OFFCURVE",
"429 -104 CURVE SMOOTH",
"452 -93 OFFCURVE",
"454 -94 OFFCURVE",
"464 -94 CURVE SMOOTH",
"474 -94 OFFCURVE",
"479 -111 OFFCURVE",
"479 -131 CURVE SMOOTH",
"479 -151 OFFCURVE",
"487 -196 OFFCURVE",
"498 -196 CURVE SMOOTH"
);
},
{
closed = 1;
nodes = (
"248 22 OFFCURVE",
"240 33 OFFCURVE",
"240 47 CURVE SMOOTH",
"240 50 OFFCURVE",
"243 52 OFFCURVE",
"247 52 CURVE SMOOTH",
"253 52 OFFCURVE",
"264 36 OFFCURVE",
"264 27 CURVE SMOOTH",
"264 24 OFFCURVE",
"262 22 OFFCURVE",
"259 22 CURVE SMOOTH"
);
},
{
closed = 1;
nodes = (
"332 -1 OFFCURVE",
"329 8 OFFCURVE",
"329 14 CURVE",
"329 28 OFFCURVE",
"375 36 OFFCURVE",
"381 36 CURVE SMOOTH",
"387 36 OFFCURVE",
"392 33 OFFCURVE",
"392 29 CURVE SMOOTH",
"392 17 OFFCURVE",
"360 -1 OFFCURVE",
"346 -1 CURVE SMOOTH"
);
},
{
closed = 1;
nodes = (
"416 254 OFFCURVE",
"414 304 OFFCURVE",
"466 304 CURVE SMOOTH",
"549 304 LINE",
"570 440 LINE",
"494 440 OFFCURVE",
"466 423 OFFCURVE",
"406 379 CURVE SMOOTH",
"353 340 OFFCURVE",
"292 319 OFFCURVE",
"256 319 CURVE SMOOTH",
"245 319 OFFCURVE",
"234 324 OFFCURVE",
"226 324 CURVE SMOOTH",
"218 324 OFFCURVE",
"214 319 OFFCURVE",
"214 313 CURVE SMOOTH",
"214 307 OFFCURVE",
"219 300 OFFCURVE",
"230 300 CURVE SMOOTH",
"241 300 OFFCURVE",
"256 301 OFFCURVE",
"276 288 CURVE SMOOTH",
"296 275 OFFCURVE",
"326 254 OFFCURVE",
"371 254 CURVE SMOOTH"
);
},
{
closed = 1;
nodes = (
"731 198 OFFCURVE",
"702 224 OFFCURVE",
"702 258 CURVE SMOOTH",
"702 298 OFFCURVE",
"733 330 OFFCURVE",
"772 330 CURVE SMOOTH",
"809 330 OFFCURVE",
"838 305 OFFCURVE",
"838 274 CURVE SMOOTH",
"838 231 OFFCURVE",
"807 198 OFFCURVE",
"767 198 CURVE SMOOTH"
);
},
{
closed = 1;
nodes = (
"722 251 OFFCURVE",
"732 240 OFFCURVE",
"745 240 CURVE SMOOTH",
"754 240 OFFCURVE",
"759 246 OFFCURVE",
"765 246 CURVE SMOOTH",
"771 246 OFFCURVE",
"779 238 OFFCURVE",
"792 238 CURVE SMOOTH",
"804 238 OFFCURVE",
"815 248 OFFCURVE",
"815 262 CURVE SMOOTH",
"815 275 OFFCURVE",
"805 286 OFFCURVE",
"792 286 CURVE SMOOTH",
"779 286 OFFCURVE",
"775 281 OFFCURVE",
"768 281 CURVE SMOOTH",
"761 281 OFFCURVE",
"757 288 OFFCURVE",
"745 288 CURVE SMOOTH",
"732 288 OFFCURVE",
"722 278 OFFCURVE",
"722 265 CURVE SMOOTH"
);
},
{
closed = 1;
nodes = (
"950 72 OFFCURVE",
"974 131 OFFCURVE",
"977 149 CURVE SMOOTH",
"979 161 OFFCURVE",
"980 163 OFFCURVE",
"983 163 CURVE SMOOTH",
"985 163 OFFCURVE",
"988 162 OFFCURVE",
"992 162 CURVE",
"993 221 LINE",
"883 250 LINE",
"883 197 OFFCURVE",
"905 186 OFFCURVE",
"920 164 CURVE SMOOTH",
"930 150 OFFCURVE",
"933 129 OFFCURVE",
"933 112 CURVE SMOOTH",
"933 103 OFFCURVE",
"932 95 OFFCURVE",
"931 89 CURVE SMOOTH",
"928 72 OFFCURVE",
"932 72 OFFCURVE",
"941 72 CURVE SMOOTH"
);
}
);
width = 1000;
}
);
unicode = 0073;
},
{
glyphname = t;
lastChange = "2021-10-15 14:30:28 +0000";
layers = (
{
guideLines = (
{
position = "{787, -197}";
}
);
layerId = "36C34FB4-9C42-4BD9-991C-7B94FED7D558";
paths = (
{
closed = 1;
nodes = (
"554 -26 OFFCURVE",
"613 -12 OFFCURVE",
"659 5 CURVE SMOOTH",
"701 20 OFFCURVE",
"732 37 OFFCURVE",
"757 49 CURVE SMOOTH",
"796 67 OFFCURVE",
"845 62 OFFCURVE",
"885 77 CURVE SMOOTH",
"936 97 OFFCURVE",
"952 158 OFFCURVE",
"1000 158 CURVE SMOOTH",
"1010 158 LINE",
"1010 442 LINE",
"1000 442 LINE SMOOTH",
"895 442 OFFCURVE",
"813 472 OFFCURVE",
"813 511 CURVE SMOOTH",
"813 537 OFFCURVE",
"854 541 OFFCURVE",
"854 556 CURVE SMOOTH",
"854 566 OFFCURVE",
"837 574 OFFCURVE",
"816 574 CURVE SMOOTH",
"784 574 OFFCURVE",
"690 550 OFFCURVE",
"646 550 CURVE SMOOTH",
"602 550 OFFCURVE",
"595 580 OFFCURVE",
"595 598 CURVE SMOOTH",
"595 616 OFFCURVE",
"615 627 OFFCURVE",
"625 635 CURVE SMOOTH",
"629 638 OFFCURVE",
"630 641 OFFCURVE",
"630 643 CURVE SMOOTH",
"630 650 OFFCURVE",
"621 655 OFFCURVE",
"609 655 CURVE SMOOTH",
"500 655 OFFCURVE",
"402 529 OFFCURVE",
"338 529 CURVE SMOOTH",
"322 529 OFFCURVE",
"311 538 OFFCURVE",
"311 559 CURVE SMOOTH",
"311 581 OFFCURVE",
"322 598 OFFCURVE",
"322 606 CURVE SMOOTH",
"322 610 OFFCURVE",
"318 614 OFFCURVE",
"313 614 CURVE SMOOTH",
"292 614 OFFCURVE",
"266 584 OFFCURVE",
"207 507 CURVE SMOOTH",
"185 479 OFFCURVE",
"135 435 OFFCURVE",
"104 435 CURVE SMOOTH",
"69 435 OFFCURVE",
"33 442 OFFCURVE",
"0 442 CURVE SMOOTH",
"-10 442 LINE",
"-10 158 LINE",
"0 158 LINE SMOOTH",
"119 158 OFFCURVE",
"178 125 OFFCURVE",
"264 21 CURVE SMOOTH",
"290 -10 OFFCURVE",
"323 -26 OFFCURVE",
"477 -26 CURVE SMOOTH"
);
},
{
closed = 1;
nodes = (
"520 -216 OFFCURVE",
"537 -188 OFFCURVE",
"572 -188 CURVE SMOOTH",
"607 -188 OFFCURVE",
"630 -202 OFFCURVE",
"662 -202 CURVE SMOOTH",
"694 -202 OFFCURVE",
"704 -192 OFFCURVE",
"725 -192 CURVE SMOOTH",
"746 -192 OFFCURVE",
"756 -205 OFFCURVE",
"768 -205 CURVE SMOOTH",
"773 -205 OFFCURVE",
"777 -201 OFFCURVE",
"777 -197 CURVE SMOOTH",
"777 -165 OFFCURVE",
"725 -151 OFFCURVE",
"706 -142 CURVE SMOOTH",
"687 -133 OFFCURVE",
"694 -115 OFFCURVE",
"690 -101 CURVE SMOOTH",
"686 -87 OFFCURVE",
"674 -75 OFFCURVE",
"637 -46 CURVE SMOOTH",
"627 -38 OFFCURVE",
"623 -31 OFFCURVE",
"623 -24 CURVE SMOOTH",
"623 -8 OFFCURVE",
"649 2 OFFCURVE",
"659 5 CURVE",
"421 62 LINE",
"446 44 OFFCURVE",
"466 -7 OFFCURVE",
"486 -29 CURVE SMOOTH",
"506 -51 OFFCURVE",
"520 -48 OFFCURVE",
"520 -85 CURVE SMOOTH",
"520 -120 OFFCURVE",
"505 -148 OFFCURVE",
"489 -148 CURVE SMOOTH",
"461 -148 OFFCURVE",
"454 -138 OFFCURVE",
"454 -129 CURVE SMOOTH",
"454 -120 OFFCURVE",
"454 -104 OFFCURVE",
"436 -104 CURVE SMOOTH",
"388 -104 OFFCURVE",
"259 -170 OFFCURVE",
"259 -197 CURVE SMOOTH",
"259 -203 OFFCURVE",
"263 -207 OFFCURVE",
"268 -207 CURVE SMOOTH",
"291 -207 OFFCURVE",
"336 -180 OFFCURVE",
"372 -180 CURVE SMOOTH",
"408 -180 OFFCURVE",
"412 -216 OFFCURVE",
"466 -216 CURVE SMOOTH"
);
}
);
width = 1000;
}
);
unicode = 0074;
},
{
glyphname = u;
lastChange = "2021-10-15 14:30:18 +0000";
layers = (
{
layerId = "36C34FB4-9C42-4BD9-991C-7B94FED7D558";
paths = (
{
closed = 1;
nodes = (
"533 -195 OFFCURVE",
"626 -81 OFFCURVE",
"626 91 CURVE",
"454 58 LINE",
"454 -8 OFFCURVE",
"415 -47 OFFCURVE",
"377 -47 CURVE SMOOTH",
"339 -47 OFFCURVE",
"328 -16 OFFCURVE",
"328 10 CURVE SMOOTH",
"328 80 OFFCURVE",
"407 114 OFFCURVE",
"621 171 CURVE SMOOTH",
"784 214 OFFCURVE",
"895 304 OFFCURVE",
"895 415 CURVE SMOOTH",
"895 544 OFFCURVE",
"780 565 OFFCURVE",
"780 624 CURVE SMOOTH",
"780 644 OFFCURVE",
"797 662 OFFCURVE",
"823 662 CURVE SMOOTH",
"849 662 OFFCURVE",
"869 651 OFFCURVE",
"880 651 CURVE SMOOTH",
"891 651 OFFCURVE",
"897 653 OFFCURVE",
"897 662 CURVE SMOOTH",
"897 682 OFFCURVE",
"797 732 OFFCURVE",
"673 732 CURVE SMOOTH",
"479 732 OFFCURVE",
"370 642 OFFCURVE",
"370 603 CURVE SMOOTH",
"370 593 OFFCURVE",
"376 586 OFFCURVE",
"386 586 CURVE SMOOTH",
"403 586 OFFCURVE",
"417 607 OFFCURVE",
"447 607 CURVE SMOOTH",
"543 607 OFFCURVE",
"585 529 OFFCURVE",
"616 451 CURVE SMOOTH",
"635 403 OFFCURVE",
"651 402 OFFCURVE",
"657 402 CURVE SMOOTH",
"666 402 OFFCURVE",
"672 408 OFFCURVE",
"672 415 CURVE SMOOTH",
"672 420 OFFCURVE",
"669 426 OFFCURVE",
"664 430 CURVE SMOOTH",
"656 437 OFFCURVE",
"645 452 OFFCURVE",
"645 468 CURVE SMOOTH",
"645 499 OFFCURVE",
"658 522 OFFCURVE",
"700 522 CURVE",
"769 522 OFFCURVE",
"804 474 OFFCURVE",
"804 414 CURVE SMOOTH",
"804 327 OFFCURVE",
"675 286 OFFCURVE",
"544 257 CURVE SMOOTH",
"358 214 OFFCURVE",
"174 124 OFFCURVE",
"174 -12 CURVE SMOOTH",
"174 -119 OFFCURVE",
"238 -195 OFFCURVE",
"370 -195 CURVE SMOOTH"
);
},
{
closed = 1;
nodes = (
"626 91 LINE",
"626 243 OFFCURVE",
"439 449 OFFCURVE",
"188 449 CURVE SMOOTH",
"117 449 OFFCURVE",
"99 441 OFFCURVE",
"65 441 CURVE SMOOTH",
"31 441 OFFCURVE",
"37 442 OFFCURVE",
"0 442 CURVE SMOOTH",
"-10 442 LINE",
"-10 158 LINE",
"0 158 LINE",
"97 158 OFFCURVE",
"140 184 OFFCURVE",
"241 184 CURVE SMOOTH",
"357 184 OFFCURVE",
"454 136 OFFCURVE",
"454 58 CURVE"
);
}
);
width = 1000;
},
{
annotations = (
{
position = "{855, 545}";
type = Arrow;
}
);
associatedMasterId = "36C34FB4-9C42-4BD9-991C-7B94FED7D558";
backgroundImage = {
imagePath = "../AXIS MUNDI/furiae scans/reptile body.jpg";
locked = "1";
transform = "{2.52006, 0, 0, 2.52006, 0, -229}";
};
layerId = "8B9DD4E2-B5B4-4072-9F38-685EE5AEEC7F";
name = "Jun 9 21, 10:46";
paths = (
{
closed = 1;
nodes = (
"888 449 OFFCURVE",
"925 442 OFFCURVE",
"1000 442 CURVE SMOOTH",
"1010 442 LINE",
"1010 158 LINE",
"1000 158 LINE SMOOTH",
"952 158 OFFCURVE",
"936 97 OFFCURVE",
"885 77 CURVE SMOOTH",
"845 62 OFFCURVE",
"796 67 OFFCURVE",
"757 49 CURVE SMOOTH",
"704 24 OFFCURVE",
"622 -26 OFFCURVE",
"477 -26 CURVE SMOOTH",
"323 -26 OFFCURVE",
"290 -10 OFFCURVE",
"264 21 CURVE SMOOTH",
"178 125 OFFCURVE",
"119 158 OFFCURVE",
"0 158 CURVE SMOOTH",
"-10 158 LINE",
"-10 442 LINE",
"0 442 LINE SMOOTH",
"33 442 OFFCURVE",
"69 435 OFFCURVE",
"104 435 CURVE SMOOTH",
"135 435 OFFCURVE",
"185 479 OFFCURVE",
"207 507 CURVE SMOOTH",
"266 584 OFFCURVE",
"292 614 OFFCURVE",
"313 614 CURVE SMOOTH",
"318 614 OFFCURVE",
"322 610 OFFCURVE",
"322 606 CURVE SMOOTH",
"322 598 OFFCURVE",
"311 581 OFFCURVE",
"311 559 CURVE SMOOTH",
"311 538 OFFCURVE",
"322 529 OFFCURVE",
"338 529 CURVE SMOOTH",
"402 529 OFFCURVE",
"500 655 OFFCURVE",
"609 655 CURVE SMOOTH",
"619 655 OFFCURVE",
"630 651 OFFCURVE",
"630 643 CURVE SMOOTH",
"630 641 OFFCURVE",
"629 638 OFFCURVE",
"625 635 CURVE SMOOTH",
"615 627 OFFCURVE",
"595 616 OFFCURVE",
"595 598 CURVE SMOOTH",
"595 580 OFFCURVE",
"602 550 OFFCURVE",
"646 550 CURVE SMOOTH",
"690 550 OFFCURVE",
"784 574 OFFCURVE",
"816 574 CURVE SMOOTH",
"837 574 OFFCURVE",
"854 566 OFFCURVE",
"854 556 CURVE SMOOTH",
"854 541 OFFCURVE",
"813 537 OFFCURVE",
"813 511 CURVE SMOOTH",
"813 495 OFFCURVE",
"821 486 OFFCURVE",
"831 480 CURVE SMOOTH"
);
},
{
closed = 1;
nodes = (
"610 38 OFFCURVE",
"600 -17 OFFCURVE",
"637 -46 CURVE SMOOTH",
"674 -75 OFFCURVE",
"686 -87 OFFCURVE",
"690 -101 CURVE SMOOTH",
"694 -115 OFFCURVE",
"687 -133 OFFCURVE",
"706 -142 CURVE SMOOTH",
"725 -151 OFFCURVE",
"776 -166 OFFCURVE",
"776 -198 CURVE SMOOTH",
"776 -205 OFFCURVE",
"770 -205 OFFCURVE",
"768 -205 CURVE SMOOTH",
"766 -205 OFFCURVE",
"746 -192 OFFCURVE",
"725 -192 CURVE SMOOTH",
"704 -192 OFFCURVE",
"694 -202 OFFCURVE",
"662 -202 CURVE SMOOTH",
"630 -202 OFFCURVE",
"607 -188 OFFCURVE",
"572 -188 CURVE SMOOTH",
"537 -188 OFFCURVE",
"520 -216 OFFCURVE",
"466 -216 CURVE SMOOTH",
"412 -216 OFFCURVE",
"408 -180 OFFCURVE",
"372 -180 CURVE SMOOTH",
"336 -180 OFFCURVE",
"288 -207 OFFCURVE",
"265 -207 CURVE SMOOTH",
"264 -207 OFFCURVE",
"263 -206 OFFCURVE",
"263 -205 CURVE SMOOTH",
"263 -194 OFFCURVE",
"365 -104 OFFCURVE",
"436 -104 CURVE SMOOTH",
"454 -104 OFFCURVE",
"454 -120 OFFCURVE",
"454 -129 CURVE SMOOTH",
"454 -138 OFFCURVE",
"461 -148 OFFCURVE",
"489 -148 CURVE SMOOTH",
"505 -148 OFFCURVE",
"520 -120 OFFCURVE",
"520 -85 CURVE SMOOTH",
"520 -48 OFFCURVE",
"506 -51 OFFCURVE",
"486 -29 CURVE SMOOTH",
"466 -7 OFFCURVE",
"446 44 OFFCURVE",
"421 62 CURVE",
"619 62 LINE"
);
}
);
width = 1000;
}
);
unicode = 0075;
},
{
glyphname = v;
lastChange = "2021-10-15 14:30:28 +0000";
layers = (
{
backgroundImage = {
imagePath = "20210629_162849.jpg";
locked = "1";
transform = "{0.33422, 0, 0, 0.33422, 0, -200}";
};
guideLines = (
{
position = "{1029, 158}";
},
{
position = "{-34, 442}";
}
);
layerId = "36C34FB4-9C42-4BD9-991C-7B94FED7D558";
paths = (
{
closed = 1;
nodes = (
"509 -170 OFFCURVE",
"623 -95 OFFCURVE",
"623 58 CURVE SMOOTH",
"623 87 OFFCURVE",
"614 95 OFFCURVE",
"614 124 CURVE SMOOTH",
"614 141 OFFCURVE",
"634 163 OFFCURVE",
"650 163 CURVE SMOOTH",
"662 163 OFFCURVE",
"672 152 OFFCURVE",
"672 120 CURVE SMOOTH",
"672 103 OFFCURVE",
"662 75 OFFCURVE",
"662 30 CURVE SMOOTH",
"662 -41 OFFCURVE",
"700 -95 OFFCURVE",
"751 -95 CURVE SMOOTH",
"761 -95 OFFCURVE",
"767 -87 OFFCURVE",
"767 -79 CURVE SMOOTH",
"767 -72 OFFCURVE",
"762 -66 OFFCURVE",
"752 -66 CURVE SMOOTH",
"742 -66 OFFCURVE",
"735 -59 OFFCURVE",
"735 -49 CURVE SMOOTH",
"735 -42 OFFCURVE",
"738 -32 OFFCURVE",
"743 -24 CURVE SMOOTH",
"755 -5 OFFCURVE",
"773 16 OFFCURVE",
"773 46 CURVE SMOOTH",
"773 112 OFFCURVE",
"706 109 OFFCURVE",
"706 166 CURVE SMOOTH",
"706 192 OFFCURVE",
"724 207 OFFCURVE",
"749 207 CURVE SMOOTH",
"772 207 OFFCURVE",
"844 185 OFFCURVE",
"844 120 CURVE SMOOTH",
"844 93 OFFCURVE",
"838 72 OFFCURVE",
"838 48 CURVE SMOOTH",
"838 -48 OFFCURVE",
"912 -127 OFFCURVE",
"975 -127 CURVE SMOOTH",
"985 -127 OFFCURVE",
"990 -120 OFFCURVE",
"990 -114 CURVE SMOOTH",
"990 -110 OFFCURVE",
"989 -107 OFFCURVE",
"985 -105 CURVE SMOOTH",
"975 -100 OFFCURVE",
"959 -91 OFFCURVE",
"959 -66 CURVE SMOOTH",
"959 -41 OFFCURVE",
"982 -41 OFFCURVE",
"982 22 CURVE SMOOTH",
"982 78 OFFCURVE",
"941 114 OFFCURVE",
"902 138 CURVE SMOOTH",
"878 153 OFFCURVE",
"854 177 OFFCURVE",
"854 193 CURVE SMOOTH",
"854 202 OFFCURVE",
"863 209 OFFCURVE",
"885 209 CURVE SMOOTH",
"919 209 OFFCURVE",
"952 158 OFFCURVE",
"1000 158 CURVE SMOOTH",
"1010 158 LINE",
"1010 442 LINE",
"1000 442 LINE SMOOTH",
"927 442 OFFCURVE",
"917 376 OFFCURVE",
"880 376 CURVE SMOOTH",
"865 376 OFFCURVE",
"855 388 OFFCURVE",
"855 406 CURVE SMOOTH",
"855 442 OFFCURVE",
"938 486 OFFCURVE",
"938 575 CURVE SMOOTH",
"938 620 OFFCURVE",
"925 650 OFFCURVE",
"925 678 CURVE SMOOTH",
"925 707 OFFCURVE",
"939 729 OFFCURVE",
"957 729 CURVE SMOOTH",
"967 729 OFFCURVE",
"971 735 OFFCURVE",
"971 741 CURVE SMOOTH",
"971 748 OFFCURVE",
"966 755 OFFCURVE",
"958 755 CURVE SMOOTH",
"867 755 OFFCURVE",
"796 682 OFFCURVE",
"796 590 CURVE SMOOTH",
"796 533 OFFCURVE",
"821 495 OFFCURVE",
"821 437 CURVE SMOOTH",
"821 379 OFFCURVE",
"792 344 OFFCURVE",
"771 344 CURVE SMOOTH",
"750 344 OFFCURVE",
"736 358 OFFCURVE",
"736 378 CURVE SMOOTH",
"736 398 OFFCURVE",
"771 420 OFFCURVE",
"771 459 CURVE SMOOTH",
"771 497 OFFCURVE",
"748 511 OFFCURVE",
"728 523 CURVE SMOOTH",
"712 533 OFFCURVE",
"698 542 OFFCURVE",
"698 559 CURVE SMOOTH",
"698 575 OFFCURVE",
"707 584 OFFCURVE",
"707 593 CURVE SMOOTH",
"707 601 OFFCURVE",
"703 605 OFFCURVE",
"697 605 CURVE SMOOTH",
"671 605 OFFCURVE",
"657 551 OFFCURVE",
"657 511 CURVE SMOOTH",
"657 455 OFFCURVE",
"695 418 OFFCURVE",
"695 389 CURVE SMOOTH",
"695 360 OFFCURVE",
"683 347 OFFCURVE",
"657 347 CURVE SMOOTH",
"618 347 OFFCURVE",
"608 372 OFFCURVE",
"608 401 CURVE SMOOTH",
"608 430 OFFCURVE",
"622 461 OFFCURVE",
"622 510 CURVE SMOOTH",
"622 619 OFFCURVE",
"539 705 OFFCURVE",
"433 705 CURVE SMOOTH",
"354 705 OFFCURVE",
"295 662 OFFCURVE",
"240 662 CURVE SMOOTH",
"195 662 OFFCURVE",
"203 702 OFFCURVE",
"183 702 CURVE SMOOTH",
"175 702 OFFCURVE",
"169 695 OFFCURVE",
"169 681 CURVE SMOOTH",
"169 637 OFFCURVE",
"229 615 OFFCURVE",
"285 615 CURVE SMOOTH",
"381 615 OFFCURVE",
"466 540 OFFCURVE",
"466 451 CURVE SMOOTH",
"466 379 OFFCURVE",
"465 331 OFFCURVE",
"523 314 CURVE SMOOTH",
"552 305 OFFCURVE",
"559 293 OFFCURVE",
"559 281 CURVE SMOOTH",
"559 272 OFFCURVE",
"553 266 OFFCURVE",
"541 266 CURVE SMOOTH",
"519 266 OFFCURVE",
"487 289 OFFCURVE",
"427 377 CURVE SMOOTH",
"364 469 OFFCURVE",
"303 516 OFFCURVE",
"224 516 CURVE SMOOTH",
"126 516 OFFCURVE",
"37 471 OFFCURVE",
"37 431 CURVE SMOOTH",
"37 421 OFFCURVE",
"43 414 OFFCURVE",
"52 414 CURVE SMOOTH",
"70 414 OFFCURVE",
"78 442 OFFCURVE",
"119 442 CURVE SMOOTH",
"168 442 OFFCURVE",
"225 390 OFFCURVE",
"257 334 CURVE SMOOTH",
"303 252 OFFCURVE",
"340 195 OFFCURVE",
"418 195 CURVE SMOOTH",
"458 195 OFFCURVE",
"493 232 OFFCURVE",
"510 232 CURVE SMOOTH",
"522 232 OFFCURVE",
"529 226 OFFCURVE",
"529 216 CURVE SMOOTH",
"529 209 OFFCURVE",
"525 200 OFFCURVE",
"517 190 CURVE SMOOTH",
"503 172 OFFCURVE",
"476 153 OFFCURVE",
"429 153 CURVE SMOOTH",
"363 153 OFFCURVE",
"307 201 OFFCURVE",
"235 201 CURVE SMOOTH",
"163 201 OFFCURVE",
"86 163 OFFCURVE",
"86 112 CURVE SMOOTH",
"86 99 OFFCURVE",
"92 92 OFFCURVE",
"99 92 CURVE SMOOTH",
"126 92 OFFCURVE",
"126 133 OFFCURVE",
"157 133 CURVE SMOOTH",
"220 133 OFFCURVE",
"272 7 OFFCURVE",
"369 7 CURVE SMOOTH",
"478 7 OFFCURVE",
"523 167 OFFCURVE",
"569 167 CURVE SMOOTH",
"580 167 OFFCURVE",
"585 160 OFFCURVE",
"585 151 CURVE SMOOTH",
"585 90 OFFCURVE",
"499 68 OFFCURVE",
"465 6 CURVE SMOOTH",
"455 -13 OFFCURVE",
"450 -39 OFFCURVE",
"443 -62 CURVE SMOOTH",
"432 -106 OFFCURVE",
"394 -143 OFFCURVE",
"361 -143 CURVE SMOOTH",
"349 -143 OFFCURVE",
"343 -150 OFFCURVE",
"343 -157 CURVE SMOOTH",
"343 -163 OFFCURVE",
"349 -170 OFFCURVE",
"361 -170 CURVE SMOOTH"
);
}
);
width = 1000;
},
{
associatedMasterId = "36C34FB4-9C42-4BD9-991C-7B94FED7D558";
backgroundImage = {
imagePath = "20210629_162849.jpg";
locked = "1";
transform = "{0.33422, 0, 0, 0.33422, 0, -200}";
};
guideLines = (
{
position = "{1029, 158}";
},
{
position = "{-34, 442}";
}
);
layerId = "076C4CCA-599D-4E64-AEC8-7F013F9CCAD2";
name = "Oct 8 21, 14:37";
paths = (
{
closed = 1;
nodes = (
"967 157 OFFCURVE",
"919 179 OFFCURVE",
"885 179 CURVE SMOOTH",
"826 179 OFFCURVE",
"863 132 OFFCURVE",
"902 108 CURVE SMOOTH",
"941 84 OFFCURVE",
"982 48 OFFCURVE",
"982 -8 CURVE SMOOTH",
"982 -71 OFFCURVE",
"959 -71 OFFCURVE",
"959 -96 CURVE SMOOTH",
"959 -121 OFFCURVE",
"975 -130 OFFCURVE",
"985 -135 CURVE SMOOTH",
"995 -140 OFFCURVE",
"990 -157 OFFCURVE",
"975 -157 CURVE SMOOTH",
"912 -157 OFFCURVE",
"838 -78 OFFCURVE",
"838 18 CURVE SMOOTH",
"838 42 OFFCURVE",
"844 63 OFFCURVE",
"844 90 CURVE SMOOTH",
"844 155 OFFCURVE",
"772 177 OFFCURVE",
"749 177 CURVE SMOOTH",
"724 177 OFFCURVE",
"706 162 OFFCURVE",
"706 136 CURVE SMOOTH",
"706 78 OFFCURVE",
"776 82 OFFCURVE",
"773 12 CURVE SMOOTH",
"772 -16 OFFCURVE",
"754 -36 OFFCURVE",
"743 -54 CURVE SMOOTH",
"738 -62 OFFCURVE",
"735 -72 OFFCURVE",
"735 -79 CURVE SMOOTH",
"735 -89 OFFCURVE",
"742 -96 OFFCURVE",
"752 -96 CURVE SMOOTH",
"762 -96 OFFCURVE",
"767 -102 OFFCURVE",
"767 -109 CURVE SMOOTH",
"767 -117 OFFCURVE",
"761 -125 OFFCURVE",
"751 -125 CURVE SMOOTH",
"700 -125 OFFCURVE",
"662 -71 OFFCURVE",
"662 0 CURVE SMOOTH",
"662 45 OFFCURVE",
"672 73 OFFCURVE",
"672 90 CURVE SMOOTH",
"672 122 OFFCURVE",
"662 133 OFFCURVE",
"650 133 CURVE SMOOTH",
"634 133 OFFCURVE",
"614 111 OFFCURVE",
"614 94 CURVE SMOOTH",
"614 65 OFFCURVE",
"623 57 OFFCURVE",
"623 28 CURVE SMOOTH",
"623 -125 OFFCURVE",
"509 -200 OFFCURVE",
"361 -200 CURVE SMOOTH",
"349 -200 OFFCURVE",
"343 -193 OFFCURVE",
"343 -187 CURVE SMOOTH",
"343 -180 OFFCURVE",
"349 -173 OFFCURVE",
"361 -173 CURVE SMOOTH",
"376 -173 OFFCURVE",
"394 -158 OFFCURVE",
"419 -142 CURVE SMOOTH",
"444 -126 OFFCURVE",
"445 -61 OFFCURVE",
"465 -24 CURVE SMOOTH",
"499 38 OFFCURVE",
"585 60 OFFCURVE",
"585 121 CURVE SMOOTH",
"585 130 OFFCURVE",
"580 137 OFFCURVE",
"569 137 CURVE SMOOTH",
"523 137 OFFCURVE",
"478 -23 OFFCURVE",
"369 -23 CURVE SMOOTH",
"272 -23 OFFCURVE",
"220 103 OFFCURVE",
"157 103 CURVE SMOOTH",
"128 103 OFFCURVE",
"123 62 OFFCURVE",
"99 62 CURVE SMOOTH",
"92 62 OFFCURVE",
"86 69 OFFCURVE",
"86 82 CURVE SMOOTH",
"86 133 OFFCURVE",
"163 171 OFFCURVE",
"235 171 CURVE SMOOTH",
"307 171 OFFCURVE",
"363 123 OFFCURVE",
"429 123 CURVE SMOOTH",
"476 123 OFFCURVE",
"503 142 OFFCURVE",
"517 160 CURVE SMOOTH",
"525 170 OFFCURVE",
"529 179 OFFCURVE",
"529 186 CURVE SMOOTH",
"529 196 OFFCURVE",
"522 202 OFFCURVE",
"510 202 CURVE SMOOTH",
"493 202 OFFCURVE",
"458 165 OFFCURVE",
"418 165 CURVE SMOOTH",
"340 165 OFFCURVE",
"303 222 OFFCURVE",
"257 304 CURVE SMOOTH",
"225 360 OFFCURVE",
"168 412 OFFCURVE",
"119 412 CURVE SMOOTH",
"88 412 OFFCURVE",
"70 384 OFFCURVE",
"52 384 CURVE SMOOTH",
"43 384 OFFCURVE",
"37 391 OFFCURVE",
"37 401 CURVE SMOOTH",
"37 435 OFFCURVE",
"139 484 OFFCURVE",
"246 484 CURVE SMOOTH",
"313 484 OFFCURVE",
"367 435 OFFCURVE",
"427 347 CURVE SMOOTH",
"487 259 OFFCURVE",
"519 236 OFFCURVE",
"541 236 CURVE SMOOTH",
"553 236 OFFCURVE",
"559 242 OFFCURVE",
"559 251 CURVE SMOOTH",
"559 263 OFFCURVE",
"552 275 OFFCURVE",
"523 284 CURVE SMOOTH",
"465 301 OFFCURVE",
"466 349 OFFCURVE",
"466 421 CURVE SMOOTH",
"466 510 OFFCURVE",
"381 585 OFFCURVE",
"285 585 CURVE SMOOTH",
"229 585 OFFCURVE",
"169 607 OFFCURVE",
"169 651 CURVE SMOOTH",
"169 665 OFFCURVE",
"175 672 OFFCURVE",
"183 672 CURVE SMOOTH",
"203 672 OFFCURVE",
"195 632 OFFCURVE",
"240 632 CURVE SMOOTH",
"295 632 OFFCURVE",
"354 675 OFFCURVE",
"433 675 CURVE SMOOTH",
"552 675 OFFCURVE",
"622 579 OFFCURVE",
"622 480 CURVE SMOOTH",
"622 411 OFFCURVE",
"608 400 OFFCURVE",
"608 371 CURVE SMOOTH",
"608 342 OFFCURVE",
"618 317 OFFCURVE",
"657 317 CURVE SMOOTH",
"683 317 OFFCURVE",
"695 330 OFFCURVE",
"695 359 CURVE SMOOTH",
"695 388 OFFCURVE",
"657 425 OFFCURVE",
"657 481 CURVE SMOOTH",
"657 521 OFFCURVE",
"671 575 OFFCURVE",
"697 575 CURVE SMOOTH",
"703 575 OFFCURVE",
"707 571 OFFCURVE",
"707 563 CURVE SMOOTH",
"707 554 OFFCURVE",
"698 545 OFFCURVE",
"698 529 CURVE SMOOTH",
"698 489 OFFCURVE",
"771 468 OFFCURVE",
"771 429 CURVE SMOOTH",
"771 390 OFFCURVE",
"736 368 OFFCURVE",
"736 348 CURVE SMOOTH",
"736 328 OFFCURVE",
"750 314 OFFCURVE",
"771 314 CURVE SMOOTH",
"792 314 OFFCURVE",
"821 349 OFFCURVE",
"821 407 CURVE SMOOTH",
"821 465 OFFCURVE",
"796 503 OFFCURVE",
"796 560 CURVE SMOOTH",
"796 617 OFFCURVE",
"875 725 OFFCURVE",
"958 725 CURVE SMOOTH",
"966 725 OFFCURVE",
"971 718 OFFCURVE",
"971 711 CURVE SMOOTH",
"971 705 OFFCURVE",
"967 699 OFFCURVE",
"957 699 CURVE SMOOTH",
"939 699 OFFCURVE",
"925 677 OFFCURVE",
"925 648 CURVE SMOOTH",
"925 620 OFFCURVE",
"938 590 OFFCURVE",
"938 545 CURVE SMOOTH",
"938 500 OFFCURVE",
"855 412 OFFCURVE",
"855 376 CURVE SMOOTH",
"855 358 OFFCURVE",
"865 346 OFFCURVE",
"880 346 CURVE SMOOTH",
"917 346 OFFCURVE",
"928 441 OFFCURVE",
"1001 441 CURVE",
"999 157 LINE"
);
}
);
width = 1000;
}
);
unicode = 0076;
},
{
glyphname = w;
lastChange = "2021-10-15 14:30:28 +0000";
layers = (
{
layerId = "36C34FB4-9C42-4BD9-991C-7B94FED7D558";
paths = (
{
closed = 1;
nodes = (
"614 -191 OFFCURVE",
"725 -184 OFFCURVE",
"793 -83 CURVE SMOOTH",
"852 0 OFFCURVE",
"831 44 OFFCURVE",
"872 88 CURVE SMOOTH",
"912 130 OFFCURVE",
"944 158 OFFCURVE",
"990 158 CURVE SMOOTH",
"1010 158 LINE",
"1010 442 LINE",
"990 442 LINE SMOOTH",
"936 442 OFFCURVE",
"905 421 OFFCURVE",
"862 421 CURVE SMOOTH",
"844 421 OFFCURVE",
"832 428 OFFCURVE",
"832 452 CURVE SMOOTH",
"832 476 OFFCURVE",
"854 492 OFFCURVE",
"854 553 CURVE SMOOTH",
"854 614 OFFCURVE",
"794 786 OFFCURVE",
"564 786 CURVE SMOOTH",
"527 786 OFFCURVE",
"511 775 OFFCURVE",
"511 765 CURVE SMOOTH",
"511 758 OFFCURVE",
"521 751 OFFCURVE",
"538 751 CURVE SMOOTH",
"554 751 OFFCURVE",
"584 731 OFFCURVE",
"613 655 CURVE SMOOTH",
"642 579 OFFCURVE",
"679 517 OFFCURVE",
"772 478 CURVE SMOOTH",
"792 470 OFFCURVE",
"800 459 OFFCURVE",
"800 447 CURVE SMOOTH",
"800 436 OFFCURVE",
"792 428 OFFCURVE",
"781 428 CURVE SMOOTH",
"725 428 OFFCURVE",
"596 580 OFFCURVE",
"401 580 CURVE SMOOTH",
"360 580 OFFCURVE",
"338 576 OFFCURVE",
"307 576 CURVE SMOOTH",
"266 576 OFFCURVE",
"233 611 OFFCURVE",
"207 649 CURVE SMOOTH",
"181 687 OFFCURVE",
"143 743 OFFCURVE",
"67 743 CURVE SMOOTH",
"24 743 OFFCURVE",
"6 730 OFFCURVE",
"6 718 CURVE SMOOTH",
"6 711 OFFCURVE",
"15 704 OFFCURVE",
"30 704 CURVE SMOOTH",
"41 704 OFFCURVE",
"57 693 OFFCURVE",
"65 665 CURVE SMOOTH",
"73 637 OFFCURVE",
"80 561 OFFCURVE",
"164 561 CURVE SMOOTH",
"206 561 OFFCURVE",
"214 566 OFFCURVE",
"239 566 CURVE SMOOTH",
"264 566 OFFCURVE",
"301 554 OFFCURVE",
"301 532 CURVE SMOOTH",
"301 522 OFFCURVE",
"294 517 OFFCURVE",
"285 517 CURVE SMOOTH",
"276 517 OFFCURVE",
"267 525 OFFCURVE",
"255 525 CURVE SMOOTH",
"187 525 OFFCURVE",
"162 435 OFFCURVE",
"61 435 CURVE SMOOTH",
"41 435 OFFCURVE",
"23 442 OFFCURVE",
"10 442 CURVE SMOOTH",
"-10 442 LINE",
"-10 158 LINE",
"10 158 LINE SMOOTH",
"40 158 OFFCURVE",
"44 146 OFFCURVE",
"79 146 CURVE SMOOTH",
"114 146 OFFCURVE",
"134 184 OFFCURVE",
"156 184 CURVE SMOOTH",
"164 184 OFFCURVE",
"168 175 OFFCURVE",
"168 166 CURVE SMOOTH",
"168 105 OFFCURVE",
"64 73 OFFCURVE",
"64 -8 CURVE SMOOTH",
"64 -49 OFFCURVE",
"91 -78 OFFCURVE",
"106 -104 CURVE SMOOTH",
"117 -124 OFFCURVE",
"118 -143 OFFCURVE",
"130 -143 CURVE SMOOTH",
"142 -143 OFFCURVE",
"141 -126 OFFCURVE",
"145 -108 CURVE SMOOTH",
"155 -64 OFFCURVE",
"199 -48 OFFCURVE",
"199 -3 CURVE SMOOTH",
"199 26 OFFCURVE",
"190 80 OFFCURVE",
"190 102 CURVE SMOOTH",
"190 197 OFFCURVE",
"324 274 OFFCURVE",
"423 274 CURVE SMOOTH",
"435 274 OFFCURVE",
"442 269 OFFCURVE",
"442 262 CURVE SMOOTH",
"442 253 OFFCURVE",
"433 241 OFFCURVE",
"413 231 CURVE SMOOTH",
"288 166 OFFCURVE",
"265 109 OFFCURVE",
"265 25 CURVE SMOOTH",
"265 -5 OFFCURVE",
"270 -39 OFFCURVE",
"270 -78 CURVE SMOOTH",
"270 -114 OFFCURVE",
"242 -131 OFFCURVE",
"242 -158 CURVE SMOOTH",
"242 -167 OFFCURVE",
"246 -172 OFFCURVE",
"252 -172 CURVE SMOOTH",
"271 -172 OFFCURVE",
"276 -143 OFFCURVE",
"303 -134 CURVE SMOOTH",
"376 -110 OFFCURVE",
"495 -61 OFFCURVE",
"495 43 CURVE SMOOTH",
"495 107 OFFCURVE",
"450 147 OFFCURVE",
"450 189 CURVE SMOOTH",
"450 233 OFFCURVE",
"493 267 OFFCURVE",
"548 267 CURVE SMOOTH",
"630 267 OFFCURVE",
"736 164 OFFCURVE",
"804 164 CURVE SMOOTH",
"821 164 OFFCURVE",
"849 174 OFFCURVE",
"862 174 CURVE SMOOTH",
"874 174 OFFCURVE",
"883 166 OFFCURVE",
"883 156 CURVE SMOOTH",
"883 127 OFFCURVE",
"833 92 OFFCURVE",
"792 92 CURVE SMOOTH",
"673 92 OFFCURVE",
"599 53 OFFCURVE",
"556 -54 CURVE SMOOTH",
"537 -103 OFFCURVE",
"535 -148 OFFCURVE",
"514 -148 CURVE SMOOTH",
"496 -148 OFFCURVE",
"486 -156 OFFCURVE",
"486 -166 CURVE SMOOTH",
"486 -179 OFFCURVE",
"505 -191 OFFCURVE",
"551 -191 CURVE SMOOTH"
);
}
);
width = 1000;
},
{
associatedMasterId = "36C34FB4-9C42-4BD9-991C-7B94FED7D558";
layerId = "09ACA575-CC22-4B3A-9452-D3F728C272FE";
name = "Oct 5 21, 11:23";
paths = (
{
closed = 1;
nodes = (
"30 158 OFFCURVE",
"34 146 OFFCURVE",
"69 146 CURVE SMOOTH",
"124 146 OFFCURVE",
"134 184 OFFCURVE",
"156 184 CURVE SMOOTH",
"164 184 OFFCURVE",
"168 175 OFFCURVE",
"168 166 CURVE SMOOTH",
"168 105 OFFCURVE",
"64 73 OFFCURVE",
"64 -8 CURVE SMOOTH",
"64 -49 OFFCURVE",
"91 -78 OFFCURVE",
"106 -104 CURVE SMOOTH",
"117 -124 OFFCURVE",
"118 -143 OFFCURVE",
"130 -143 CURVE SMOOTH",
"142 -143 OFFCURVE",
"141 -126 OFFCURVE",
"145 -108 CURVE SMOOTH",
"155 -64 OFFCURVE",
"199 -48 OFFCURVE",
"199 -3 CURVE SMOOTH",
"199 44 OFFCURVE",
"187 88 OFFCURVE",
"187 115 CURVE SMOOTH",
"187 142 OFFCURVE",
"233 198 OFFCURVE",
"272 223 CURVE SMOOTH",
"311 248 OFFCURVE",
"319 235 OFFCURVE",
"344 250 CURVE SMOOTH",
"369 265 OFFCURVE",
"417 304 OFFCURVE",
"455 304 CURVE SMOOTH",
"476 304 OFFCURVE",
"479 296 OFFCURVE",
"479 287 CURVE SMOOTH",
"479 278 OFFCURVE",
"467 269 OFFCURVE",
"420 250 CURVE SMOOTH",
"373 231 OFFCURVE",
"273 150 OFFCURVE",
"273 32 CURVE SMOOTH",
"273 -52 OFFCURVE",
"271 -95 OFFCURVE",
"262 -111 CURVE SMOOTH",
"253 -127 OFFCURVE",
"242 -147 OFFCURVE",
"242 -158 CURVE SMOOTH",
"242 -167 OFFCURVE",
"246 -172 OFFCURVE",
"252 -172 CURVE SMOOTH",
"271 -172 OFFCURVE",
"276 -143 OFFCURVE",
"303 -134 CURVE SMOOTH",
"376 -110 OFFCURVE",
"495 -61 OFFCURVE",
"495 43 CURVE SMOOTH",
"495 107 OFFCURVE",
"450 147 OFFCURVE",
"450 189 CURVE SMOOTH",
"450 233 OFFCURVE",
"493 267 OFFCURVE",
"548 267 CURVE SMOOTH",
"630 267 OFFCURVE",
"736 164 OFFCURVE",
"804 164 CURVE SMOOTH",
"821 164 OFFCURVE",
"849 174 OFFCURVE",
"862 174 CURVE SMOOTH",
"874 174 OFFCURVE",
"883 166 OFFCURVE",
"883 156 CURVE SMOOTH",
"883 127 OFFCURVE",
"833 92 OFFCURVE",
"792 92 CURVE SMOOTH",
"742 92 OFFCURVE",
"670 96 OFFCURVE",
"602 22 CURVE SMOOTH",
"534 -52 OFFCURVE",
"545 -144 OFFCURVE",
"514 -144 CURVE SMOOTH",
"496 -144 OFFCURVE",
"486 -152 OFFCURVE",
"486 -162 CURVE SMOOTH",
"486 -175 OFFCURVE",
"505 -191 OFFCURVE",
"551 -191 CURVE SMOOTH",
"614 -191 OFFCURVE",
"725 -184 OFFCURVE",
"793 -83 CURVE SMOOTH",
"852 0 OFFCURVE",
"831 44 OFFCURVE",
"872 88 CURVE SMOOTH",
"912 130 OFFCURVE",
"947 158 OFFCURVE",
"1000 158 CURVE SMOOTH",
"1010 158 LINE",
"1010 442 LINE",
"985 442 LINE SMOOTH",
"939 442 OFFCURVE",
"905 421 OFFCURVE",
"862 421 CURVE SMOOTH",
"844 421 OFFCURVE",
"832 428 OFFCURVE",
"832 452 CURVE SMOOTH",
"832 476 OFFCURVE",
"854 492 OFFCURVE",
"854 553 CURVE SMOOTH",
"854 614 OFFCURVE",
"794 786 OFFCURVE",
"564 786 CURVE SMOOTH",
"527 786 OFFCURVE",
"511 775 OFFCURVE",
"511 765 CURVE SMOOTH",
"511 758 OFFCURVE",
"521 751 OFFCURVE",
"538 751 CURVE SMOOTH",
"554 751 OFFCURVE",
"584 731 OFFCURVE",
"613 655 CURVE SMOOTH",
"642 579 OFFCURVE",
"679 517 OFFCURVE",
"772 478 CURVE SMOOTH",
"792 470 OFFCURVE",
"800 459 OFFCURVE",
"800 447 CURVE SMOOTH",
"800 436 OFFCURVE",
"792 428 OFFCURVE",
"781 428 CURVE SMOOTH",
"725 428 OFFCURVE",
"596 580 OFFCURVE",
"401 580 CURVE SMOOTH",
"360 580 OFFCURVE",
"338 576 OFFCURVE",
"307 576 CURVE SMOOTH",
"266 576 OFFCURVE",
"233 611 OFFCURVE",
"207 649 CURVE SMOOTH",
"181 687 OFFCURVE",
"143 743 OFFCURVE",
"67 743 CURVE SMOOTH",
"24 743 OFFCURVE",
"6 730 OFFCURVE",
"6 718 CURVE SMOOTH",
"6 711 OFFCURVE",
"15 704 OFFCURVE",
"30 704 CURVE SMOOTH",
"41 704 OFFCURVE",
"57 693 OFFCURVE",
"65 665 CURVE SMOOTH",
"73 637 OFFCURVE",
"80 561 OFFCURVE",
"164 561 CURVE SMOOTH",
"206 561 OFFCURVE",
"214 566 OFFCURVE",
"239 566 CURVE SMOOTH",
"264 566 OFFCURVE",
"301 554 OFFCURVE",
"301 532 CURVE SMOOTH",
"301 522 OFFCURVE",
"294 517 OFFCURVE",
"285 517 CURVE SMOOTH",
"276 517 OFFCURVE",
"267 525 OFFCURVE",
"255 525 CURVE SMOOTH",
"187 525 OFFCURVE",
"152 435 OFFCURVE",
"51 435 CURVE SMOOTH",
"31 435 OFFCURVE",
"13 442 OFFCURVE",
"0 442 CURVE SMOOTH",
"-10 442 LINE",
"-10 158 LINE",
"0 158 LINE SMOOTH"
);
}
);
width = 1000;
}
);
unicode = 0077;
},
{
glyphname = x;
lastChange = "2021-10-15 14:30:28 +0000";
layers = (
{
guideLines = (
{
angle = 90;
position = "{820, 919}";
}
);
layerId = "36C34FB4-9C42-4BD9-991C-7B94FED7D558";
paths = (
{
closed = 1;
nodes = (
"595 -192 OFFCURVE",
"598 -188 OFFCURVE",
"598 -184 CURVE SMOOTH",
"598 -180 OFFCURVE",
"595 -176 OFFCURVE",
"589 -176 CURVE SMOOTH",
"577 -176 OFFCURVE",
"542 -158 OFFCURVE",
"542 -123 CURVE SMOOTH",
"542 -108 OFFCURVE",
"548 -99 OFFCURVE",
"564 -99 CURVE SMOOTH",
"580 -99 OFFCURVE",
"594 -105 OFFCURVE",
"609 -105 CURVE SMOOTH",
"624 -105 OFFCURVE",
"642 -96 OFFCURVE",
"662 -96 CURVE SMOOTH",
"682 -96 OFFCURVE",
"702 -128 OFFCURVE",
"736 -128 CURVE SMOOTH",
"745 -128 OFFCURVE",
"750 -123 OFFCURVE",
"750 -118 CURVE SMOOTH",
"750 -113 OFFCURVE",
"745 -108 OFFCURVE",
"736 -108 CURVE SMOOTH",
"713 -108 OFFCURVE",
"679 -52 OFFCURVE",
"631 -52 CURVE SMOOTH",
"583 -52 OFFCURVE",
"572 -50 OFFCURVE",
"552 -50 CURVE",
"481 -50 OFFCURVE",
"469 13 OFFCURVE",
"450 29 CURVE SMOOTH",
"431 45 OFFCURVE",
"385 66 OFFCURVE",
"328 66 CURVE SMOOTH",
"271 66 OFFCURVE",
"251 143 OFFCURVE",
"251 157 CURVE SMOOTH",
"251 171 OFFCURVE",
"257 191 OFFCURVE",
"281 191 CURVE SMOOTH",
"312 191 OFFCURVE",
"399 134 OFFCURVE",
"425 134 CURVE SMOOTH",
"451 134 OFFCURVE",
"468 140 OFFCURVE",
"488 140 CURVE SMOOTH",
"508 140 OFFCURVE",
"527 122 OFFCURVE",
"555 108 CURVE SMOOTH",
"583 94 OFFCURVE",
"601 104 OFFCURVE",
"633 93 CURVE SMOOTH",
"665 82 OFFCURVE",
"689 19 OFFCURVE",
"738 19 CURVE SMOOTH",
"762 19 OFFCURVE",
"795 41 OFFCURVE",
"814 41 CURVE SMOOTH",
"826 41 OFFCURVE",
"836 36 OFFCURVE",
"844 36 CURVE SMOOTH",
"852 36 OFFCURVE",
"861 43 OFFCURVE",
"861 53 CURVE SMOOTH",
"861 63 OFFCURVE",
"838 74 OFFCURVE",
"815 74 CURVE SMOOTH",
"792 74 OFFCURVE",
"774 62 OFFCURVE",
"757 62 CURVE SMOOTH",
"740 62 OFFCURVE",
"723 57 OFFCURVE",
"691 114 CURVE SMOOTH",
"659 171 OFFCURVE",
"613 163 OFFCURVE",
"587 163 CURVE SMOOTH",
"561 163 OFFCURVE",
"545 190 OFFCURVE",
"545 202 CURVE SMOOTH",
"545 214 OFFCURVE",
"552 223 OFFCURVE",
"566 223 CURVE SMOOTH",
"612 223 OFFCURVE",
"631 174 OFFCURVE",
"711 174 CURVE SMOOTH",
"791 174 OFFCURVE",
"837 233 OFFCURVE",
"872 233 CURVE SMOOTH",
"907 233 OFFCURVE",
"919 223 OFFCURVE",
"940 223 CURVE SMOOTH",
"949 223 OFFCURVE",
"953 226 OFFCURVE",
"953 230 CURVE SMOOTH",
"953 236 OFFCURVE",
"945 245 OFFCURVE",
"935 252 CURVE SMOOTH",
"917 264 OFFCURVE",
"839 281 OFFCURVE",
"806 290 CURVE SMOOTH",
"773 299 OFFCURVE",
"731 358 OFFCURVE",
"676 358 CURVE SMOOTH",
"612 358 OFFCURVE",
"513 304 OFFCURVE",
"499 304 CURVE SMOOTH",
"485 304 OFFCURVE",
"456 317 OFFCURVE",
"456 342 CURVE SMOOTH",
"456 372 OFFCURVE",
"484 378 OFFCURVE",
"515 378 CURVE SMOOTH",
"536 378 OFFCURVE",
"560 375 OFFCURVE",
"577 375 CURVE SMOOTH",
"620 375 OFFCURVE",
"634 424 OFFCURVE",
"667 424 CURVE SMOOTH",
"700 424 OFFCURVE",
"689 416 OFFCURVE",
"736 416 CURVE SMOOTH",
"763 416 OFFCURVE",
"762 430 OFFCURVE",
"789 430 CURVE SMOOTH",
"816 430 OFFCURVE",
"840 412 OFFCURVE",
"845 412 CURVE SMOOTH",
"850 412 OFFCURVE",
"852 413 OFFCURVE",
"852 424 CURVE SMOOTH",
"852 435 OFFCURVE",
"819 472 OFFCURVE",
"773 472 CURVE SMOOTH",
"741 472 OFFCURVE",
"727 454 OFFCURVE",
"688 454 CURVE SMOOTH",
"681 454 OFFCURVE",
"677 459 OFFCURVE",
"677 463 CURVE SMOOTH",
"677 469 OFFCURVE",
"682 474 OFFCURVE",
"691 474 CURVE SMOOTH",
"703 474 OFFCURVE",
"708 479 OFFCURVE",
"721 499 CURVE SMOOTH",
"736 523 OFFCURVE",
"758 541 OFFCURVE",
"780 541 CURVE SMOOTH",
"791 541 OFFCURVE",
"795 546 OFFCURVE",
"795 550 CURVE SMOOTH",
"795 556 OFFCURVE",
"790 561 OFFCURVE",
"780 561 CURVE SMOOTH",
"753 561 OFFCURVE",
"698 540 OFFCURVE",
"676 514 CURVE SMOOTH",
"654 488 OFFCURVE",
"634 464 OFFCURVE",
"612 464 CURVE SMOOTH",
"590 464 OFFCURVE",
"563 428 OFFCURVE",
"540 428 CURVE SMOOTH",
"517 428 OFFCURVE",
"511 435 OFFCURVE",
"465 435 CURVE SMOOTH",
"402 435 OFFCURVE",
"403 346 OFFCURVE",
"339 346 CURVE SMOOTH",
"305 346 OFFCURVE",
"274 374 OFFCURVE",
"274 405 CURVE SMOOTH",
"274 436 OFFCURVE",
"317 457 OFFCURVE",
"400 457 CURVE SMOOTH",
"483 457 OFFCURVE",
"474 591 OFFCURVE",
"534 591 CURVE SMOOTH",
"564 591 OFFCURVE",
"562 569 OFFCURVE",
"611 569 CURVE SMOOTH",
"682 569 OFFCURVE",
"686 625 OFFCURVE",
"709 625 CURVE SMOOTH",
"732 625 OFFCURVE",
"729 612 OFFCURVE",
"754 612 CURVE SMOOTH",
"779 612 OFFCURVE",
"805 627 OFFCURVE",
"823 627 CURVE SMOOTH",
"832 627 OFFCURVE",
"838 632 OFFCURVE",
"838 637 CURVE SMOOTH",
"838 642 OFFCURVE",
"834 646 OFFCURVE",
"825 646 CURVE SMOOTH",
"807 646 OFFCURVE",
"795 639 OFFCURVE",
"774 639 CURVE SMOOTH",
"753 639 OFFCURVE",
"741 652 OFFCURVE",
"741 664 CURVE SMOOTH",
"741 676 OFFCURVE",
"760 674 OFFCURVE",
"783 690 CURVE SMOOTH",
"806 706 OFFCURVE",
"810 723 OFFCURVE",
"838 723 CURVE SMOOTH",
"851 723 OFFCURVE",
"856 727 OFFCURVE",
"856 731 CURVE SMOOTH",
"856 736 OFFCURVE",
"848 741 OFFCURVE",
"839 741 CURVE SMOOTH",
"771 741 OFFCURVE",
"709 686 OFFCURVE",
"685 662 CURVE SMOOTH",
"661 638 OFFCURVE",
"635 623 OFFCURVE",
"602 623 CURVE SMOOTH",
"569 623 OFFCURVE",
"562 631 OFFCURVE",
"562 643 CURVE SMOOTH",
"562 655 OFFCURVE",
"577 655 OFFCURVE",
"604 655 CURVE SMOOTH",
"631 655 OFFCURVE",
"653 689 OFFCURVE",
"663 713 CURVE SMOOTH",
"673 737 OFFCURVE",
"692 753 OFFCURVE",
"714 753 CURVE SMOOTH",
"725 753 OFFCURVE",
"730 757 OFFCURVE",
"730 761 CURVE SMOOTH",
"730 766 OFFCURVE",
"724 771 OFFCURVE",
"715 771 CURVE SMOOTH",
"666 771 OFFCURVE",
"641 743 OFFCURVE",
"617 716 CURVE SMOOTH",
"593 689 OFFCURVE",
"562 684 OFFCURVE",
"517 684 CURVE SMOOTH",
"435 684 OFFCURVE",
"403 578 OFFCURVE",
"393 554 CURVE SMOOTH",
"383 530 OFFCURVE",
"358 508 OFFCURVE",
"338 508 CURVE SMOOTH",
"318 508 OFFCURVE",
"304 521 OFFCURVE",
"304 545 CURVE SMOOTH",
"304 569 OFFCURVE",
"321 578 OFFCURVE",
"335 592 CURVE SMOOTH",
"349 606 OFFCURVE",
"362 637 OFFCURVE",
"373 663 CURVE SMOOTH",
"384 689 OFFCURVE",
"426 731 OFFCURVE",
"462 731 CURVE SMOOTH",
"478 731 OFFCURVE",
"487 737 OFFCURVE",
"487 743 CURVE SMOOTH",
"487 748 OFFCURVE",
"479 753 OFFCURVE",
"460 753 CURVE SMOOTH",
"413 753 OFFCURVE",
"357 728 OFFCURVE",
"333 698 CURVE SMOOTH",
"309 668 OFFCURVE",
"290 620 OFFCURVE",
"282 609 CURVE SMOOTH",
"274 598 OFFCURVE",
"251 585 OFFCURVE",
"239 572 CURVE SMOOTH",
"227 559 OFFCURVE",
"224 544 OFFCURVE",
"213 524 CURVE",
"207 511 OFFCURVE",
"201 501 OFFCURVE",
"191 494 CURVE SMOOTH",
"171 480 OFFCURVE",
"159 466 OFFCURVE",
"149 451 CURVE SMOOTH",
"141 440 OFFCURVE",
"129 434 OFFCURVE",
"109 434 CURVE SMOOTH",
"82 434 OFFCURVE",
"52 442 OFFCURVE",
"10 442 CURVE SMOOTH",
"-10 442 LINE",
"-10 158 LINE",
"10 158 LINE SMOOTH",
"24 158 OFFCURVE",
"34 161 OFFCURVE",
"48 161 CURVE SMOOTH",
"72 161 OFFCURVE",
"80 140 OFFCURVE",
"104 140 CURVE SMOOTH",
"135 140 OFFCURVE",
"142 152 OFFCURVE",
"163 152 CURVE SMOOTH",
"184 152 OFFCURVE",
"189 126 OFFCURVE",
"189 104 CURVE SMOOTH",
"189 82 OFFCURVE",
"204 36 OFFCURVE",
"242 18 CURVE SMOOTH",
"280 0 OFFCURVE",
"303 -7 OFFCURVE",
"311 -27 CURVE SMOOTH",
"319 -47 OFFCURVE",
"340 -76 OFFCURVE",
"365 -93 CURVE SMOOTH",
"382 -104 OFFCURVE",
"385 -110 OFFCURVE",
"385 -114 CURVE SMOOTH",
"385 -116 OFFCURVE",
"384 -118 OFFCURVE",
"384 -120 CURVE SMOOTH",
"384 -124 OFFCURVE",
"390 -130 OFFCURVE",
"394 -130 CURVE SMOOTH",
"398 -130 OFFCURVE",
"401 -127 OFFCURVE",
"401 -117 CURVE SMOOTH",
"401 -94 OFFCURVE",
"394 -80 OFFCURVE",
"384 -71 CURVE SMOOTH",
"374 -62 OFFCURVE",
"354 -43 OFFCURVE",
"354 -33 CURVE SMOOTH",
"354 -24 OFFCURVE",
"357 -18 OFFCURVE",
"371 -18 CURVE SMOOTH",
"385 -18 OFFCURVE",
"402 -19 OFFCURVE",
"421 -32 CURVE SMOOTH",
"440 -45 OFFCURVE",
"444 -71 OFFCURVE",
"469 -82 CURVE SMOOTH",
"479 -86 OFFCURVE",
"487 -88 OFFCURVE",
"494 -88 CURVE SMOOTH",
"503 -88 OFFCURVE",
"508 -85 OFFCURVE",
"512 -85 CURVE SMOOTH",
"518 -85 OFFCURVE",
"520 -91 OFFCURVE",
"520 -100 CURVE SMOOTH",
"520 -109 OFFCURVE",
"509 -111 OFFCURVE",
"509 -128 CURVE SMOOTH",
"509 -145 OFFCURVE",
"544 -192 OFFCURVE",
"590 -192 CURVE SMOOTH"
);
}
);
width = 1000;
}
);
unicode = 0078;
},
{
glyphname = y;
lastChange = "2021-10-15 14:30:28 +0000";
layers = (
{
backgroundImage = {
imagePath = "../../Documents/PERSONAL TYPEFACES/_TERANOPTIA/poisson01.jpeg";
locked = "1";
transform = "{2.52017, 0, 0, 2.52017, 1, -205}";
};
layerId = "36C34FB4-9C42-4BD9-991C-7B94FED7D558";
paths = (
{
closed = 1;
nodes = (
"956 -133 OFFCURVE",
"969 -127 OFFCURVE",
"969 -113 CURVE SMOOTH",
"969 -99 OFFCURVE",
"953 -90 OFFCURVE",
"942 -87 CURVE SMOOTH",
"931 -84 OFFCURVE",
"879 -29 OFFCURVE",
"879 46 CURVE SMOOTH",
"879 96 OFFCURVE",
"904 124 OFFCURVE",
"904 155 CURVE SMOOTH",
"904 171 OFFCURVE",
"892 177 OFFCURVE",
"892 184 CURVE SMOOTH",
"892 188 OFFCURVE",
"895 191 OFFCURVE",
"899 191 CURVE SMOOTH",
"901 191 OFFCURVE",
"906 187 OFFCURVE",
"913 182 CURVE SMOOTH",
"937 166 OFFCURVE",
"957 158 OFFCURVE",
"990 158 CURVE SMOOTH",
"1010 158 LINE",
"1010 442 LINE",
"990 442 LINE SMOOTH",
"900 442 OFFCURVE",
"830 488 OFFCURVE",
"830 547 CURVE SMOOTH",
"830 594 OFFCURVE",
"853 610 OFFCURVE",
"873 615 CURVE SMOOTH",
"893 620 OFFCURVE",
"901 634 OFFCURVE",
"901 643 CURVE SMOOTH",
"901 652 OFFCURVE",
"897 661 OFFCURVE",
"878 661 CURVE SMOOTH",
"752 661 OFFCURVE",
"689 546 OFFCURVE",
"654 507 CURVE SMOOTH",
"619 468 OFFCURVE",
"568 443 OFFCURVE",
"522 443 CURVE SMOOTH",
"476 443 OFFCURVE",
"433 449 OFFCURVE",
"343 449 CURVE SMOOTH",
"209 449 OFFCURVE",
"22 240 OFFCURVE",
"22 128 CURVE SMOOTH",
"22 55 OFFCURVE",
"74 -2 OFFCURVE",
"141 -2 CURVE SMOOTH",
"209 -2 OFFCURVE",
"260 55 OFFCURVE",
"323 55 CURVE SMOOTH",
"381 55 OFFCURVE",
"401 44 OFFCURVE",
"438 44 CURVE SMOOTH",
"475 44 OFFCURVE",
"511 80 OFFCURVE",
"536 99 CURVE SMOOTH",
"561 118 OFFCURVE",
"613 139 OFFCURVE",
"658 139 CURVE SMOOTH",
"679 139 OFFCURVE",
"683 129 OFFCURVE",
"683 121 CURVE SMOOTH",
"683 113 OFFCURVE",
"673 108 OFFCURVE",
"673 97 CURVE SMOOTH",
"673 86 OFFCURVE",
"689 -20 OFFCURVE",
"742 -57 CURVE SMOOTH",
"795 -94 OFFCURVE",
"934 -133 OFFCURVE",
"948 -133 CURVE SMOOTH"
);
},
{
closed = 1;
nodes = (
"86 54 OFFCURVE",
"82 59 OFFCURVE",
"82 66 CURVE SMOOTH",
"82 81 OFFCURVE",
"98 97 OFFCURVE",
"108 97 CURVE SMOOTH",
"112 97 OFFCURVE",
"116 93 OFFCURVE",
"116 84 CURVE SMOOTH",
"116 68 OFFCURVE",
"98 54 OFFCURVE",
"92 54 CURVE SMOOTH"
);
},
{
closed = 1;
nodes = (
"389 137 OFFCURVE",
"351 163 OFFCURVE",
"351 199 CURVE SMOOTH",
"351 236 OFFCURVE",
"377 294 OFFCURVE",
"440 294 CURVE SMOOTH",
"469 294 OFFCURVE",
"520 288 OFFCURVE",
"520 233 CURVE SMOOTH",
"520 178 OFFCURVE",
"467 137 OFFCURVE",
"428 137 CURVE SMOOTH"
);
},
{
closed = 1;
nodes = (
"457 171 OFFCURVE",
"469 191 OFFCURVE",
"469 216 CURVE SMOOTH",
"469 242 OFFCURVE",
"457 262 OFFCURVE",
"441 262 CURVE SMOOTH",
"426 262 OFFCURVE",
"415 241 OFFCURVE",
"415 215 CURVE SMOOTH",
"415 190 OFFCURVE",
"427 171 OFFCURVE",
"442 171 CURVE SMOOTH"
);
},
{
closed = 1;
nodes = (
"188 465 OFFCURVE",
"201 475 OFFCURVE",
"201 500 CURVE SMOOTH",
"201 521 OFFCURVE",
"183 537 OFFCURVE",
"160 537 CURVE SMOOTH",
"144 537 OFFCURVE",
"132 526 OFFCURVE",
"132 511 CURVE SMOOTH",
"132 483 OFFCURVE",
"154 465 OFFCURVE",
"173 465 CURVE SMOOTH"
);
},
{
closed = 1;
nodes = (
"149 592 OFFCURVE",
"168 614 OFFCURVE",
"168 643 CURVE SMOOTH",
"168 673 OFFCURVE",
"147 696 OFFCURVE",
"120 696 CURVE SMOOTH",
"95 696 OFFCURVE",
"76 673 OFFCURVE",
"76 644 CURVE SMOOTH",
"76 615 OFFCURVE",
"98 592 OFFCURVE",
"125 592 CURVE SMOOTH"
);
},
{
closed = 1;
nodes = (
"266 563 OFFCURVE",
"275 572 OFFCURVE",
"275 586 CURVE SMOOTH",
"275 600 OFFCURVE",
"262 613 OFFCURVE",
"251 613 CURVE SMOOTH",
"238 613 OFFCURVE",
"229 596 OFFCURVE",
"229 582 CURVE SMOOTH",
"229 568 OFFCURVE",
"244 563 OFFCURVE",
"255 563 CURVE SMOOTH"
);
}
);
width = 1000;
}
);
unicode = 0079;
},
{
glyphname = z;
lastChange = "2021-10-15 14:30:28 +0000";
layers = (
{
backgroundImage = {
imagePath = "../../Documents/PERSONAL TYPEFACES/_TERANOPTIA/poisson02.jpeg";
locked = "1";
transform = "{2.52568, 0, 0, 2.52568, 0, -200}";
};
layerId = "36C34FB4-9C42-4BD9-991C-7B94FED7D558";
paths = (
{
closed = 1;
nodes = (
"921 -162 OFFCURVE",
"931 -150 OFFCURVE",
"931 -139 CURVE SMOOTH",
"931 -128 OFFCURVE",
"922 -118 OFFCURVE",
"905 -118 CURVE SMOOTH",
"883 -118 OFFCURVE",
"849 -97 OFFCURVE",
"814 -42 CURVE SMOOTH",
"779 13 OFFCURVE",
"738 143 OFFCURVE",
"682 161 CURVE SMOOTH",
"640 174 OFFCURVE",
"621 189 OFFCURVE",
"621 200 CURVE SMOOTH",
"621 209 OFFCURVE",
"633 215 OFFCURVE",
"655 215 CURVE SMOOTH",
"707 215 OFFCURVE",
"738 217 OFFCURVE",
"771 287 CURVE SMOOTH",
"804 357 OFFCURVE",
"823 414 OFFCURVE",
"877 418 CURVE SMOOTH",
"925 421 OFFCURVE",
"947 432 OFFCURVE",
"947 444 CURVE SMOOTH",
"947 460 OFFCURVE",
"906 477 OFFCURVE",
"836 477 CURVE SMOOTH",
"719 477 OFFCURVE",
"554 346 OFFCURVE",
"428 346 CURVE SMOOTH",
"377 346 OFFCURVE",
"355 378 OFFCURVE",
"355 407 CURVE SMOOTH",
"355 425 OFFCURVE",
"368 429 OFFCURVE",
"385 429 CURVE SMOOTH",
"398 429 OFFCURVE",
"408 436 OFFCURVE",
"408 445 CURVE SMOOTH",
"408 456 OFFCURVE",
"393 473 OFFCURVE",
"361 473 CURVE SMOOTH",
"311 473 OFFCURVE",
"263 432 OFFCURVE",
"195 432 CURVE SMOOTH",
"156 432 OFFCURVE",
"125 442 OFFCURVE",
"10 442 CURVE SMOOTH",
"-10 442 LINE",
"-10 158 LINE",
"10 158 LINE SMOOTH",
"107 158 OFFCURVE",
"142 189 OFFCURVE",
"208 189 CURVE SMOOTH",
"258 189 OFFCURVE",
"273 158 OFFCURVE",
"319 125 CURVE SMOOTH",
"365 92 OFFCURVE",
"385 111 OFFCURVE",
"424 80 CURVE SMOOTH",
"463 49 OFFCURVE",
"481 -2 OFFCURVE",
"551 -40 CURVE SMOOTH",
"621 -78 OFFCURVE",
"672 -65 OFFCURVE",
"725 -88 CURVE SMOOTH",
"769 -107 OFFCURVE",
"838 -162 OFFCURVE",
"899 -162 CURVE SMOOTH"
);
}
);
width = 1000;
}
);
unicode = 007A;
},
{
glyphname = zacute;
lastChange = "2021-11-23 14:02:30 +0000";
layers = (
{
layerId = "36C34FB4-9C42-4BD9-991C-7B94FED7D558";
paths = (
{
closed = 1;
nodes = (
"300 -79 OFFCURVE",
"476 -56 OFFCURVE",
"559 18 CURVE SMOOTH",
"642 92 OFFCURVE",
"648 118 OFFCURVE",
"659 143 CURVE SMOOTH",
"670 168 OFFCURVE",
"686 196 OFFCURVE",
"711 196 CURVE SMOOTH",
"736 196 OFFCURVE",
"767 202 OFFCURVE",
"787 219 CURVE SMOOTH",
"798 228 OFFCURVE",
"810 236 OFFCURVE",
"824 236 CURVE SMOOTH",
"835 236 OFFCURVE",
"847 230 OFFCURVE",
"859 216 CURVE SMOOTH",
"880 191 OFFCURVE",
"930 158 OFFCURVE",
"990 158 CURVE SMOOTH",
"1010 158 LINE",
"1010 442 LINE",
"990 442 LINE SMOOTH",
"947 442 OFFCURVE",
"904 469 OFFCURVE",
"892 504 CURVE SMOOTH",
"879 540 OFFCURVE",
"870 558 OFFCURVE",
"862 573 CURVE SMOOTH",
"858 581 OFFCURVE",
"858 595 OFFCURVE",
"882 595 CURVE SMOOTH",
"895 595 OFFCURVE",
"904 597 OFFCURVE",
"904 605 CURVE SMOOTH",
"904 614 OFFCURVE",
"880 626 OFFCURVE",
"859 631 CURVE SMOOTH",
"814 641 OFFCURVE",
"791 655 OFFCURVE",
"791 675 CURVE SMOOTH",
"791 685 OFFCURVE",
"799 693 OFFCURVE",
"803 696 CURVE SMOOTH",
"809 701 OFFCURVE",
"828 712 OFFCURVE",
"849 715 CURVE SMOOTH",
"859 716 OFFCURVE",
"863 720 OFFCURVE",
"863 724 CURVE SMOOTH",
"863 728 OFFCURVE",
"858 732 OFFCURVE",
"851 734 CURVE SMOOTH",
"843 736 OFFCURVE",
"825 739 OFFCURVE",
"801 739 CURVE SMOOTH",
"784 739 OFFCURVE",
"764 737 OFFCURVE",
"743 732 CURVE SMOOTH",
"693 719 OFFCURVE",
"666 698 OFFCURVE",
"653 698 CURVE SMOOTH",
"640 698 OFFCURVE",
"643 711 OFFCURVE",
"655 720 CURVE SMOOTH",
"666 728 OFFCURVE",
"672 733 OFFCURVE",
"672 739 CURVE SMOOTH",
"672 741 OFFCURVE",
"670 745 OFFCURVE",
"666 745 CURVE SMOOTH",
"657 745 OFFCURVE",
"637 737 OFFCURVE",
"618 725 CURVE SMOOTH",
"592 709 OFFCURVE",
"564 676 OFFCURVE",
"549 654 CURVE SMOOTH",
"534 632 OFFCURVE",
"520 609 OFFCURVE",
"513 609 CURVE SMOOTH",
"506 609 OFFCURVE",
"506 624 OFFCURVE",
"510 636 CURVE SMOOTH",
"514 648 OFFCURVE",
"517 660 OFFCURVE",
"507 660 CURVE SMOOTH",
"497 660 OFFCURVE",
"484 626 OFFCURVE",
"475 592 CURVE SMOOTH",
"466 558 OFFCURVE",
"459 524 OFFCURVE",
"439 491 CURVE SMOOTH",
"419 458 OFFCURVE",
"386 427 OFFCURVE",
"349 414 CURVE SMOOTH",
"312 401 OFFCURVE",
"264 381 OFFCURVE",
"213 344 CURVE SMOOTH",
"122 279 OFFCURVE",
"51 175 OFFCURVE",
"51 108 CURVE SMOOTH",
"51 101 OFFCURVE",
"55 97 OFFCURVE",
"60 97 CURVE SMOOTH",
"66 97 OFFCURVE",
"73 101 OFFCURVE",
"81 120 CURVE SMOOTH",
"97 157 OFFCURVE",
"115 190 OFFCURVE",
"201 220 CURVE SMOOTH",
"287 250 OFFCURVE",
"370 248 OFFCURVE",
"403 258 CURVE SMOOTH",
"436 268 OFFCURVE",
"457 284 OFFCURVE",
"464 284 CURVE SMOOTH",
"471 284 OFFCURVE",
"473 280 OFFCURVE",
"473 274 CURVE SMOOTH",
"473 268 OFFCURVE",
"465 256 OFFCURVE",
"446 241 CURVE SMOOTH",
"427 226 OFFCURVE",
"369 193 OFFCURVE",
"339 171 CURVE SMOOTH",
"309 149 OFFCURVE",
"287 128 OFFCURVE",
"268 106 CURVE SMOOTH",
"249 84 OFFCURVE",
"244 70 OFFCURVE",
"244 61 CURVE SMOOTH",
"244 56 OFFCURVE",
"248 51 OFFCURVE",
"253 51 CURVE SMOOTH",
"258 51 OFFCURVE",
"262 56 OFFCURVE",
"267 62 CURVE SMOOTH",
"272 68 OFFCURVE",
"283 84 OFFCURVE",
"308 91 CURVE SMOOTH",
"333 98 OFFCURVE",
"389 112 OFFCURVE",
"414 122 CURVE SMOOTH",
"439 132 OFFCURVE",
"454 144 OFFCURVE",
"469 159 CURVE SMOOTH",
"479 169 OFFCURVE",
"494 190 OFFCURVE",
"506 202 CURVE SMOOTH",
"519 216 OFFCURVE",
"530 214 OFFCURVE",
"530 199 CURVE SMOOTH",
"530 132 OFFCURVE",
"391 5 OFFCURVE",
"258 -51 CURVE SMOOTH",
"250 -54 OFFCURVE",
"244 -60 OFFCURVE",
"244 -66 CURVE SMOOTH",
"244 -73 OFFCURVE",
"251 -79 OFFCURVE",
"269 -79 CURVE SMOOTH"
);
},
{
closed = 1;
nodes = (
"652 403 OFFCURVE",
"670 421 OFFCURVE",
"670 443 CURVE SMOOTH",
"670 465 OFFCURVE",
"652 482 OFFCURVE",
"630 482 CURVE",
"608 482 OFFCURVE",
"590 464 OFFCURVE",
"590 442 CURVE SMOOTH",
"590 420 OFFCURVE",
"607 403 OFFCURVE",
"628 403 CURVE SMOOTH"
);
},
{
closed = 1;
nodes = (
"583 375 OFFCURVE",
"565 400 OFFCURVE",
"565 431 CURVE SMOOTH",
"565 474 OFFCURVE",
"603 527 OFFCURVE",
"652 527 CURVE SMOOTH",
"708 527 OFFCURVE",
"733 496 OFFCURVE",
"733 462 CURVE SMOOTH",
"733 421 OFFCURVE",
"695 375 OFFCURVE",
"629 375 CURVE SMOOTH"
);
}
);
width = 1000;
}
);
unicode = 017A;
},
{
glyphname = zcaron;
lastChange = "2021-11-23 14:02:30 +0000";
layers = (
{
guideLines = (
{
angle = 90;
position = "{38, 396}";
},
{
angle = 90;
position = "{134, 407}";
},
{
angle = 90;
position = "{210, 331}";
}
);
layerId = "36C34FB4-9C42-4BD9-991C-7B94FED7D558";
paths = (
{
closed = 1;
nodes = (
"763 -200 OFFCURVE",
"884 -154 OFFCURVE",
"939 -128 CURVE SMOOTH",
"954 -121 OFFCURVE",
"967 -108 OFFCURVE",
"967 -101 CURVE SMOOTH",
"967 -96 OFFCURVE",
"961 -95 OFFCURVE",
"946 -100 CURVE SMOOTH",
"933 -104 OFFCURVE",
"910 -110 OFFCURVE",
"872 -110 CURVE SMOOTH",
"813 -110 OFFCURVE",
"768 -93 OFFCURVE",
"723 -93 CURVE SMOOTH",
"678 -93 OFFCURVE",
"643 -100 OFFCURVE",
"630 -102 CURVE SMOOTH",
"610 -105 OFFCURVE",
"604 -89 OFFCURVE",
"626 -83 CURVE SMOOTH",
"648 -77 OFFCURVE",
"674 -68 OFFCURVE",
"705 -64 CURVE SMOOTH",
"736 -60 OFFCURVE",
"800 -32 OFFCURVE",
"844 0 CURVE SMOOTH",
"888 32 OFFCURVE",
"897 51 OFFCURVE",
"876 51 CURVE SMOOTH",
"859 51 OFFCURVE",
"842 32 OFFCURVE",
"815 27 CURVE SMOOTH",
"765 17 OFFCURVE",
"736 31 OFFCURVE",
"647 6 CURVE SMOOTH",
"616 -3 OFFCURVE",
"601 -18 OFFCURVE",
"573 -18 CURVE SMOOTH",
"545 -18 OFFCURVE",
"541 5 OFFCURVE",
"563 5 CURVE SMOOTH",
"609 5 OFFCURVE",
"693 44 OFFCURVE",
"728 71 CURVE SMOOTH",
"737 78 OFFCURVE",
"741 85 OFFCURVE",
"741 90 CURVE SMOOTH",
"741 94 OFFCURVE",
"738 97 OFFCURVE",
"732 97 CURVE SMOOTH",
"711 97 OFFCURVE",
"697 84 OFFCURVE",
"677 84 CURVE SMOOTH",
"629 84 OFFCURVE",
"598 79 OFFCURVE",
"570 67 CURVE SMOOTH",
"548 58 OFFCURVE",
"525 50 OFFCURVE",
"510 50 CURVE SMOOTH",
"497 50 OFFCURVE",
"489 60 OFFCURVE",
"508 69 CURVE SMOOTH",
"527 78 OFFCURVE",
"553 86 OFFCURVE",
"567 92 CURVE SMOOTH",
"589 101 OFFCURVE",
"609 115 OFFCURVE",
"609 123 CURVE SMOOTH",
"609 127 OFFCURVE",
"605 130 OFFCURVE",
"599 130 CURVE SMOOTH",
"584 130 OFFCURVE",
"571 118 OFFCURVE",
"549 118 CURVE SMOOTH",
"477 118 OFFCURVE",
"426 101 OFFCURVE",
"412 101 CURVE SMOOTH",
"396 101 OFFCURVE",
"388 106 OFFCURVE",
"400 113 CURVE SMOOTH",
"420 125 OFFCURVE",
"437 136 OFFCURVE",
"457 136 CURVE SMOOTH",
"469 136 OFFCURVE",
"478 151 OFFCURVE",
"456 151 CURVE SMOOTH",
"383 151 OFFCURVE",
"315 117 OFFCURVE",
"295 117 CURVE SMOOTH",
"276 117 OFFCURVE",
"270 125 OFFCURVE",
"270 135 CURVE SMOOTH",
"270 185 OFFCURVE",
"383 197 OFFCURVE",
"451 197 CURVE SMOOTH",
"506 197 OFFCURVE",
"649 153 OFFCURVE",
"752 153 CURVE SMOOTH",
"855 153 OFFCURVE",
"934 158 OFFCURVE",
"960 158 CURVE SMOOTH",
"1010 158 LINE",
"1010 442 LINE",
"947 442 LINE SMOOTH",
"893 442 OFFCURVE",
"850 462 OFFCURVE",
"752 462 CURVE SMOOTH",
"612 462 OFFCURVE",
"542 418 OFFCURVE",
"417 418 CURVE SMOOTH",
"335 418 OFFCURVE",
"270 426 OFFCURVE",
"270 459 CURVE SMOOTH",
"270 474 OFFCURVE",
"278 477 OFFCURVE",
"290 477 CURVE SMOOTH",
"301 477 OFFCURVE",
"317 474 OFFCURVE",
"334 474 CURVE SMOOTH",
"377 474 OFFCURVE",
"399 485 OFFCURVE",
"408 485 CURVE SMOOTH",
"417 485 OFFCURVE",
"421 499 OFFCURVE",
"408 499 CURVE SMOOTH",
"377 499 OFFCURVE",
"369 517 OFFCURVE",
"337 517 CURVE SMOOTH",
"327 517 OFFCURVE",
"321 524 OFFCURVE",
"321 528 CURVE SMOOTH",
"321 531 OFFCURVE",
"326 535 OFFCURVE",
"336 535 CURVE SMOOTH",
"349 535 OFFCURVE",
"366 532 OFFCURVE",
"384 532 CURVE SMOOTH",
"420 532 OFFCURVE",
"458 537 OFFCURVE",
"468 541 CURVE SMOOTH",
"483 547 OFFCURVE",
"477 557 OFFCURVE",
"465 557 CURVE SMOOTH",
"453 557 OFFCURVE",
"437 557 OFFCURVE",
"417 565 CURVE SMOOTH",
"397 573 OFFCURVE",
"377 576 OFFCURVE",
"354 576 CURVE SMOOTH",
"345 576 OFFCURVE",
"340 579 OFFCURVE",
"340 582 CURVE SMOOTH",
"340 588 OFFCURVE",
"359 598 OFFCURVE",
"399 598 CURVE SMOOTH",
"430 598 OFFCURVE",
"460 590 OFFCURVE",
"479 586 CURVE SMOOTH",
"500 581 OFFCURVE",
"522 579 OFFCURVE",
"570 579 CURVE SMOOTH",
"582 579 OFFCURVE",
"584 592 OFFCURVE",
"571 592 CURVE SMOOTH",
"542 592 OFFCURVE",
"506 645 OFFCURVE",
"420 645 CURVE SMOOTH",
"402 645 OFFCURVE",
"395 648 OFFCURVE",
"395 653 CURVE SMOOTH",
"395 658 OFFCURVE",
"409 665 OFFCURVE",
"430 665 CURVE SMOOTH",
"494 665 OFFCURVE",
"563 622 OFFCURVE",
"679 622 CURVE SMOOTH",
"796 622 OFFCURVE",
"825 631 OFFCURVE",
"825 642 CURVE SMOOTH",
"825 646 OFFCURVE",
"816 650 OFFCURVE",
"798 651 CURVE SMOOTH",
"763 655 OFFCURVE",
"713 661 OFFCURVE",
"680 676 CURVE SMOOTH",
"633 698 OFFCURVE",
"593 696 OFFCURVE",
"561 696 CURVE SMOOTH",
"550 696 OFFCURVE",
"545 698 OFFCURVE",
"545 702 CURVE SMOOTH",
"545 708 OFFCURVE",
"564 718 OFFCURVE",
"592 718 CURVE SMOOTH",
"651 718 OFFCURVE",
"715 687 OFFCURVE",
"801 687 CURVE SMOOTH",
"887 687 OFFCURVE",
"949 711 OFFCURVE",
"965 720 CURVE SMOOTH",
"981 729 OFFCURVE",
"971 735 OFFCURVE",
"960 735 CURVE SMOOTH",
"774 735 OFFCURVE",
"637 800 OFFCURVE",
"448 800 CURVE SMOOTH",
"310 800 OFFCURVE",
"98 739 OFFCURVE",
"98 659 CURVE SMOOTH",
"98 610 OFFCURVE",
"194 608 OFFCURVE",
"194 536 CURVE SMOOTH",
"194 480 OFFCURVE",
"155 442 OFFCURVE",
"20 442 CURVE SMOOTH",
"-10 442 LINE",
"-10 158 LINE",
"20 158 LINE SMOOTH",
"145 158 OFFCURVE",
"194 123 OFFCURVE",
"194 96 CURVE SMOOTH",
"194 79 OFFCURVE",
"172 43 OFFCURVE",
"127 43 CURVE SMOOTH",
"107 43 OFFCURVE",
"98 36 OFFCURVE",
"98 26 CURVE SMOOTH",
"98 15 OFFCURVE",
"106 2 OFFCURVE",
"120 -14 CURVE SMOOTH",
"159 -58 OFFCURVE",
"265 -200 OFFCURVE",
"611 -200 CURVE SMOOTH"
);
}
);
width = 1000;
},
{
associatedMasterId = "36C34FB4-9C42-4BD9-991C-7B94FED7D558";
backgroundImage = {
imagePath = "../../Documents/PERSONAL TYPEFACES/_TERANOPTIA/oiseau-body.jpeg";
locked = "1";
transform = "{2.36715, 0, 0, 2.36715, 33.727, -187.157}";
};
layerId = "521F2E11-2514-4800-9B1B-85F23345CD0A";
name = "Nov 21 21, 11:08";
paths = (
{
closed = 1;
nodes = (
"334 163 OFFCURVE",
"303 139 OFFCURVE",
"273 139 CURVE SMOOTH",
"229 139 OFFCURVE",
"254 163 OFFCURVE",
"268 168 CURVE",
"302 184 OFFCURVE",
"379 197 OFFCURVE",
"434 197 CURVE SMOOTH",
"489 197 OFFCURVE",
"622 157 OFFCURVE",
"725 157 CURVE SMOOTH",
"828 157 OFFCURVE",
"947 158 OFFCURVE",
"990 158 CURVE SMOOTH",
"1010 158 LINE",
"1010 442 LINE",
"990 442 LINE SMOOTH",
"909 442 OFFCURVE",
"688 524 OFFCURVE",
"608 524 CURVE SMOOTH",
"527 524 OFFCURVE",
"432 503 OFFCURVE",
"382 492 CURVE SMOOTH",
"332 481 OFFCURVE",
"275 474 OFFCURVE",
"238 474 CURVE SMOOTH",
"201 474 OFFCURVE",
"233 500 OFFCURVE",
"242 503 CURVE SMOOTH",
"251 506 OFFCURVE",
"266 509 OFFCURVE",
"302 512 CURVE SMOOTH",
"338 515 OFFCURVE",
"393 514 OFFCURVE",
"408 520 CURVE SMOOTH",
"423 526 OFFCURVE",
"417 536 OFFCURVE",
"405 536 CURVE SMOOTH",
"393 536 OFFCURVE",
"377 536 OFFCURVE",
"357 544 CURVE SMOOTH",
"337 552 OFFCURVE",
"317 555 OFFCURVE",
"294 555 CURVE SMOOTH",
"271 555 OFFCURVE",
"284 576 OFFCURVE",
"298 576 CURVE SMOOTH",
"312 576 OFFCURVE",
"322 576 OFFCURVE",
"384 576 CURVE SMOOTH",
"423 576 OFFCURVE",
"437 558 OFFCURVE",
"510 558 CURVE SMOOTH",
"522 558 OFFCURVE",
"524 571 OFFCURVE",
"511 571 CURVE SMOOTH",
"498 571 OFFCURVE",
"449 602 OFFCURVE",
"417 612 CURVE SMOOTH",
"385 622 OFFCURVE",
"370 624 OFFCURVE",
"350 624 CURVE SMOOTH",
"330 624 OFFCURVE",
"341 640 OFFCURVE",
"349 641 CURVE SMOOTH",
"357 642 OFFCURVE",
"365 644 OFFCURVE",
"390 644 CURVE SMOOTH",
"445 644 OFFCURVE",
"533 601 OFFCURVE",
"649 601 CURVE SMOOTH",
"687 601 OFFCURVE",
"764 607 OFFCURVE",
"764 622 CURVE SMOOTH",
"764 628 OFFCURVE",
"752 629 OFFCURVE",
"738 630 CURVE SMOOTH",
"703 634 OFFCURVE",
"653 650 OFFCURVE",
"620 665 CURVE SMOOTH",
"573 687 OFFCURVE",
"533 685 OFFCURVE",
"501 685 CURVE SMOOTH",
"469 685 OFFCURVE",
"489 707 OFFCURVE",
"532 707 CURVE SMOOTH",
"591 707 OFFCURVE",
"705 676 OFFCURVE",
"791 676 CURVE SMOOTH",
"877 676 OFFCURVE",
"939 700 OFFCURVE",
"955 709 CURVE SMOOTH",
"971 718 OFFCURVE",
"961 724 OFFCURVE",
"950 724 CURVE SMOOTH",
"939 724 OFFCURVE",
"933 725 OFFCURVE",
"913 727 CURVE SMOOTH",
"893 729 OFFCURVE",
"537 789 OFFCURVE",
"388 789 CURVE SMOOTH",
"228 789 OFFCURVE",
"132 747 OFFCURVE",
"70 697 CURVE SMOOTH",
"46 678 OFFCURVE",
"38 662 OFFCURVE",
"38 648 CURVE SMOOTH",
"38 627 OFFCURVE",
"60 612 OFFCURVE",
"76 604 CURVE SMOOTH",
"102 591 OFFCURVE",
"134 568 OFFCURVE",
"134 525 CURVE SMOOTH",
"134 469 OFFCURVE",
"85 442 OFFCURVE",
"10 442 CURVE SMOOTH",
"-10 442 LINE",
"-10 158 LINE",
"20 158 LINE SMOOTH",
"60 158 OFFCURVE",
"168 149 OFFCURVE",
"168 84 CURVE SMOOTH",
"168 66 OFFCURVE",
"137 65 OFFCURVE",
"110 65 CURVE SMOOTH",
"94 65 OFFCURVE",
"81 60 OFFCURVE",
"81 48 CURVE SMOOTH",
"81 39 OFFCURVE",
"87 26 OFFCURVE",
"103 8 CURVE SMOOTH",
"142 -36 OFFCURVE",
"248 -178 OFFCURVE",
"594 -178 CURVE SMOOTH",
"809 -178 OFFCURVE",
"959 -99 OFFCURVE",
"959 -75 CURVE SMOOTH",
"959 -64 OFFCURVE",
"950 -72 OFFCURVE",
"945 -72 CURVE SMOOTH",
"940 -72 OFFCURVE",
"918 -88 OFFCURVE",
"855 -88 CURVE SMOOTH",
"796 -88 OFFCURVE",
"755 -71 OFFCURVE",
"710 -71 CURVE SMOOTH",
"665 -71 OFFCURVE",
"630 -78 OFFCURVE",
"617 -80 CURVE SMOOTH",
"604 -82 OFFCURVE",
"587 -67 OFFCURVE",
"609 -61 CURVE SMOOTH",
"631 -55 OFFCURVE",
"657 -46 OFFCURVE",
"688 -42 CURVE SMOOTH",
"719 -38 OFFCURVE",
"783 -10 OFFCURVE",
"827 22 CURVE SMOOTH",
"871 54 OFFCURVE",
"880 73 OFFCURVE",
"859 73 CURVE SMOOTH",
"842 73 OFFCURVE",
"825 49 OFFCURVE",
"798 49 CURVE SMOOTH",
"771 49 OFFCURVE",
"660 45 OFFCURVE",
"630 28 CURVE SMOOTH",
"600 11 OFFCURVE",
"584 4 OFFCURVE",
"556 4 CURVE SMOOTH",
"528 4 OFFCURVE",
"524 27 OFFCURVE",
"546 27 CURVE SMOOTH",
"568 27 OFFCURVE",
"583 31 OFFCURVE",
"610 41 CURVE SMOOTH",
"637 51 OFFCURVE",
"723 92 OFFCURVE",
"723 107 CURVE SMOOTH",
"723 122 OFFCURVE",
"718 119 OFFCURVE",
"715 119 CURVE SMOOTH",
"712 119 OFFCURVE",
"680 106 OFFCURVE",
"660 106 CURVE SMOOTH",
"640 106 OFFCURVE",
"619 110 OFFCURVE",
"607 110 CURVE SMOOTH",
"595 110 OFFCURVE",
"526 72 OFFCURVE",
"493 72 CURVE SMOOTH",
"480 72 OFFCURVE",
"472 82 OFFCURVE",
"491 91 CURVE SMOOTH",
"510 100 OFFCURVE",
"536 108 OFFCURVE",
"550 114 CURVE SMOOTH",
"564 120 OFFCURVE",
"591 139 OFFCURVE",
"591 147 CURVE SMOOTH",
"591 154 OFFCURVE",
"587 152 OFFCURVE",
"582 152 CURVE SMOOTH",
"577 152 OFFCURVE",
"554 140 OFFCURVE",
"532 140 CURVE SMOOTH",
"510 140 OFFCURVE",
"464 140 OFFCURVE",
"431 129 CURVE SMOOTH",
"398 118 OFFCURVE",
"373 117 OFFCURVE",
"393 129 CURVE SMOOTH",
"413 141 OFFCURVE",
"428 149 OFFCURVE",
"440 152 CURVE SMOOTH",
"452 155 OFFCURVE",
"461 170 OFFCURVE",
"439 167 CURVE SMOOTH",
"417 164 OFFCURVE",
"382 163 OFFCURVE",
"374 163 CURVE"
);
}
);
width = 1000;
},
{
associatedMasterId = "36C34FB4-9C42-4BD9-991C-7B94FED7D558";
guideLines = (
{
angle = 90;
position = "{38, 396}";
},
{
angle = 90;
position = "{134, 407}";
},
{
angle = 90;
position = "{210, 331}";
}
);
layerId = "B709CAB7-A41F-4EB3-95D7-A9C405110519";
name = "Nov 23 21, 13:53";
paths = (
{
closed = 1;
nodes = (
"291 141 OFFCURVE",
"265 117 OFFCURVE",
"235 117 CURVE SMOOTH",
"216 117 OFFCURVE",
"210 125 OFFCURVE",
"210 135 CURVE SMOOTH",
"210 185 OFFCURVE",
"323 197 OFFCURVE",
"391 197 CURVE SMOOTH",
"446 197 OFFCURVE",
"579 157 OFFCURVE",
"682 157 CURVE SMOOTH",
"785 157 OFFCURVE",
"904 158 OFFCURVE",
"990 158 CURVE SMOOTH",
"1010 158 LINE",
"1010 442 LINE",
"990 442 LINE SMOOTH",
"909 442 OFFCURVE",
"688 524 OFFCURVE",
"608 524 CURVE SMOOTH",
"527 524 OFFCURVE",
"432 503 OFFCURVE",
"382 492 CURVE SMOOTH",
"332 481 OFFCURVE",
"285 474 OFFCURVE",
"248 474 CURVE SMOOTH",
"223 474 OFFCURVE",
"210 483 OFFCURVE",
"210 494 CURVE SMOOTH",
"210 506 OFFCURVE",
"223 523 OFFCURVE",
"262 523 CURVE SMOOTH",
"298 523 OFFCURVE",
"393 525 OFFCURVE",
"408 531 CURVE SMOOTH",
"423 537 OFFCURVE",
"417 547 OFFCURVE",
"405 547 CURVE SMOOTH",
"393 547 OFFCURVE",
"377 547 OFFCURVE",
"357 555 CURVE SMOOTH",
"337 563 OFFCURVE",
"317 566 OFFCURVE",
"294 566 CURVE SMOOTH",
"271 566 OFFCURVE",
"284 587 OFFCURVE",
"298 587 CURVE SMOOTH",
"312 587 OFFCURVE",
"322 587 OFFCURVE",
"384 587 CURVE SMOOTH",
"423 587 OFFCURVE",
"437 569 OFFCURVE",
"510 569 CURVE SMOOTH",
"522 569 OFFCURVE",
"524 582 OFFCURVE",
"511 582 CURVE SMOOTH",
"498 582 OFFCURVE",
"449 613 OFFCURVE",
"417 623 CURVE SMOOTH",
"385 633 OFFCURVE",
"370 635 OFFCURVE",
"350 635 CURVE SMOOTH",
"330 635 OFFCURVE",
"341 651 OFFCURVE",
"349 652 CURVE SMOOTH",
"357 653 OFFCURVE",
"365 655 OFFCURVE",
"390 655 CURVE SMOOTH",
"445 655 OFFCURVE",
"533 612 OFFCURVE",
"649 612 CURVE SMOOTH",
"687 612 OFFCURVE",
"764 618 OFFCURVE",
"764 633 CURVE SMOOTH",
"764 639 OFFCURVE",
"752 640 OFFCURVE",
"738 641 CURVE SMOOTH",
"703 645 OFFCURVE",
"653 661 OFFCURVE",
"620 676 CURVE SMOOTH",
"573 698 OFFCURVE",
"533 696 OFFCURVE",
"501 696 CURVE SMOOTH",
"469 696 OFFCURVE",
"489 718 OFFCURVE",
"532 718 CURVE SMOOTH",
"591 718 OFFCURVE",
"705 687 OFFCURVE",
"791 687 CURVE SMOOTH",
"877 687 OFFCURVE",
"939 711 OFFCURVE",
"955 720 CURVE SMOOTH",
"971 729 OFFCURVE",
"961 735 OFFCURVE",
"950 735 CURVE SMOOTH",
"939 735 OFFCURVE",
"933 736 OFFCURVE",
"913 738 CURVE SMOOTH",
"893 740 OFFCURVE",
"537 800 OFFCURVE",
"388 800 CURVE SMOOTH",
"228 800 OFFCURVE",
"132 758 OFFCURVE",
"70 708 CURVE SMOOTH",
"46 689 OFFCURVE",
"38 673 OFFCURVE",
"38 659 CURVE SMOOTH",
"38 638 OFFCURVE",
"60 623 OFFCURVE",
"76 615 CURVE SMOOTH",
"102 602 OFFCURVE",
"134 579 OFFCURVE",
"134 536 CURVE SMOOTH",
"134 480 OFFCURVE",
"85 442 OFFCURVE",
"10 442 CURVE SMOOTH",
"-10 442 LINE",
"-10 158 LINE",
"20 158 LINE SMOOTH",
"85 158 OFFCURVE",
"134 123 OFFCURVE",
"134 96 CURVE SMOOTH",
"134 79 OFFCURVE",
"112 43 OFFCURVE",
"67 43 CURVE SMOOTH",
"51 43 OFFCURVE",
"38 38 OFFCURVE",
"38 26 CURVE SMOOTH",
"38 17 OFFCURVE",
"44 4 OFFCURVE",
"60 -14 CURVE SMOOTH",
"99 -58 OFFCURVE",
"205 -200 OFFCURVE",
"551 -200 CURVE SMOOTH",
"766 -200 OFFCURVE",
"916 -121 OFFCURVE",
"916 -97 CURVE SMOOTH",
"916 -86 OFFCURVE",
"907 -94 OFFCURVE",
"902 -94 CURVE SMOOTH",
"897 -94 OFFCURVE",
"875 -110 OFFCURVE",
"812 -110 CURVE SMOOTH",
"753 -110 OFFCURVE",
"712 -93 OFFCURVE",
"667 -93 CURVE SMOOTH",
"622 -93 OFFCURVE",
"587 -100 OFFCURVE",
"574 -102 CURVE SMOOTH",
"561 -104 OFFCURVE",
"544 -89 OFFCURVE",
"566 -83 CURVE SMOOTH",
"588 -77 OFFCURVE",
"614 -68 OFFCURVE",
"645 -64 CURVE SMOOTH",
"676 -60 OFFCURVE",
"740 -32 OFFCURVE",
"784 0 CURVE SMOOTH",
"828 32 OFFCURVE",
"837 51 OFFCURVE",
"816 51 CURVE SMOOTH",
"799 51 OFFCURVE",
"782 27 OFFCURVE",
"755 27 CURVE SMOOTH",
"728 27 OFFCURVE",
"617 23 OFFCURVE",
"587 6 CURVE SMOOTH",
"557 -11 OFFCURVE",
"541 -18 OFFCURVE",
"513 -18 CURVE SMOOTH",
"485 -18 OFFCURVE",
"481 5 OFFCURVE",
"503 5 CURVE SMOOTH",
"525 5 OFFCURVE",
"540 9 OFFCURVE",
"567 19 CURVE SMOOTH",
"594 29 OFFCURVE",
"680 70 OFFCURVE",
"680 85 CURVE SMOOTH",
"680 100 OFFCURVE",
"675 97 OFFCURVE",
"672 97 CURVE SMOOTH",
"669 97 OFFCURVE",
"637 84 OFFCURVE",
"617 84 CURVE SMOOTH",
"597 84 OFFCURVE",
"576 88 OFFCURVE",
"564 88 CURVE SMOOTH",
"552 88 OFFCURVE",
"483 50 OFFCURVE",
"450 50 CURVE SMOOTH",
"437 50 OFFCURVE",
"429 60 OFFCURVE",
"448 69 CURVE SMOOTH",
"467 78 OFFCURVE",
"493 86 OFFCURVE",
"507 92 CURVE SMOOTH",
"521 98 OFFCURVE",
"548 117 OFFCURVE",
"548 125 CURVE SMOOTH",
"548 132 OFFCURVE",
"544 130 OFFCURVE",
"539 130 CURVE SMOOTH",
"534 130 OFFCURVE",
"511 118 OFFCURVE",
"489 118 CURVE SMOOTH",
"467 118 OFFCURVE",
"421 118 OFFCURVE",
"388 107 CURVE SMOOTH",
"355 96 OFFCURVE",
"330 95 OFFCURVE",
"350 107 CURVE SMOOTH",
"370 119 OFFCURVE",
"385 127 OFFCURVE",
"397 130 CURVE SMOOTH",
"409 133 OFFCURVE",
"418 148 OFFCURVE",
"396 145 CURVE SMOOTH",
"374 142 OFFCURVE",
"339 141 OFFCURVE",
"331 141 CURVE"
);
},
{
closed = 1;
nodes = (
"1391 141 OFFCURVE",
"1365 117 OFFCURVE",
"1335 117 CURVE SMOOTH",
"1316 117 OFFCURVE",
"1310 125 OFFCURVE",
"1310 135 CURVE SMOOTH",
"1310 185 OFFCURVE",
"1423 197 OFFCURVE",
"1491 197 CURVE SMOOTH",
"1546 197 OFFCURVE",
"1679 157 OFFCURVE",
"1782 157 CURVE SMOOTH",
"1885 157 OFFCURVE",
"2004 158 OFFCURVE",
"2090 158 CURVE SMOOTH",
"2110 158 LINE",
"2110 442 LINE",
"2090 442 LINE SMOOTH",
"2009 442 OFFCURVE",
"1788 524 OFFCURVE",
"1708 524 CURVE SMOOTH",
"1627 524 OFFCURVE",
"1532 503 OFFCURVE",
"1482 492 CURVE SMOOTH",
"1432 481 OFFCURVE",
"1385 474 OFFCURVE",
"1348 474 CURVE SMOOTH",
"1323 474 OFFCURVE",
"1310 483 OFFCURVE",
"1310 494 CURVE SMOOTH",
"1310 506 OFFCURVE",
"1323 523 OFFCURVE",
"1362 523 CURVE SMOOTH",
"1398 523 OFFCURVE",
"1493 525 OFFCURVE",
"1508 531 CURVE SMOOTH",
"1523 537 OFFCURVE",
"1517 547 OFFCURVE",
"1505 547 CURVE SMOOTH",
"1493 547 OFFCURVE",
"1477 547 OFFCURVE",
"1457 555 CURVE SMOOTH",
"1437 563 OFFCURVE",
"1417 566 OFFCURVE",
"1394 566 CURVE SMOOTH",
"1371 566 OFFCURVE",
"1384 587 OFFCURVE",
"1398 587 CURVE SMOOTH",
"1412 587 OFFCURVE",
"1422 587 OFFCURVE",
"1484 587 CURVE SMOOTH",
"1523 587 OFFCURVE",
"1537 569 OFFCURVE",
"1610 569 CURVE SMOOTH",
"1622 569 OFFCURVE",
"1624 582 OFFCURVE",
"1611 582 CURVE SMOOTH",
"1598 582 OFFCURVE",
"1549 613 OFFCURVE",
"1517 623 CURVE SMOOTH",
"1485 633 OFFCURVE",
"1470 635 OFFCURVE",
"1450 635 CURVE SMOOTH",
"1430 635 OFFCURVE",
"1441 651 OFFCURVE",
"1449 652 CURVE SMOOTH",
"1457 653 OFFCURVE",
"1465 655 OFFCURVE",
"1490 655 CURVE SMOOTH",
"1545 655 OFFCURVE",
"1633 612 OFFCURVE",
"1749 612 CURVE SMOOTH",
"1787 612 OFFCURVE",
"1864 618 OFFCURVE",
"1864 633 CURVE SMOOTH",
"1864 639 OFFCURVE",
"1852 640 OFFCURVE",
"1838 641 CURVE SMOOTH",
"1803 645 OFFCURVE",
"1753 661 OFFCURVE",
"1720 676 CURVE SMOOTH",
"1673 698 OFFCURVE",
"1633 696 OFFCURVE",
"1601 696 CURVE SMOOTH",
"1569 696 OFFCURVE",
"1589 718 OFFCURVE",
"1632 718 CURVE SMOOTH",
"1691 718 OFFCURVE",
"1805 687 OFFCURVE",
"1891 687 CURVE SMOOTH",
"1977 687 OFFCURVE",
"2039 711 OFFCURVE",
"2055 720 CURVE SMOOTH",
"2071 729 OFFCURVE",
"2061 735 OFFCURVE",
"2050 735 CURVE SMOOTH",
"2039 735 OFFCURVE",
"2033 736 OFFCURVE",
"2013 738 CURVE SMOOTH",
"1993 740 OFFCURVE",
"1637 800 OFFCURVE",
"1488 800 CURVE SMOOTH",
"1328 800 OFFCURVE",
"1232 758 OFFCURVE",
"1170 708 CURVE SMOOTH",
"1146 689 OFFCURVE",
"1138 673 OFFCURVE",
"1138 659 CURVE SMOOTH",
"1138 638 OFFCURVE",
"1160 623 OFFCURVE",
"1176 615 CURVE SMOOTH",
"1202 602 OFFCURVE",
"1234 579 OFFCURVE",
"1234 536 CURVE SMOOTH",
"1234 480 OFFCURVE",
"1185 442 OFFCURVE",
"1110 442 CURVE SMOOTH",
"1090 442 LINE",
"1090 158 LINE",
"1120 158 LINE SMOOTH",
"1185 158 OFFCURVE",
"1234 123 OFFCURVE",
"1234 96 CURVE SMOOTH",
"1234 79 OFFCURVE",
"1212 43 OFFCURVE",
"1167 43 CURVE SMOOTH",
"1151 43 OFFCURVE",
"1138 38 OFFCURVE",
"1138 26 CURVE SMOOTH",
"1138 17 OFFCURVE",
"1144 4 OFFCURVE",
"1160 -14 CURVE SMOOTH",
"1199 -58 OFFCURVE",
"1305 -200 OFFCURVE",
"1651 -200 CURVE SMOOTH",
"1866 -200 OFFCURVE",
"2016 -121 OFFCURVE",
"2016 -97 CURVE SMOOTH",
"2016 -86 OFFCURVE",
"2007 -94 OFFCURVE",
"2002 -94 CURVE SMOOTH",
"1997 -94 OFFCURVE",
"1975 -110 OFFCURVE",
"1912 -110 CURVE SMOOTH",
"1853 -110 OFFCURVE",
"1812 -93 OFFCURVE",
"1767 -93 CURVE SMOOTH",
"1722 -93 OFFCURVE",
"1687 -100 OFFCURVE",
"1674 -102 CURVE SMOOTH",
"1661 -104 OFFCURVE",
"1644 -89 OFFCURVE",
"1666 -83 CURVE SMOOTH",
"1688 -77 OFFCURVE",
"1714 -68 OFFCURVE",
"1745 -64 CURVE SMOOTH",
"1776 -60 OFFCURVE",
"1840 -32 OFFCURVE",
"1884 0 CURVE SMOOTH",
"1928 32 OFFCURVE",
"1937 51 OFFCURVE",
"1916 51 CURVE SMOOTH",
"1899 51 OFFCURVE",
"1882 27 OFFCURVE",
"1855 27 CURVE SMOOTH",
"1828 27 OFFCURVE",
"1717 23 OFFCURVE",
"1687 6 CURVE SMOOTH",
"1657 -11 OFFCURVE",
"1641 -18 OFFCURVE",
"1613 -18 CURVE SMOOTH",
"1585 -18 OFFCURVE",
"1581 5 OFFCURVE",
"1603 5 CURVE SMOOTH",
"1625 5 OFFCURVE",
"1640 9 OFFCURVE",
"1667 19 CURVE SMOOTH",
"1694 29 OFFCURVE",
"1780 70 OFFCURVE",
"1780 85 CURVE SMOOTH",
"1780 100 OFFCURVE",
"1775 97 OFFCURVE",
"1772 97 CURVE SMOOTH",
"1769 97 OFFCURVE",
"1737 84 OFFCURVE",
"1717 84 CURVE SMOOTH",
"1697 84 OFFCURVE",
"1676 88 OFFCURVE",
"1664 88 CURVE SMOOTH",
"1652 88 OFFCURVE",
"1583 50 OFFCURVE",
"1550 50 CURVE SMOOTH",
"1537 50 OFFCURVE",
"1529 60 OFFCURVE",
"1548 69 CURVE SMOOTH",
"1567 78 OFFCURVE",
"1593 86 OFFCURVE",
"1607 92 CURVE SMOOTH",
"1621 98 OFFCURVE",
"1648 117 OFFCURVE",
"1648 125 CURVE SMOOTH",
"1648 132 OFFCURVE",
"1644 130 OFFCURVE",
"1639 130 CURVE SMOOTH",
"1634 130 OFFCURVE",
"1611 118 OFFCURVE",
"1589 118 CURVE SMOOTH",
"1567 118 OFFCURVE",
"1521 118 OFFCURVE",
"1488 107 CURVE SMOOTH",
"1455 96 OFFCURVE",
"1430 95 OFFCURVE",
"1450 107 CURVE SMOOTH",
"1470 119 OFFCURVE",
"1485 127 OFFCURVE",
"1497 130 CURVE SMOOTH",
"1509 133 OFFCURVE",
"1518 148 OFFCURVE",
"1496 145 CURVE SMOOTH",
"1474 142 OFFCURVE",
"1439 141 OFFCURVE",
"1431 141 CURVE"
);
}
);
width = 1000;
},
{
associatedMasterId = "36C34FB4-9C42-4BD9-991C-7B94FED7D558";
guideLines = (
{
angle = 90;
position = "{38, 396}";
},
{
angle = 90;
position = "{134, 407}";
},
{
angle = 90;
position = "{210, 331}";
}
);
layerId = "6C9E89EB-E360-4CE8-A0F4-12E20E328488";
name = "Nov 23 21, 14:13";
paths = (
{
closed = 1;
nodes = (
"1010 158 LINE",
"990 158 LINE SMOOTH",
"904 158 OFFCURVE",
"795 153 OFFCURVE",
"692 153 CURVE SMOOTH",
"589 153 OFFCURVE",
"446 197 OFFCURVE",
"391 197 CURVE SMOOTH",
"323 197 OFFCURVE",
"210 185 OFFCURVE",
"210 135 CURVE SMOOTH",
"210 125 OFFCURVE",
"216 117 OFFCURVE",
"235 117 CURVE SMOOTH",
"255 117 OFFCURVE",
"323 151 OFFCURVE",
"396 151 CURVE SMOOTH",
"418 151 OFFCURVE",
"409 136 OFFCURVE",
"397 136 CURVE SMOOTH",
"377 136 OFFCURVE",
"360 125 OFFCURVE",
"340 113 CURVE SMOOTH",
"328 106 OFFCURVE",
"336 101 OFFCURVE",
"352 101 CURVE SMOOTH",
"366 101 OFFCURVE",
"417 118 OFFCURVE",
"489 118 CURVE SMOOTH",
"511 118 OFFCURVE",
"524 130 OFFCURVE",
"539 130 CURVE SMOOTH",
"545 130 OFFCURVE",
"549 127 OFFCURVE",
"549 123 CURVE SMOOTH",
"549 115 OFFCURVE",
"529 101 OFFCURVE",
"507 92 CURVE SMOOTH",
"493 86 OFFCURVE",
"467 78 OFFCURVE",
"448 69 CURVE SMOOTH",
"429 60 OFFCURVE",
"437 50 OFFCURVE",
"450 50 CURVE SMOOTH",
"465 50 OFFCURVE",
"488 58 OFFCURVE",
"510 67 CURVE SMOOTH",
"538 79 OFFCURVE",
"569 84 OFFCURVE",
"617 84 CURVE SMOOTH",
"637 84 OFFCURVE",
"651 97 OFFCURVE",
"672 97 CURVE SMOOTH",
"678 97 OFFCURVE",
"681 94 OFFCURVE",
"681 90 CURVE SMOOTH",
"681 85 OFFCURVE",
"677 78 OFFCURVE",
"668 71 CURVE SMOOTH",
"633 44 OFFCURVE",
"549 5 OFFCURVE",
"503 5 CURVE SMOOTH",
"481 5 OFFCURVE",
"485 -18 OFFCURVE",
"513 -18 CURVE SMOOTH",
"541 -18 OFFCURVE",
"556 -3 OFFCURVE",
"587 6 CURVE SMOOTH",
"676 31 OFFCURVE",
"705 17 OFFCURVE",
"755 27 CURVE SMOOTH",
"782 32 OFFCURVE",
"799 51 OFFCURVE",
"816 51 CURVE SMOOTH",
"837 51 OFFCURVE",
"828 32 OFFCURVE",
"784 0 CURVE SMOOTH",
"740 -32 OFFCURVE",
"676 -60 OFFCURVE",
"645 -64 CURVE SMOOTH",
"614 -68 OFFCURVE",
"588 -77 OFFCURVE",
"566 -83 CURVE SMOOTH",
"544 -89 OFFCURVE",
"550 -105 OFFCURVE",
"570 -102 CURVE SMOOTH",
"583 -100 OFFCURVE",
"618 -93 OFFCURVE",
"663 -93 CURVE SMOOTH",
"708 -93 OFFCURVE",
"753 -110 OFFCURVE",
"812 -110 CURVE SMOOTH",
"850 -110 OFFCURVE",
"873 -104 OFFCURVE",
"886 -100 CURVE SMOOTH",
"901 -95 OFFCURVE",
"907 -96 OFFCURVE",
"907 -101 CURVE SMOOTH",
"907 -108 OFFCURVE",
"894 -121 OFFCURVE",
"879 -128 CURVE SMOOTH",
"824 -154 OFFCURVE",
"703 -200 OFFCURVE",
"551 -200 CURVE SMOOTH",
"205 -200 OFFCURVE",
"99 -58 OFFCURVE",
"60 -14 CURVE SMOOTH",
"46 2 OFFCURVE",
"38 15 OFFCURVE",
"38 26 CURVE SMOOTH",
"38 36 OFFCURVE",
"47 43 OFFCURVE",
"67 43 CURVE SMOOTH",
"112 43 OFFCURVE",
"134 79 OFFCURVE",
"134 96 CURVE SMOOTH",
"134 123 OFFCURVE",
"85 158 OFFCURVE",
"20 158 CURVE SMOOTH",
"-10 158 LINE",
"-10 442 LINE",
"10 442 LINE SMOOTH",
"85 442 OFFCURVE",
"134 480 OFFCURVE",
"134 536 CURVE SMOOTH",
"134 608 OFFCURVE",
"38 610 OFFCURVE",
"38 659 CURVE SMOOTH",
"38 739 OFFCURVE",
"250 800 OFFCURVE",
"388 800 CURVE SMOOTH",
"577 800 OFFCURVE",
"714 735 OFFCURVE",
"900 735 CURVE SMOOTH",
"911 735 OFFCURVE",
"921 729 OFFCURVE",
"905 720 CURVE SMOOTH",
"889 711 OFFCURVE",
"827 687 OFFCURVE",
"741 687 CURVE SMOOTH",
"655 687 OFFCURVE",
"591 718 OFFCURVE",
"532 718 CURVE SMOOTH",
"504 718 OFFCURVE",
"485 708 OFFCURVE",
"485 702 CURVE SMOOTH",
"485 698 OFFCURVE",
"490 696 OFFCURVE",
"501 696 CURVE SMOOTH",
"533 696 OFFCURVE",
"573 698 OFFCURVE",
"620 676 CURVE SMOOTH",
"653 661 OFFCURVE",
"703 655 OFFCURVE",
"738 651 CURVE SMOOTH",
"756 650 OFFCURVE",
"765 646 OFFCURVE",
"765 642 CURVE SMOOTH",
"765 631 OFFCURVE",
"736 622 OFFCURVE",
"619 622 CURVE SMOOTH",
"503 622 OFFCURVE",
"434 665 OFFCURVE",
"370 665 CURVE SMOOTH",
"349 665 OFFCURVE",
"335 658 OFFCURVE",
"335 653 CURVE SMOOTH",
"335 648 OFFCURVE",
"342 645 OFFCURVE",
"360 645 CURVE SMOOTH",
"446 645 OFFCURVE",
"482 592 OFFCURVE",
"511 592 CURVE SMOOTH",
"524 592 OFFCURVE",
"522 579 OFFCURVE",
"510 579 CURVE SMOOTH",
"462 579 OFFCURVE",
"440 581 OFFCURVE",
"419 586 CURVE SMOOTH",
"400 590 OFFCURVE",
"370 598 OFFCURVE",
"339 598 CURVE SMOOTH",
"299 598 OFFCURVE",
"280 588 OFFCURVE",
"280 582 CURVE SMOOTH",
"280 579 OFFCURVE",
"285 576 OFFCURVE",
"294 576 CURVE SMOOTH",
"317 576 OFFCURVE",
"337 573 OFFCURVE",
"357 565 CURVE SMOOTH",
"377 557 OFFCURVE",
"393 557 OFFCURVE",
"405 557 CURVE SMOOTH",
"417 557 OFFCURVE",
"423 547 OFFCURVE",
"408 541 CURVE SMOOTH",
"398 537 OFFCURVE",
"360 532 OFFCURVE",
"324 532 CURVE SMOOTH",
"306 532 OFFCURVE",
"289 535 OFFCURVE",
"276 535 CURVE SMOOTH",
"266 535 OFFCURVE",
"261 531 OFFCURVE",
"261 528 CURVE SMOOTH",
"261 524 OFFCURVE",
"267 517 OFFCURVE",
"277 517 CURVE SMOOTH",
"309 517 OFFCURVE",
"317 499 OFFCURVE",
"348 499 CURVE SMOOTH",
"361 499 OFFCURVE",
"357 485 OFFCURVE",
"348 485 CURVE SMOOTH",
"339 485 OFFCURVE",
"317 474 OFFCURVE",
"274 474 CURVE SMOOTH",
"257 474 OFFCURVE",
"241 477 OFFCURVE",
"230 477 CURVE SMOOTH",
"218 477 OFFCURVE",
"210 474 OFFCURVE",
"210 459 CURVE SMOOTH",
"210 426 OFFCURVE",
"275 418 OFFCURVE",
"357 418 CURVE SMOOTH",
"482 418 OFFCURVE",
"552 462 OFFCURVE",
"692 462 CURVE SMOOTH",
"790 462 OFFCURVE",
"843 442 OFFCURVE",
"927 442 CURVE SMOOTH",
"1010 442 LINE"
);
}
);
width = 1000;
}
);
unicode = 017E;
},
{
glyphname = zdotaccent;
lastChange = "2021-11-23 14:02:30 +0000";
layers = (
{
layerId = "36C34FB4-9C42-4BD9-991C-7B94FED7D558";
paths = (
{
closed = 1;
nodes = (
"444 -107 OFFCURVE",
"447 -103 OFFCURVE",
"447 -99 CURVE SMOOTH",
"447 -95 OFFCURVE",
"444 -91 OFFCURVE",
"439 -91 CURVE SMOOTH",
"427 -91 OFFCURVE",
"413 -80 OFFCURVE",
"390 -53 CURVE SMOOTH",
"373 -34 OFFCURVE",
"361 -24 OFFCURVE",
"346 -14 CURVE SMOOTH",
"331 -4 OFFCURVE",
"316 6 OFFCURVE",
"305 14 CURVE SMOOTH",
"294 22 OFFCURVE",
"301 32 OFFCURVE",
"311 27 CURVE SMOOTH",
"315 25 OFFCURVE",
"331 21 OFFCURVE",
"364 6 CURVE SMOOTH",
"397 -9 OFFCURVE",
"482 -27 OFFCURVE",
"507 -27 CURVE SMOOTH",
"532 -27 OFFCURVE",
"620 -56 OFFCURVE",
"642 -56 CURVE SMOOTH",
"665 -56 OFFCURVE",
"657 -37 OFFCURVE",
"647 -37 CURVE SMOOTH",
"637 -37 OFFCURVE",
"616 -27 OFFCURVE",
"592 -15 CURVE SMOOTH",
"568 -3 OFFCURVE",
"538 29 OFFCURVE",
"512 41 CURVE SMOOTH",
"486 53 OFFCURVE",
"460 66 OFFCURVE",
"415 94 CURVE SMOOTH",
"370 122 OFFCURVE",
"316 142 OFFCURVE",
"306 142 CURVE SMOOTH",
"296 142 OFFCURVE",
"291 147 OFFCURVE",
"291 153 CURVE SMOOTH",
"291 159 OFFCURVE",
"297 165 OFFCURVE",
"309 165 CURVE SMOOTH",
"322 165 OFFCURVE",
"366 157 OFFCURVE",
"424 128 CURVE SMOOTH",
"482 99 OFFCURVE",
"597 52 OFFCURVE",
"662 52 CURVE SMOOTH",
"732 52 OFFCURVE",
"873 72 OFFCURVE",
"903 75 CURVE SMOOTH",
"933 78 OFFCURVE",
"919 91 OFFCURVE",
"903 94 CURVE SMOOTH",
"887 97 OFFCURVE",
"829 113 OFFCURVE",
"770 144 CURVE SMOOTH",
"711 175 OFFCURVE",
"653 184 OFFCURVE",
"613 192 CURVE SMOOTH",
"573 200 OFFCURVE",
"509 216 OFFCURVE",
"497 221 CURVE SMOOTH",
"485 226 OFFCURVE",
"480 230 OFFCURVE",
"480 235 CURVE SMOOTH",
"480 242 OFFCURVE",
"484 245 OFFCURVE",
"490 245 CURVE SMOOTH",
"498 245 OFFCURVE",
"530 230 OFFCURVE",
"595 230 CURVE SMOOTH",
"643 230 OFFCURVE",
"678 229 OFFCURVE",
"708 239 CURVE SMOOTH",
"738 249 OFFCURVE",
"725 256 OFFCURVE",
"710 256 CURVE SMOOTH",
"695 256 OFFCURVE",
"664 265 OFFCURVE",
"612 290 CURVE SMOOTH",
"560 315 OFFCURVE",
"503 312 OFFCURVE",
"469 312 CURVE SMOOTH",
"429 312 OFFCURVE",
"425 317 OFFCURVE",
"425 322 CURVE SMOOTH",
"425 330 OFFCURVE",
"446 338 OFFCURVE",
"469 338 CURVE SMOOTH",
"513 338 OFFCURVE",
"588 334 OFFCURVE",
"638 334 CURVE SMOOTH",
"746 334 OFFCURVE",
"840 388 OFFCURVE",
"861 401 CURVE SMOOTH",
"882 414 OFFCURVE",
"958 440 OFFCURVE",
"967 444 CURVE SMOOTH",
"976 448 OFFCURVE",
"982 452 OFFCURVE",
"982 459 CURVE SMOOTH",
"982 466 OFFCURVE",
"907 471 OFFCURVE",
"871 471 CURVE SMOOTH",
"835 471 OFFCURVE",
"780 457 OFFCURVE",
"735 457 CURVE SMOOTH",
"690 457 OFFCURVE",
"678 457 OFFCURVE",
"607 457 CURVE SMOOTH",
"536 457 OFFCURVE",
"453 419 OFFCURVE",
"440 413 CURVE SMOOTH",
"427 407 OFFCURVE",
"413 403 OFFCURVE",
"408 403 CURVE SMOOTH",
"402 403 OFFCURVE",
"400 405 OFFCURVE",
"400 408 CURVE SMOOTH",
"400 414 OFFCURVE",
"407 422 OFFCURVE",
"419 427 CURVE SMOOTH",
"430 432 OFFCURVE",
"530 473 OFFCURVE",
"562 486 CURVE SMOOTH",
"594 499 OFFCURVE",
"713 615 OFFCURVE",
"775 658 CURVE SMOOTH",
"804 678 OFFCURVE",
"848 700 OFFCURVE",
"866 707 CURVE SMOOTH",
"884 714 OFFCURVE",
"880 727 OFFCURVE",
"868 727 CURVE SMOOTH",
"785 727 OFFCURVE",
"714 700 OFFCURVE",
"679 685 CURVE SMOOTH",
"644 670 OFFCURVE",
"578 640 OFFCURVE",
"494 587 CURVE SMOOTH",
"459 565 OFFCURVE",
"426 548 OFFCURVE",
"388 534 CURVE SMOOTH",
"350 520 OFFCURVE",
"305 504 OFFCURVE",
"289 502 CURVE SMOOTH",
"273 500 OFFCURVE",
"277 515 OFFCURVE",
"282 517 CURVE SMOOTH",
"287 519 OFFCURVE",
"340 547 OFFCURVE",
"357 557 CURVE SMOOTH",
"374 567 OFFCURVE",
"403 589 OFFCURVE",
"431 613 CURVE SMOOTH",
"459 637 OFFCURVE",
"547 701 OFFCURVE",
"563 712 CURVE SMOOTH",
"592 732 OFFCURVE",
"649 750 OFFCURVE",
"666 758 CURVE SMOOTH",
"683 766 OFFCURVE",
"675 773 OFFCURVE",
"669 773 CURVE SMOOTH",
"517 773 OFFCURVE",
"423 720 OFFCURVE",
"394 697 CURVE SMOOTH",
"365 674 OFFCURVE",
"323 636 OFFCURVE",
"310 623 CURVE SMOOTH",
"297 610 OFFCURVE",
"291 602 OFFCURVE",
"286 602 CURVE SMOOTH",
"281 602 OFFCURVE",
"278 604 OFFCURVE",
"278 609 CURVE SMOOTH",
"278 615 OFFCURVE",
"291 629 OFFCURVE",
"301 641 CURVE SMOOTH",
"312 654 OFFCURVE",
"337 698 OFFCURVE",
"337 709 CURVE SMOOTH",
"337 713 OFFCURVE",
"334 717 OFFCURVE",
"330 717 CURVE SMOOTH",
"325 717 OFFCURVE",
"315 710 OFFCURVE",
"296 694 CURVE SMOOTH",
"282 682 OFFCURVE",
"249 650 OFFCURVE",
"232 629 CURVE SMOOTH",
"215 608 OFFCURVE",
"158 546 OFFCURVE",
"125 511 CURVE SMOOTH",
"92 476 OFFCURVE",
"62 442 OFFCURVE",
"10 442 CURVE",
"-10 442 LINE",
"-10 158 LINE",
"10 158 LINE",
"44 158 OFFCURVE",
"103 150 OFFCURVE",
"143 109 CURVE SMOOTH",
"183 68 OFFCURVE",
"264 -29 OFFCURVE",
"337 -73 CURVE SMOOTH",
"358 -86 OFFCURVE",
"421 -107 OFFCURVE",
"438 -107 CURVE SMOOTH"
);
}
);
width = 1000;
}
);
unicode = 017C;
},
